<svg width="200" height="200" viewBox="0 0 200 200" fill="none" xmlns="http://www.w3.org/2000/svg">
<path d="M14.7302 50.5055L13.927 51.101L14.3315 50.8073L13.927 51.1011L13.9271 51.1013L13.9276 51.102L13.9298 51.105L13.9386 51.1171L13.9738 51.1657L14.1137 51.3593C14.2374 51.5308 14.4218 51.7869 14.6638 52.1245C15.1478 52.7998 15.8624 53.8013 16.7842 55.1055C18.6272 57.7131 21.2984 61.5307 24.6108 66.37C39.9938 90.0245 56.8799 122.454 69.9256 148.983C76.4477 162.246 82.0075 174.029 85.9368 182.496C87.9014 186.73 89.4584 190.135 90.524 192.481C91.0569 193.654 91.4669 194.562 91.7437 195.177C91.8277 195.364 91.8995 195.524 91.9586 195.655C70.8018 204.881 51.4568 195.184 37.2779 182.99C30.1459 176.857 24.3535 170.116 20.3427 164.906C18.338 162.302 16.78 160.082 15.7238 158.514C15.329 157.928 15.0043 157.434 14.7528 157.044L22.352 158.723L23.6343 159.006L22.8652 157.942C11.7942 142.621 6.20055 126.06 3.37585 113.32C1.96384 106.952 1.24476 101.543 0.87873 97.7287C0.695731 95.8216 0.601023 94.3134 0.552077 93.2834C0.543141 93.0954 0.535731 92.9233 0.529587 92.7677L5.67916 96.8399L7.16414 98.0142L6.45265 96.2598C2.22918 85.8455 2.95599 71.9155 4.77184 60.52C5.67773 54.835 6.8503 49.8058 7.79648 46.1978C8.26949 44.3942 8.68571 42.9465 8.9834 41.9505C9.12633 41.4724 9.24192 41.0984 9.32333 40.8392C9.5866 40.8951 9.96446 40.9771 10.4446 41.0861C11.4494 41.3141 12.9018 41.6601 14.6887 42.1311C18.2633 43.0732 23.1732 44.5148 28.5147 46.5124C39.2222 50.5167 51.5676 56.7205 58.4289 65.5384L59.5826 67.0211L59.3186 65.1611L58.3979 58.6745C58.5313 58.758 58.6788 58.851 58.8398 58.9536C59.7067 59.5059 60.965 60.3348 62.5255 61.4382C65.6466 63.6452 69.9752 66.9493 74.7973 71.3333C84.4439 80.1035 96.0523 93.1832 103.93 110.434L104.484 111.646L104.864 110.369L107.082 102.93C107.312 103.377 107.607 103.959 107.951 104.662C108.837 106.472 110.053 109.09 111.376 112.316C114.021 118.771 117.082 127.648 118.759 137.356C122.089 156.645 119.938 179.057 98.4014 192.39C74.2552 139.807 43.5879 89.4443 26.9424 65.1725C25.1001 62.2297 22.8843 59.6755 20.7166 57.3051C20.2689 56.8156 19.824 56.3347 19.3851 55.8602C17.686 54.0235 16.0754 52.2825 14.7302 50.5055Z" fill="url(#paint0_linear_66_3228)" fill-opacity="0.12"/>
<path d="M14.7302 50.5055L13.927 51.101L14.3315 50.8073L13.927 51.1011L13.9271 51.1013L13.9276 51.102L13.9298 51.105L13.9386 51.1171L13.9738 51.1657L14.1137 51.3593C14.2374 51.5308 14.4218 51.7869 14.6638 52.1245C15.1478 52.7998 15.8624 53.8013 16.7842 55.1055C18.6272 57.7131 21.2984 61.5307 24.6108 66.37C39.9938 90.0245 56.8799 122.454 69.9256 148.983C76.4477 162.246 82.0075 174.029 85.9368 182.496C87.9014 186.73 89.4584 190.135 90.524 192.481C91.0569 193.654 91.4669 194.562 91.7437 195.177C91.8277 195.364 91.8995 195.524 91.9586 195.655C70.8018 204.881 51.4568 195.184 37.2779 182.99C30.1459 176.857 24.3535 170.116 20.3427 164.906C18.338 162.302 16.78 160.082 15.7238 158.514C15.329 157.928 15.0043 157.434 14.7528 157.044L22.352 158.723L23.6343 159.006L22.8652 157.942C11.7942 142.621 6.20055 126.06 3.37585 113.32C1.96384 106.952 1.24476 101.543 0.87873 97.7287C0.695731 95.8216 0.601023 94.3134 0.552077 93.2834C0.543141 93.0954 0.535731 92.9233 0.529587 92.7677L5.67916 96.8399L7.16414 98.0142L6.45265 96.2598C2.22918 85.8455 2.95599 71.9155 4.77184 60.52C5.67773 54.835 6.8503 49.8058 7.79648 46.1978C8.26949 44.3942 8.68571 42.9465 8.9834 41.9505C9.12633 41.4724 9.24192 41.0984 9.32333 40.8392C9.5866 40.8951 9.96446 40.9771 10.4446 41.0861C11.4494 41.3141 12.9018 41.6601 14.6887 42.1311C18.2633 43.0732 23.1732 44.5148 28.5147 46.5124C39.2222 50.5167 51.5676 56.7205 58.4289 65.5384L59.5826 67.0211L59.3186 65.1611L58.3979 58.6745C58.5313 58.758 58.6788 58.851 58.8398 58.9536C59.7067 59.5059 60.965 60.3348 62.5255 61.4382C65.6466 63.6452 69.9752 66.9493 74.7973 71.3333C84.4439 80.1035 96.0523 93.1832 103.93 110.434L104.484 111.646L104.864 110.369L107.082 102.93C107.312 103.377 107.607 103.959 107.951 104.662C108.837 106.472 110.053 109.09 111.376 112.316C114.021 118.771 117.082 127.648 118.759 137.356C122.089 156.645 119.938 179.057 98.4014 192.39C74.2552 139.807 43.5879 89.4443 26.9424 65.1725C25.1001 62.2297 22.8843 59.6755 20.7166 57.3051C20.2689 56.8156 19.824 56.3347 19.3851 55.8602C17.686 54.0235 16.0754 52.2825 14.7302 50.5055Z" fill="url(#paint1_linear_66_3228)"/>
<path d="M14.7302 50.5055L13.927 51.101L14.3315 50.8073L13.927 51.1011L13.9271 51.1013L13.9276 51.102L13.9298 51.105L13.9386 51.1171L13.9738 51.1657L14.1137 51.3593C14.2374 51.5308 14.4218 51.7869 14.6638 52.1245C15.1478 52.7998 15.8624 53.8013 16.7842 55.1055C18.6272 57.7131 21.2984 61.5307 24.6108 66.37C39.9938 90.0245 56.8799 122.454 69.9256 148.983C76.4477 162.246 82.0075 174.029 85.9368 182.496C87.9014 186.73 89.4584 190.135 90.524 192.481C91.0569 193.654 91.4669 194.562 91.7437 195.177C91.8277 195.364 91.8995 195.524 91.9586 195.655C70.8018 204.881 51.4568 195.184 37.2779 182.99C30.1459 176.857 24.3535 170.116 20.3427 164.906C18.338 162.302 16.78 160.082 15.7238 158.514C15.329 157.928 15.0043 157.434 14.7528 157.044L22.352 158.723L23.6343 159.006L22.8652 157.942C11.7942 142.621 6.20055 126.06 3.37585 113.32C1.96384 106.952 1.24476 101.543 0.87873 97.7287C0.695731 95.8216 0.601023 94.3134 0.552077 93.2834C0.543141 93.0954 0.535731 92.9233 0.529587 92.7677L5.67916 96.8399L7.16414 98.0142L6.45265 96.2598C2.22918 85.8455 2.95599 71.9155 4.77184 60.52C5.67773 54.835 6.8503 49.8058 7.79648 46.1978C8.26949 44.3942 8.68571 42.9465 8.9834 41.9505C9.12633 41.4724 9.24192 41.0984 9.32333 40.8392C9.5866 40.8951 9.96446 40.9771 10.4446 41.0861C11.4494 41.3141 12.9018 41.6601 14.6887 42.1311C18.2633 43.0732 23.1732 44.5148 28.5147 46.5124C39.2222 50.5167 51.5676 56.7205 58.4289 65.5384L59.5826 67.0211L59.3186 65.1611L58.3979 58.6745C58.5313 58.758 58.6788 58.851 58.8398 58.9536C59.7067 59.5059 60.965 60.3348 62.5255 61.4382C65.6466 63.6452 69.9752 66.9493 74.7973 71.3333C84.4439 80.1035 96.0523 93.1832 103.93 110.434L104.484 111.646L104.864 110.369L107.082 102.93C107.312 103.377 107.607 103.959 107.951 104.662C108.837 106.472 110.053 109.09 111.376 112.316C114.021 118.771 117.082 127.648 118.759 137.356C122.089 156.645 119.938 179.057 98.4014 192.39C74.2552 139.807 43.5879 89.4443 26.9424 65.1725C25.1001 62.2297 22.8843 59.6755 20.7166 57.3051C20.2689 56.8156 19.824 56.3347 19.3851 55.8602C17.686 54.0235 16.0754 52.2825 14.7302 50.5055Z" fill="url(#paint2_linear_66_3228)"/>
<path d="M14.7302 50.5055L13.927 51.101L14.3315 50.8073L13.927 51.1011L13.9271 51.1013L13.9276 51.102L13.9298 51.105L13.9386 51.1171L13.9738 51.1657L14.1137 51.3593C14.2374 51.5308 14.4218 51.7869 14.6638 52.1245C15.1478 52.7998 15.8624 53.8013 16.7842 55.1055C18.6272 57.7131 21.2984 61.5307 24.6108 66.37C39.9938 90.0245 56.8799 122.454 69.9256 148.983C76.4477 162.246 82.0075 174.029 85.9368 182.496C87.9014 186.73 89.4584 190.135 90.524 192.481C91.0569 193.654 91.4669 194.562 91.7437 195.177C91.8277 195.364 91.8995 195.524 91.9586 195.655C70.8018 204.881 51.4568 195.184 37.2779 182.99C30.1459 176.857 24.3535 170.116 20.3427 164.906C18.338 162.302 16.78 160.082 15.7238 158.514C15.329 157.928 15.0043 157.434 14.7528 157.044L22.352 158.723L23.6343 159.006L22.8652 157.942C11.7942 142.621 6.20055 126.06 3.37585 113.32C1.96384 106.952 1.24476 101.543 0.87873 97.7287C0.695731 95.8216 0.601023 94.3134 0.552077 93.2834C0.543141 93.0954 0.535731 92.9233 0.529587 92.7677L5.67916 96.8399L7.16414 98.0142L6.45265 96.2598C2.22918 85.8455 2.95599 71.9155 4.77184 60.52C5.67773 54.835 6.8503 49.8058 7.79648 46.1978C8.26949 44.3942 8.68571 42.9465 8.9834 41.9505C9.12633 41.4724 9.24192 41.0984 9.32333 40.8392C9.5866 40.8951 9.96446 40.9771 10.4446 41.0861C11.4494 41.3141 12.9018 41.6601 14.6887 42.1311C18.2633 43.0732 23.1732 44.5148 28.5147 46.5124C39.2222 50.5167 51.5676 56.7205 58.4289 65.5384L59.5826 67.0211L59.3186 65.1611L58.3979 58.6745C58.5313 58.758 58.6788 58.851 58.8398 58.9536C59.7067 59.5059 60.965 60.3348 62.5255 61.4382C65.6466 63.6452 69.9752 66.9493 74.7973 71.3333C84.4439 80.1035 96.0523 93.1832 103.93 110.434L104.484 111.646L104.864 110.369L107.082 102.93C107.312 103.377 107.607 103.959 107.951 104.662C108.837 106.472 110.053 109.09 111.376 112.316C114.021 118.771 117.082 127.648 118.759 137.356C122.089 156.645 119.938 179.057 98.4014 192.39C74.2552 139.807 43.5879 89.4443 26.9424 65.1725C25.1001 62.2297 22.8843 59.6755 20.7166 57.3051C20.2689 56.8156 19.824 56.3347 19.3851 55.8602C17.686 54.0235 16.0754 52.2825 14.7302 50.5055Z" fill="#FF4500"/>
<path d="M14.7302 50.5055L13.927 51.101L14.3315 50.8073L13.927 51.1011L13.9271 51.1013L13.9276 51.102L13.9298 51.105L13.9386 51.1171L13.9738 51.1657L14.1137 51.3593C14.2374 51.5308 14.4218 51.7869 14.6638 52.1245C15.1478 52.7998 15.8624 53.8013 16.7842 55.1055C18.6272 57.7131 21.2984 61.5307 24.6108 66.37C39.9938 90.0245 56.8799 122.454 69.9256 148.983C76.4477 162.246 82.0075 174.029 85.9368 182.496C87.9014 186.73 89.4584 190.135 90.524 192.481C91.0569 193.654 91.4669 194.562 91.7437 195.177C91.8277 195.364 91.8995 195.524 91.9586 195.655C70.8018 204.881 51.4568 195.184 37.2779 182.99C30.1459 176.857 24.3535 170.116 20.3427 164.906C18.338 162.302 16.78 160.082 15.7238 158.514C15.329 157.928 15.0043 157.434 14.7528 157.044L22.352 158.723L23.6343 159.006L22.8652 157.942C11.7942 142.621 6.20055 126.06 3.37585 113.32C1.96384 106.952 1.24476 101.543 0.87873 97.7287C0.695731 95.8216 0.601023 94.3134 0.552077 93.2834C0.543141 93.0954 0.535731 92.9233 0.529587 92.7677L5.67916 96.8399L7.16414 98.0142L6.45265 96.2598C2.22918 85.8455 2.95599 71.9155 4.77184 60.52C5.67773 54.835 6.8503 49.8058 7.79648 46.1978C8.26949 44.3942 8.68571 42.9465 8.9834 41.9505C9.12633 41.4724 9.24192 41.0984 9.32333 40.8392C9.5866 40.8951 9.96446 40.9771 10.4446 41.0861C11.4494 41.3141 12.9018 41.6601 14.6887 42.1311C18.2633 43.0732 23.1732 44.5148 28.5147 46.5124C39.2222 50.5167 51.5676 56.7205 58.4289 65.5384L59.5826 67.0211L59.3186 65.1611L58.3979 58.6745C58.5313 58.758 58.6788 58.851 58.8398 58.9536C59.7067 59.5059 60.965 60.3348 62.5255 61.4382C65.6466 63.6452 69.9752 66.9493 74.7973 71.3333C84.4439 80.1035 96.0523 93.1832 103.93 110.434L104.484 111.646L104.864 110.369L107.082 102.93C107.312 103.377 107.607 103.959 107.951 104.662C108.837 106.472 110.053 109.09 111.376 112.316C114.021 118.771 117.082 127.648 118.759 137.356C122.089 156.645 119.938 179.057 98.4014 192.39C74.2552 139.807 43.5879 89.4443 26.9424 65.1725C25.1001 62.2297 22.8843 59.6755 20.7166 57.3051C20.2689 56.8156 19.824 56.3347 19.3851 55.8602C17.686 54.0235 16.0754 52.2825 14.7302 50.5055Z" stroke="url(#paint3_linear_66_3228)"/>
<path d="M14.7302 50.5055L13.927 51.101L14.3315 50.8073L13.927 51.1011L13.9271 51.1013L13.9276 51.102L13.9298 51.105L13.9386 51.1171L13.9738 51.1657L14.1137 51.3593C14.2374 51.5308 14.4218 51.7869 14.6638 52.1245C15.1478 52.7998 15.8624 53.8013 16.7842 55.1055C18.6272 57.7131 21.2984 61.5307 24.6108 66.37C39.9938 90.0245 56.8799 122.454 69.9256 148.983C76.4477 162.246 82.0075 174.029 85.9368 182.496C87.9014 186.73 89.4584 190.135 90.524 192.481C91.0569 193.654 91.4669 194.562 91.7437 195.177C91.8277 195.364 91.8995 195.524 91.9586 195.655C70.8018 204.881 51.4568 195.184 37.2779 182.99C30.1459 176.857 24.3535 170.116 20.3427 164.906C18.338 162.302 16.78 160.082 15.7238 158.514C15.329 157.928 15.0043 157.434 14.7528 157.044L22.352 158.723L23.6343 159.006L22.8652 157.942C11.7942 142.621 6.20055 126.06 3.37585 113.32C1.96384 106.952 1.24476 101.543 0.87873 97.7287C0.695731 95.8216 0.601023 94.3134 0.552077 93.2834C0.543141 93.0954 0.535731 92.9233 0.529587 92.7677L5.67916 96.8399L7.16414 98.0142L6.45265 96.2598C2.22918 85.8455 2.95599 71.9155 4.77184 60.52C5.67773 54.835 6.8503 49.8058 7.79648 46.1978C8.26949 44.3942 8.68571 42.9465 8.9834 41.9505C9.12633 41.4724 9.24192 41.0984 9.32333 40.8392C9.5866 40.8951 9.96446 40.9771 10.4446 41.0861C11.4494 41.3141 12.9018 41.6601 14.6887 42.1311C18.2633 43.0732 23.1732 44.5148 28.5147 46.5124C39.2222 50.5167 51.5676 56.7205 58.4289 65.5384L59.5826 67.0211L59.3186 65.1611L58.3979 58.6745C58.5313 58.758 58.6788 58.851 58.8398 58.9536C59.7067 59.5059 60.965 60.3348 62.5255 61.4382C65.6466 63.6452 69.9752 66.9493 74.7973 71.3333C84.4439 80.1035 96.0523 93.1832 103.93 110.434L104.484 111.646L104.864 110.369L107.082 102.93C107.312 103.377 107.607 103.959 107.951 104.662C108.837 106.472 110.053 109.09 111.376 112.316C114.021 118.771 117.082 127.648 118.759 137.356C122.089 156.645 119.938 179.057 98.4014 192.39C74.2552 139.807 43.5879 89.4443 26.9424 65.1725C25.1001 62.2297 22.8843 59.6755 20.7166 57.3051C20.2689 56.8156 19.824 56.3347 19.3851 55.8602C17.686 54.0235 16.0754 52.2825 14.7302 50.5055Z" stroke="url(#paint4_linear_66_3228)"/>
<path d="M14.7302 50.5055L13.927 51.101L14.3315 50.8073L13.927 51.1011L13.9271 51.1013L13.9276 51.102L13.9298 51.105L13.9386 51.1171L13.9738 51.1657L14.1137 51.3593C14.2374 51.5308 14.4218 51.7869 14.6638 52.1245C15.1478 52.7998 15.8624 53.8013 16.7842 55.1055C18.6272 57.7131 21.2984 61.5307 24.6108 66.37C39.9938 90.0245 56.8799 122.454 69.9256 148.983C76.4477 162.246 82.0075 174.029 85.9368 182.496C87.9014 186.73 89.4584 190.135 90.524 192.481C91.0569 193.654 91.4669 194.562 91.7437 195.177C91.8277 195.364 91.8995 195.524 91.9586 195.655C70.8018 204.881 51.4568 195.184 37.2779 182.99C30.1459 176.857 24.3535 170.116 20.3427 164.906C18.338 162.302 16.78 160.082 15.7238 158.514C15.329 157.928 15.0043 157.434 14.7528 157.044L22.352 158.723L23.6343 159.006L22.8652 157.942C11.7942 142.621 6.20055 126.06 3.37585 113.32C1.96384 106.952 1.24476 101.543 0.87873 97.7287C0.695731 95.8216 0.601023 94.3134 0.552077 93.2834C0.543141 93.0954 0.535731 92.9233 0.529587 92.7677L5.67916 96.8399L7.16414 98.0142L6.45265 96.2598C2.22918 85.8455 2.95599 71.9155 4.77184 60.52C5.67773 54.835 6.8503 49.8058 7.79648 46.1978C8.26949 44.3942 8.68571 42.9465 8.9834 41.9505C9.12633 41.4724 9.24192 41.0984 9.32333 40.8392C9.5866 40.8951 9.96446 40.9771 10.4446 41.0861C11.4494 41.3141 12.9018 41.6601 14.6887 42.1311C18.2633 43.0732 23.1732 44.5148 28.5147 46.5124C39.2222 50.5167 51.5676 56.7205 58.4289 65.5384L59.5826 67.0211L59.3186 65.1611L58.3979 58.6745C58.5313 58.758 58.6788 58.851 58.8398 58.9536C59.7067 59.5059 60.965 60.3348 62.5255 61.4382C65.6466 63.6452 69.9752 66.9493 74.7973 71.3333C84.4439 80.1035 96.0523 93.1832 103.93 110.434L104.484 111.646L104.864 110.369L107.082 102.93C107.312 103.377 107.607 103.959 107.951 104.662C108.837 106.472 110.053 109.09 111.376 112.316C114.021 118.771 117.082 127.648 118.759 137.356C122.089 156.645 119.938 179.057 98.4014 192.39C74.2552 139.807 43.5879 89.4443 26.9424 65.1725C25.1001 62.2297 22.8843 59.6755 20.7166 57.3051C20.2689 56.8156 19.824 56.3347 19.3851 55.8602C17.686 54.0235 16.0754 52.2825 14.7302 50.5055Z" stroke="#FF4500"/>
<path d="M75.222 27.3412C75.222 29.2209 73.7316 30.7163 71.8717 30.7163C70.0119 30.7163 68.5215 29.221 68.5215 27.3412C68.5215 25.4614 70.0119 23.9661 71.8717 23.9661C73.7316 23.9661 75.222 25.4615 75.222 27.3412Z" fill="url(#paint5_linear_66_3228)" fill-opacity="0.12"/>
<path d="M75.222 27.3412C75.222 29.2209 73.7316 30.7163 71.8717 30.7163C70.0119 30.7163 68.5215 29.221 68.5215 27.3412C68.5215 25.4614 70.0119 23.9661 71.8717 23.9661C73.7316 23.9661 75.222 25.4615 75.222 27.3412Z" fill="url(#paint6_linear_66_3228)"/>
<path d="M75.222 27.3412C75.222 29.2209 73.7316 30.7163 71.8717 30.7163C70.0119 30.7163 68.5215 29.221 68.5215 27.3412C68.5215 25.4614 70.0119 23.9661 71.8717 23.9661C73.7316 23.9661 75.222 25.4615 75.222 27.3412Z" fill="url(#paint7_linear_66_3228)"/>
<path d="M75.222 27.3412C75.222 29.2209 73.7316 30.7163 71.8717 30.7163C70.0119 30.7163 68.5215 29.221 68.5215 27.3412C68.5215 25.4614 70.0119 23.9661 71.8717 23.9661C73.7316 23.9661 75.222 25.4615 75.222 27.3412Z" fill="#FF4500"/>
<path d="M75.222 27.3412C75.222 29.2209 73.7316 30.7163 71.8717 30.7163C70.0119 30.7163 68.5215 29.221 68.5215 27.3412C68.5215 25.4614 70.0119 23.9661 71.8717 23.9661C73.7316 23.9661 75.222 25.4615 75.222 27.3412Z" stroke="url(#paint8_linear_66_3228)"/>
<path d="M75.222 27.3412C75.222 29.2209 73.7316 30.7163 71.8717 30.7163C70.0119 30.7163 68.5215 29.221 68.5215 27.3412C68.5215 25.4614 70.0119 23.9661 71.8717 23.9661C73.7316 23.9661 75.222 25.4615 75.222 27.3412Z" stroke="#FF4500"/>
<path d="M136.398 27.3412C136.398 29.2209 134.908 30.7163 133.048 30.7163C131.188 30.7163 129.698 29.2209 129.698 27.3412C129.698 25.4615 131.188 23.9661 133.048 23.9661C134.908 23.9661 136.398 25.4615 136.398 27.3412Z" fill="url(#paint9_linear_66_3228)" fill-opacity="0.12"/>
<path d="M136.398 27.3412C136.398 29.2209 134.908 30.7163 133.048 30.7163C131.188 30.7163 129.698 29.2209 129.698 27.3412C129.698 25.4615 131.188 23.9661 133.048 23.9661C134.908 23.9661 136.398 25.4615 136.398 27.3412Z" fill="url(#paint10_linear_66_3228)"/>
<path d="M136.398 27.3412C136.398 29.2209 134.908 30.7163 133.048 30.7163C131.188 30.7163 129.698 29.2209 129.698 27.3412C129.698 25.4615 131.188 23.9661 133.048 23.9661C134.908 23.9661 136.398 25.4615 136.398 27.3412Z" fill="url(#paint11_linear_66_3228)"/>
<path d="M136.398 27.3412C136.398 29.2209 134.908 30.7163 133.048 30.7163C131.188 30.7163 129.698 29.2209 129.698 27.3412C129.698 25.4615 131.188 23.9661 133.048 23.9661C134.908 23.9661 136.398 25.4615 136.398 27.3412Z" fill="#FF4500"/>
<path d="M136.398 27.3412C136.398 29.2209 134.908 30.7163 133.048 30.7163C131.188 30.7163 129.698 29.2209 129.698 27.3412C129.698 25.4615 131.188 23.9661 133.048 23.9661C134.908 23.9661 136.398 25.4615 136.398 27.3412Z" stroke="url(#paint12_linear_66_3228)"/>
<path d="M136.398 27.3412C136.398 29.2209 134.908 30.7163 133.048 30.7163C131.188 30.7163 129.698 29.2209 129.698 27.3412C129.698 25.4615 131.188 23.9661 133.048 23.9661C134.908 23.9661 136.398 25.4615 136.398 27.3412Z" stroke="#FF4500"/>
<path d="M106.238 3.87513C106.238 5.75488 104.748 7.25027 102.888 7.25027C101.028 7.25027 99.5376 5.75488 99.5376 3.87513C99.5376 1.99538 101.028 0.5 102.888 0.5C104.748 0.5 106.238 1.99539 106.238 3.87513Z" fill="url(#paint13_linear_66_3228)" fill-opacity="0.12"/>
<path d="M106.238 3.87513C106.238 5.75488 104.748 7.25027 102.888 7.25027C101.028 7.25027 99.5376 5.75488 99.5376 3.87513C99.5376 1.99538 101.028 0.5 102.888 0.5C104.748 0.5 106.238 1.99539 106.238 3.87513Z" fill="url(#paint14_linear_66_3228)"/>
<path d="M106.238 3.87513C106.238 5.75488 104.748 7.25027 102.888 7.25027C101.028 7.25027 99.5376 5.75488 99.5376 3.87513C99.5376 1.99538 101.028 0.5 102.888 0.5C104.748 0.5 106.238 1.99539 106.238 3.87513Z" fill="url(#paint15_linear_66_3228)"/>
<path d="M106.238 3.87513C106.238 5.75488 104.748 7.25027 102.888 7.25027C101.028 7.25027 99.5376 5.75488 99.5376 3.87513C99.5376 1.99538 101.028 0.5 102.888 0.5C104.748 0.5 106.238 1.99539 106.238 3.87513Z" fill="#FF4500"/>
<path d="M106.238 3.87513C106.238 5.75488 104.748 7.25027 102.888 7.25027C101.028 7.25027 99.5376 5.75488 99.5376 3.87513C99.5376 1.99538 101.028 0.5 102.888 0.5C104.748 0.5 106.238 1.99539 106.238 3.87513Z" stroke="url(#paint16_linear_66_3228)"/>
<path d="M106.238 3.87513C106.238 5.75488 104.748 7.25027 102.888 7.25027C101.028 7.25027 99.5376 5.75488 99.5376 3.87513C99.5376 1.99538 101.028 0.5 102.888 0.5C104.748 0.5 106.238 1.99539 106.238 3.87513Z" stroke="#FF4500"/>
<path d="M198.93 89.5586L192.941 94.2949C201.283 73.197 189.733 38.1055 189.733 38.1055C189.733 38.1055 154.011 45.4252 139.893 63.0786L140.963 55.5436C140.963 55.5436 121.497 66.7384 105.668 88.6975C111.016 98.6006 121.711 120.129 125.348 142.304C143.743 108.934 161.711 80.0861 173.048 63.5091C176.685 57.9117 181.176 52.9602 184.813 48.6544C184.813 48.6544 180.963 55.3283 174.332 65.0161C158.075 89.9892 140.107 124.65 126.631 151.776C127.701 168.568 124.064 184.715 109.947 195.479C151.658 210.334 185.455 154.575 185.455 154.575L176.684 156.512C198.717 125.296 198.93 89.5586 198.93 89.5586Z" stroke="#FF4500" stroke-miterlimit="10" stroke-linecap="round" stroke-linejoin="round"/>
<path d="M198.93 89.5586L192.941 94.2949C201.283 73.197 189.733 38.1055 189.733 38.1055C189.733 38.1055 154.011 45.4252 139.893 63.0786L140.963 55.5436C140.963 55.5436 121.497 66.7384 105.668 88.6975C111.016 98.6006 121.711 120.129 125.348 142.304C143.743 108.934 161.711 80.0861 173.048 63.5091C176.685 57.9117 181.176 52.9602 184.813 48.6544C184.813 48.6544 180.963 55.3283 174.332 65.0161C158.075 89.9892 140.107 124.65 126.631 151.776C127.701 168.568 124.064 184.715 109.947 195.479C151.658 210.334 185.455 154.575 185.455 154.575L176.684 156.512C198.717 125.296 198.93 89.5586 198.93 89.5586Z" stroke="url(#paint17_linear_66_3228)" stroke-miterlimit="10" stroke-linecap="round" stroke-linejoin="round"/>
<path d="M198.93 89.5586L192.941 94.2949C201.283 73.197 189.733 38.1055 189.733 38.1055C189.733 38.1055 154.011 45.4252 139.893 63.0786L140.963 55.5436C140.963 55.5436 121.497 66.7384 105.668 88.6975C111.016 98.6006 121.711 120.129 125.348 142.304C143.743 108.934 161.711 80.0861 173.048 63.5091C176.685 57.9117 181.176 52.9602 184.813 48.6544C184.813 48.6544 180.963 55.3283 174.332 65.0161C158.075 89.9892 140.107 124.65 126.631 151.776C127.701 168.568 124.064 184.715 109.947 195.479C151.658 210.334 185.455 154.575 185.455 154.575L176.684 156.512C198.717 125.296 198.93 89.5586 198.93 89.5586Z" stroke="url(#paint18_linear_66_3228)" stroke-miterlimit="10" stroke-linecap="round" stroke-linejoin="round"/>
<path d="M198.93 89.5586L192.941 94.2949C201.283 73.197 189.733 38.1055 189.733 38.1055C189.733 38.1055 154.011 45.4252 139.893 63.0786L140.963 55.5436C140.963 55.5436 121.497 66.7384 105.668 88.6975C111.016 98.6006 121.711 120.129 125.348 142.304C143.743 108.934 161.711 80.0861 173.048 63.5091C176.685 57.9117 181.176 52.9602 184.813 48.6544C184.813 48.6544 180.963 55.3283 174.332 65.0161C158.075 89.9892 140.107 124.65 126.631 151.776C127.701 168.568 124.064 184.715 109.947 195.479C151.658 210.334 185.455 154.575 185.455 154.575L176.684 156.512C198.717 125.296 198.93 89.5586 198.93 89.5586Z" stroke="#FF4500" stroke-miterlimit="10" stroke-linecap="round" stroke-linejoin="round"/>
<defs>
<linearGradient id="paint0_linear_66_3228" x1="0" y1="40.2583" x2="155.707" y2="90.2806" gradientUnits="userSpaceOnUse">
<stop stop-color="#FF4500"/>
<stop offset="1" stop-color="#FF4500"/>
</linearGradient>
<linearGradient id="paint1_linear_66_3228" x1="0" y1="40.2583" x2="155.707" y2="90.2806" gradientUnits="userSpaceOnUse">
<stop stop-color="#FF4500"/>
<stop offset="1" stop-color="#FF4500"/>
</linearGradient>
<linearGradient id="paint2_linear_66_3228" x1="0" y1="40.2583" x2="157.966" y2="98.8442" gradientUnits="userSpaceOnUse">
<stop stop-color="#FF4500"/>
<stop offset="1" stop-color="#FF4500"/>
</linearGradient>
<linearGradient id="paint3_linear_66_3228" x1="0" y1="40.2583" x2="155.707" y2="90.2806" gradientUnits="userSpaceOnUse">
<stop stop-color="#FF4500"/>
<stop offset="1" stop-color="#FF4500"/>
</linearGradient>
<linearGradient id="paint4_linear_66_3228" x1="0" y1="40.2583" x2="157.966" y2="98.8442" gradientUnits="userSpaceOnUse">
<stop stop-color="#FF4500"/>
<stop offset="1" stop-color="#FF4500"/>
</linearGradient>
<linearGradient id="paint5_linear_66_3228" x1="68.0215" y1="23.4661" x2="77.3341" y2="27.4016" gradientUnits="userSpaceOnUse">
<stop stop-color="#FF4500"/>
<stop offset="1" stop-color="#FF4500"/>
</linearGradient>
<linearGradient id="paint6_linear_66_3228" x1="68.0215" y1="23.4661" x2="77.3341" y2="27.4016" gradientUnits="userSpaceOnUse">
<stop stop-color="#FF4500"/>
<stop offset="1" stop-color="#FF4500"/>
</linearGradient>
<linearGradient id="paint7_linear_66_3228" x1="68.0215" y1="23.4661" x2="77.2957" y2="27.9907" gradientUnits="userSpaceOnUse">
<stop stop-color="#FF4500"/>
<stop offset="1" stop-color="#FF4500"/>
</linearGradient>
<linearGradient id="paint8_linear_66_3228" x1="68.0215" y1="23.4661" x2="77.3341" y2="27.4016" gradientUnits="userSpaceOnUse">
<stop stop-color="#FF4500"/>
<stop offset="1" stop-color="#FF4500"/>
</linearGradient>
<linearGradient id="paint9_linear_66_3228" x1="129.198" y1="23.4661" x2="138.51" y2="27.4016" gradientUnits="userSpaceOnUse">
<stop stop-color="#FF4500"/>
<stop offset="1" stop-color="#FF4500"/>
</linearGradient>
<linearGradient id="paint10_linear_66_3228" x1="129.198" y1="23.4661" x2="138.51" y2="27.4016" gradientUnits="userSpaceOnUse">
<stop stop-color="#FF4500"/>
<stop offset="1" stop-color="#FF4500"/>
</linearGradient>
<linearGradient id="paint11_linear_66_3228" x1="129.198" y1="23.4661" x2="138.472" y2="27.9907" gradientUnits="userSpaceOnUse">
<stop stop-color="#FF4500"/>
<stop offset="1" stop-color="#FF4500"/>
</linearGradient>
<linearGradient id="paint12_linear_66_3228" x1="129.198" y1="23.4661" x2="138.51" y2="27.4016" gradientUnits="userSpaceOnUse">
<stop stop-color="#FF4500"/>
<stop offset="1" stop-color="#FF4500"/>
</linearGradient>
<linearGradient id="paint13_linear_66_3228" x1="99.0376" y1="0" x2="108.35" y2="3.93554" gradientUnits="userSpaceOnUse">
<stop stop-color="#FF4500"/>
<stop offset="1" stop-color="#FF4500"/>
</linearGradient>
<linearGradient id="paint14_linear_66_3228" x1="99.0376" y1="0" x2="108.35" y2="3.93554" gradientUnits="userSpaceOnUse">
<stop stop-color="#FF4500"/>
<stop offset="1" stop-color="#FF4500"/>
</linearGradient>
<linearGradient id="paint15_linear_66_3228" x1="99.0376" y1="0" x2="108.312" y2="4.52464" gradientUnits="userSpaceOnUse">
<stop stop-color="#FF4500"/>
<stop offset="1" stop-color="#FF4500"/>
</linearGradient>
<linearGradient id="paint16_linear_66_3228" x1="99.0376" y1="0" x2="108.35" y2="3.93554" gradientUnits="userSpaceOnUse">
<stop stop-color="#FF4500"/>
<stop offset="1" stop-color="#FF4500"/>
</linearGradient>
<linearGradient id="paint17_linear_66_3228" x1="105.668" y1="38.1055" x2="230.89" y2="69.1719" gradientUnits="userSpaceOnUse">
<stop stop-color="#FF4500"/>
<stop offset="1" stop-color="#FF4500"/>
</linearGradient>
<linearGradient id="paint18_linear_66_3228" x1="105.668" y1="38.1055" x2="234.182" y2="74.9128" gradientUnits="userSpaceOnUse">
<stop stop-color="#FF4500"/>
<stop offset="1" stop-color="#FF4500"/>
</linearGradient>
</defs>
</svg>
