<svg width="200" height="144" viewBox="0 0 200 144" fill="none" xmlns="http://www.w3.org/2000/svg">
<path d="M176.784 70.0525C174.969 68.9835 172.528 68.6691 171.339 66.9083C169.963 64.7074 170.776 60.8715 168.398 60.054C166.959 59.5509 165.395 60.8086 164.894 62.3178C164.393 63.827 164.644 65.3991 164.831 66.9712C165.207 71.0587 165.52 72.0019 163.329 75.5234C162.328 77.1584 162.766 78.9191 161.327 80.3655C159.637 82.0004 157.072 82.4406 156.383 82.6922C150.939 84.8931 152.879 87.66 143.68 89.1063C147.497 86.3394 151.44 83.4468 154.193 79.548C156.383 76.4667 157.76 72.8194 158.198 69.0464C158.323 68.0402 158.386 66.9712 158.761 66.0908C159.637 64.2043 162.015 62.6322 161.327 60.6828C160.075 59.9911 158.636 61.123 157.635 62.1921C156.383 63.5126 155.194 64.8332 153.943 66.1537C151.878 68.3547 149.687 70.9958 149.813 74.0142C148.811 70.9958 149.687 67.6001 151.377 64.9589C153.067 62.3178 155.57 60.3684 158.198 58.6077C158.886 58.1675 159.575 57.6644 160.075 56.9727C161.264 55.212 159.762 52.3193 157.635 52.3193C153.943 52.3193 152.441 58.8592 148.874 58.2304C146.934 57.916 145.995 55.6521 144.18 54.8347C143.054 54.3316 141.74 54.4574 140.488 54.646C138.486 54.8975 136.421 55.1491 134.418 55.4006C132.291 55.6521 130.038 55.9666 128.223 57.2242C125.157 59.2994 121.402 57.4129 117.71 57.35C116.646 57.35 115.582 57.2871 114.518 57.4758C113.455 57.6015 112.391 57.9788 111.39 58.2933C104.381 60.62 97.372 63.0724 90.4884 65.7135C88.9865 66.2795 87.4221 66.8455 85.9828 67.5372C84.5435 68.2289 83.1042 68.9835 81.6023 69.6752C76.4083 72.0648 70.8388 73.3225 65.3319 74.5802C64.3933 74.7688 63.5172 75.0203 62.5785 75.209C50.2506 78.0388 37.2343 81.1829 28.1605 90.1753C28.974 86.6538 32.2281 84.3271 35.2944 82.3777C40.4884 78.982 45.745 75.5863 51.6273 73.6998C56.0078 72.3163 60.576 71.8133 64.9565 70.4927C74.5935 67.6629 82.7287 61.2488 91.8651 56.9727C99.4997 53.3883 107.885 51.3761 116.271 51.0616C118.211 50.9988 120.15 50.9988 122.028 50.4328C124.719 49.6153 127.034 47.7288 129.725 46.9742C135.169 45.4021 141.114 48.7978 146.496 47.2257C148.874 46.534 150.939 44.9619 153.38 44.5846C154.443 44.396 155.57 44.4588 156.571 44.1444C158.949 43.3269 160.201 40.6229 160.826 38.1705C161.452 35.6551 161.89 32.9511 163.705 31.1275C164.581 30.2471 165.77 29.5554 166.208 28.3606C167.147 26.0339 164.706 23.833 162.641 22.5124C158.573 19.9342 154.443 17.356 150 15.5323C148.123 14.7777 146.183 14.1489 144.18 13.6458C144.368 16.6014 144.368 20.06 142.053 21.9465C139.863 23.7701 136.421 23.1413 134.105 24.7762C131.227 26.7256 130.914 31.1904 128.035 33.2027C126.971 33.9573 125.72 34.2717 124.468 34.5861C120.901 35.4665 117.272 36.284 113.705 37.1643C117.522 35.0892 123.405 34.2717 124.594 30.0585C125.845 25.6566 125.783 20.3115 130.163 19.2425C131.164 18.9909 132.291 18.9281 133.229 18.425C134.731 17.6704 135.482 15.9725 136.108 14.4004C136.546 13.3314 136.984 12.0108 136.17 11.1305C134.856 9.68414 132.416 11.6335 130.664 10.9418C130.038 10.6903 129.537 10.1243 129.037 9.62126C126.346 6.85438 121.903 6.03689 118.461 7.67186C116.896 8.42647 115.582 9.55838 114.018 10.2501C112.453 10.9418 109.95 13.3314 108.699 12.1366C110.075 11.6964 110.889 11.0676 110.764 9.99856C110.639 8.92954 109.137 8.92954 108.261 9.30684C107.385 9.68414 106.634 10.3759 105.695 10.7532C102.566 12.0108 99.4997 8.80377 96.183 8.11205C94.2431 7.73475 92.3032 8.23782 90.3632 8.74089C85.6073 9.99856 80.8513 11.3191 76.0954 12.5768C74.1555 13.0799 72.153 13.6458 70.6511 14.9664C69.0866 16.2869 68.148 18.5507 69.0241 20.4373C70.1505 22.9526 73.5923 23.267 76.2206 22.5753C78.8488 21.9465 81.6649 20.7517 84.2306 21.7578C85.9202 22.4495 87.1092 23.9587 88.5485 24.9649C89.8626 25.8453 91.8651 26.2854 93.0541 25.3422C91.4896 26.9143 89.7374 28.4235 87.5472 28.675C85.4821 28.8637 83.4796 27.7947 81.5397 26.9772C79.5998 26.1597 77.2218 25.7195 75.5322 26.9772C74.0303 28.1091 73.0291 30.6244 71.1517 30.3729C70.4634 30.2471 69.9002 29.8069 69.3995 29.3039C67.397 27.3545 65.7074 25.1535 63.5172 23.3928C61.3269 21.6949 58.5109 20.5001 55.8201 21.2547C51.2518 22.4495 48.4358 27.7318 45.5572 31.6306C40.9264 37.9818 34.7938 41.8177 27.347 44.0815C23.8426 45.1506 20.4634 46.9742 18.8989 50.3699C18.586 51.1245 18.3357 51.942 18.6486 52.6966C18.9615 53.5141 19.9627 54.3945 20.7763 54.646C24.7813 55.7779 27.7224 53.5141 31.4771 51.6905C34.606 50.1184 37.4846 47.7917 40.4258 45.9052C44.7437 43.0754 48.6236 38.5478 51.9402 34.5861C52.2531 36.7241 50.7512 38.6735 49.3745 40.3085C46.0579 44.1444 42.6161 47.8546 39.1742 51.5018C35.6073 54.9604 31.4771 59.1108 26.2206 59.7396C24.7813 59.9282 22.153 59.9911 20.7763 60.4313C17.7099 61.4375 16.1455 64.8332 14.9565 67.8516C12.8288 73.1338 11.9527 78.6676 13.3294 84.1385C14.5184 88.9176 18.148 92.5649 21.6523 95.9606C22.7788 97.0296 23.9052 98.1616 25.2819 98.7904C29.9753 100.866 35.4196 97.9729 40.0503 97.2183C45.6824 96.3379 50.3132 98.7904 55.4446 101.369C56.1955 101.746 56.9465 102.123 57.8226 102.375C59.6999 102.878 61.7024 102.312 63.5798 101.746C65.9577 101.054 68.4609 100.237 69.8376 98.0987C71.7775 95.0802 74.3432 92.6907 76.8463 90.1753C77.2844 89.7351 77.785 89.2949 78.3482 88.9805C80.5385 87.7857 83.1042 89.3578 85.5447 89.1692C90.8639 88.8548 93.1793 81.2458 98.3107 79.7995C99.4997 79.4851 100.751 79.548 101.94 79.2964C105.757 78.5418 109.45 74.9575 112.954 76.5924C108.949 77.0326 106.696 81.6231 103.004 83.321C101.627 83.9498 100.125 84.1385 98.8739 85.0189C97.2468 86.1508 96.4959 88.2888 95.1192 89.6722C93.5547 91.1815 91.3645 91.7474 89.5497 92.9422C87.735 94.137 86.2331 96.5266 87.2343 98.476C90.0503 97.4069 92.8664 96.4008 95.9327 95.0802C98.7487 93.8855 102.691 93.8226 104.568 96.3379C108.574 96.275 110.826 98.1615 114.769 97.4069C115.645 97.2183 116.458 96.841 117.334 96.7152C119.525 96.4637 121.402 98.2244 123.53 98.9162C129.224 100.74 134.794 94.7029 140.739 95.2689C137.923 96.1493 135.983 98.9161 136.296 100.866C140.05 104.639 146.371 104.136 151.752 103.318C153.192 103.129 155.382 103.192 156.571 102.375C158.573 100.928 158.323 97.6585 157.572 95.2689C156.821 92.8793 155.007 90.9928 153.129 89.4836C155.069 90.2382 155.945 90.6155 157.51 91.0557C159.888 91.7474 160.951 94.5143 162.954 95.9606C165.332 97.6585 168.649 97.0925 171.027 95.4576C173.405 93.8226 175.032 91.2443 176.533 88.7919C178.348 85.7735 180.163 82.6922 180.601 79.1707C180.976 75.7121 179.788 71.8133 176.784 70.0525ZM100.125 30.1842C100.438 29.6812 100.876 28.8008 100.876 28.172C100.876 27.2916 100.939 26.2854 101.565 25.5937C102.691 24.3989 104.756 25.1535 106.133 24.3361C107.009 23.833 107.572 22.764 108.573 22.5124C109.137 22.3867 109.825 22.5124 110.201 22.0722C110.388 21.8836 110.451 21.6321 110.576 21.3805C111.202 19.9971 112.704 19.1167 114.143 19.1167C113.079 19.494 112.391 20.6259 111.953 21.6949C111.515 22.8268 111.264 23.9587 110.639 24.9649C109.324 27.0401 106.759 27.8575 105.319 29.8698C105.132 30.1214 105.007 30.31 104.819 30.4987C104.506 30.8131 104.068 31.0017 103.63 31.1904C101.064 32.1336 97.9352 32.1336 96.2456 34.3346C97.2468 32.5109 98.9365 32.0708 100.125 30.1842ZM58.8238 57.8531C59.5748 57.6644 60.3883 57.4758 61.0766 57.2242C61.9527 56.9098 62.7662 56.4068 63.5172 55.9037C66.3958 54.0801 66.7087 51.8791 72.0904 49.8668C70.2756 48.8607 68.5234 49.9297 67.2093 48.5463C66.7087 48.0432 66.6461 47.6659 66.1455 47.1C64.4559 45.2135 61.3895 47.9803 58.8864 49.0494C56.571 49.9926 53.9427 50.6843 51.6273 51.1874C55.8201 47.3515 60.6386 43.3269 66.2706 43.5785C68.5234 43.6414 70.6511 44.4588 72.9039 44.5846C74.2806 44.6475 75.6574 44.5217 76.9715 44.9619C78.2856 45.4021 79.3495 46.4082 80.7262 46.5969C83.1042 46.9113 85.5447 44.5846 87.7349 45.5908C91.6148 42.8868 96.1204 41.2518 100.814 40.8745C95.3069 41.5033 92.9289 49.3009 87.5472 50.3699C86.1079 50.6215 84.606 50.4328 83.3545 51.0616C82.6661 51.3761 82.1029 51.942 81.352 51.942C80.6636 51.942 80.0378 51.4389 79.3495 51.1874C77.0967 50.307 74.969 52.3822 73.2168 54.0801C68.5234 58.6706 62.203 61.4375 55.6949 61.7519C51.8776 61.9405 47.81 61.3746 44.4308 63.1353C48.999 60.8086 53.8176 59.0479 58.8238 57.8531ZM134.982 69.1093C131.79 70.9329 128.286 73.1967 127.284 76.844C131.102 75.3348 134.919 73.8884 138.674 72.3792C138.11 74.643 136.358 76.4038 134.418 77.5986C132.478 78.7934 130.288 79.4851 128.223 80.4283C125.845 81.4345 123.592 82.755 121.59 84.4529C120.526 85.3333 119.525 86.3394 118.273 86.9682C117.022 87.5342 115.395 87.5971 114.393 86.6538C117.084 86.0879 118.586 83.1323 119.712 80.4912C120.964 77.4728 122.216 74.4544 123.467 71.436C123.717 70.8071 123.968 70.1783 124.406 69.6123C125.219 68.4804 126.596 67.7258 127.973 67.4743C129.287 67.2228 130.601 67.3485 131.978 67.2228C135.607 66.9083 138.987 64.7703 142.679 64.8332C140.05 66.1537 137.547 67.6001 134.982 69.1093Z" fill="#D81C24"/>
<path d="M176.784 70.0525C174.969 68.9835 172.528 68.6691 171.339 66.9083C169.963 64.7074 170.776 60.8715 168.398 60.054C166.959 59.5509 165.395 60.8086 164.894 62.3178C164.393 63.827 164.644 65.3991 164.831 66.9712C165.207 71.0587 165.52 72.0019 163.329 75.5234C162.328 77.1584 162.766 78.9191 161.327 80.3655C159.637 82.0004 157.072 82.4406 156.383 82.6922C150.939 84.8931 152.879 87.66 143.68 89.1063C147.497 86.3394 151.44 83.4468 154.193 79.548C156.383 76.4667 157.76 72.8194 158.198 69.0464C158.323 68.0402 158.386 66.9712 158.761 66.0908C159.637 64.2043 162.015 62.6322 161.327 60.6828C160.075 59.9911 158.636 61.123 157.635 62.1921C156.383 63.5126 155.194 64.8332 153.943 66.1537C151.878 68.3547 149.687 70.9958 149.813 74.0142C148.811 70.9958 149.687 67.6001 151.377 64.9589C153.067 62.3178 155.57 60.3684 158.198 58.6077C158.886 58.1675 159.575 57.6644 160.075 56.9727C161.264 55.212 159.762 52.3193 157.635 52.3193C153.943 52.3193 152.441 58.8592 148.874 58.2304C146.934 57.916 145.995 55.6521 144.18 54.8347C143.054 54.3316 141.74 54.4574 140.488 54.646C138.486 54.8975 136.421 55.1491 134.418 55.4006C132.291 55.6521 130.038 55.9666 128.223 57.2242C125.157 59.2994 121.402 57.4129 117.71 57.35C116.646 57.35 115.582 57.2871 114.518 57.4758C113.455 57.6015 112.391 57.9788 111.39 58.2933C104.381 60.62 97.372 63.0724 90.4884 65.7135C88.9865 66.2795 87.4221 66.8455 85.9828 67.5372C84.5435 68.2289 83.1042 68.9835 81.6023 69.6752C76.4083 72.0648 70.8388 73.3225 65.3319 74.5802C64.3933 74.7688 63.5172 75.0203 62.5785 75.209C50.2506 78.0388 37.2343 81.1829 28.1605 90.1753C28.974 86.6538 32.2281 84.3271 35.2944 82.3777C40.4884 78.982 45.745 75.5863 51.6273 73.6998C56.0078 72.3163 60.576 71.8133 64.9565 70.4927C74.5935 67.6629 82.7287 61.2488 91.8651 56.9727C99.4997 53.3883 107.885 51.3761 116.271 51.0616C118.211 50.9988 120.15 50.9988 122.028 50.4328C124.719 49.6153 127.034 47.7288 129.725 46.9742C135.169 45.4021 141.114 48.7978 146.496 47.2257C148.874 46.534 150.939 44.9619 153.38 44.5846C154.443 44.396 155.57 44.4588 156.571 44.1444C158.949 43.3269 160.201 40.6229 160.826 38.1705C161.452 35.6551 161.89 32.9511 163.705 31.1275C164.581 30.2471 165.77 29.5554 166.208 28.3606C167.147 26.0339 164.706 23.833 162.641 22.5124C158.573 19.9342 154.443 17.356 150 15.5323C148.123 14.7777 146.183 14.1489 144.18 13.6458C144.368 16.6014 144.368 20.06 142.053 21.9465C139.863 23.7701 136.421 23.1413 134.105 24.7762C131.227 26.7256 130.914 31.1904 128.035 33.2027C126.971 33.9573 125.72 34.2717 124.468 34.5861C120.901 35.4665 117.272 36.284 113.705 37.1643C117.522 35.0892 123.405 34.2717 124.594 30.0585C125.845 25.6566 125.783 20.3115 130.163 19.2425C131.164 18.9909 132.291 18.9281 133.229 18.425C134.731 17.6704 135.482 15.9725 136.108 14.4004C136.546 13.3314 136.984 12.0108 136.17 11.1305C134.856 9.68414 132.416 11.6335 130.664 10.9418C130.038 10.6903 129.537 10.1243 129.037 9.62126C126.346 6.85438 121.903 6.03689 118.461 7.67186C116.896 8.42647 115.582 9.55838 114.018 10.2501C112.453 10.9418 109.95 13.3314 108.699 12.1366C110.075 11.6964 110.889 11.0676 110.764 9.99856C110.639 8.92954 109.137 8.92954 108.261 9.30684C107.385 9.68414 106.634 10.3759 105.695 10.7532C102.566 12.0108 99.4997 8.80377 96.183 8.11205C94.2431 7.73475 92.3032 8.23782 90.3632 8.74089C85.6073 9.99856 80.8513 11.3191 76.0954 12.5768C74.1555 13.0799 72.153 13.6458 70.6511 14.9664C69.0866 16.2869 68.148 18.5507 69.0241 20.4373C70.1505 22.9526 73.5923 23.267 76.2206 22.5753C78.8488 21.9465 81.6649 20.7517 84.2306 21.7578C85.9202 22.4495 87.1092 23.9587 88.5485 24.9649C89.8626 25.8453 91.8651 26.2854 93.0541 25.3422C91.4896 26.9143 89.7374 28.4235 87.5472 28.675C85.4821 28.8637 83.4796 27.7947 81.5397 26.9772C79.5998 26.1597 77.2218 25.7195 75.5322 26.9772C74.0303 28.1091 73.0291 30.6244 71.1517 30.3729C70.4634 30.2471 69.9002 29.8069 69.3995 29.3039C67.397 27.3545 65.7074 25.1535 63.5172 23.3928C61.3269 21.6949 58.5109 20.5001 55.8201 21.2547C51.2518 22.4495 48.4358 27.7318 45.5572 31.6306C40.9264 37.9818 34.7938 41.8177 27.347 44.0815C23.8426 45.1506 20.4634 46.9742 18.8989 50.3699C18.586 51.1245 18.3357 51.942 18.6486 52.6966C18.9615 53.5141 19.9627 54.3945 20.7763 54.646C24.7813 55.7779 27.7224 53.5141 31.4771 51.6905C34.606 50.1184 37.4846 47.7917 40.4258 45.9052C44.7437 43.0754 48.6236 38.5478 51.9402 34.5861C52.2531 36.7241 50.7512 38.6735 49.3745 40.3085C46.0579 44.1444 42.6161 47.8546 39.1742 51.5018C35.6073 54.9604 31.4771 59.1108 26.2206 59.7396C24.7813 59.9282 22.153 59.9911 20.7763 60.4313C17.7099 61.4375 16.1455 64.8332 14.9565 67.8516C12.8288 73.1338 11.9527 78.6676 13.3294 84.1385C14.5184 88.9176 18.148 92.5649 21.6523 95.9606C22.7788 97.0296 23.9052 98.1616 25.2819 98.7904C29.9753 100.866 35.4196 97.9729 40.0503 97.2183C45.6824 96.3379 50.3132 98.7904 55.4446 101.369C56.1955 101.746 56.9465 102.123 57.8226 102.375C59.6999 102.878 61.7024 102.312 63.5798 101.746C65.9577 101.054 68.4609 100.237 69.8376 98.0987C71.7775 95.0802 74.3432 92.6907 76.8463 90.1753C77.2844 89.7351 77.785 89.2949 78.3482 88.9805C80.5385 87.7857 83.1042 89.3578 85.5447 89.1692C90.8639 88.8548 93.1793 81.2458 98.3107 79.7995C99.4997 79.4851 100.751 79.548 101.94 79.2964C105.757 78.5418 109.45 74.9575 112.954 76.5924C108.949 77.0326 106.696 81.6231 103.004 83.321C101.627 83.9498 100.125 84.1385 98.8739 85.0189C97.2468 86.1508 96.4959 88.2888 95.1192 89.6722C93.5547 91.1815 91.3645 91.7474 89.5497 92.9422C87.735 94.137 86.2331 96.5266 87.2343 98.476C90.0503 97.4069 92.8664 96.4008 95.9327 95.0802C98.7487 93.8855 102.691 93.8226 104.568 96.3379C108.574 96.275 110.826 98.1615 114.769 97.4069C115.645 97.2183 116.458 96.841 117.334 96.7152C119.525 96.4637 121.402 98.2244 123.53 98.9162C129.224 100.74 134.794 94.7029 140.739 95.2689C137.923 96.1493 135.983 98.9161 136.296 100.866C140.05 104.639 146.371 104.136 151.752 103.318C153.192 103.129 155.382 103.192 156.571 102.375C158.573 100.928 158.323 97.6585 157.572 95.2689C156.821 92.8793 155.007 90.9928 153.129 89.4836C155.069 90.2382 155.945 90.6155 157.51 91.0557C159.888 91.7474 160.951 94.5143 162.954 95.9606C165.332 97.6585 168.649 97.0925 171.027 95.4576C173.405 93.8226 175.032 91.2443 176.533 88.7919C178.348 85.7735 180.163 82.6922 180.601 79.1707C180.976 75.7121 179.788 71.8133 176.784 70.0525ZM100.125 30.1842C100.438 29.6812 100.876 28.8008 100.876 28.172C100.876 27.2916 100.939 26.2854 101.565 25.5937C102.691 24.3989 104.756 25.1535 106.133 24.3361C107.009 23.833 107.572 22.764 108.573 22.5124C109.137 22.3867 109.825 22.5124 110.201 22.0722C110.388 21.8836 110.451 21.6321 110.576 21.3805C111.202 19.9971 112.704 19.1167 114.143 19.1167C113.079 19.494 112.391 20.6259 111.953 21.6949C111.515 22.8268 111.264 23.9587 110.639 24.9649C109.324 27.0401 106.759 27.8575 105.319 29.8698C105.132 30.1214 105.007 30.31 104.819 30.4987C104.506 30.8131 104.068 31.0017 103.63 31.1904C101.064 32.1336 97.9352 32.1336 96.2456 34.3346C97.2468 32.5109 98.9365 32.0708 100.125 30.1842ZM58.8238 57.8531C59.5748 57.6644 60.3883 57.4758 61.0766 57.2242C61.9527 56.9098 62.7662 56.4068 63.5172 55.9037C66.3958 54.0801 66.7087 51.8791 72.0904 49.8668C70.2756 48.8607 68.5234 49.9297 67.2093 48.5463C66.7087 48.0432 66.6461 47.6659 66.1455 47.1C64.4559 45.2135 61.3895 47.9803 58.8864 49.0494C56.571 49.9926 53.9427 50.6843 51.6273 51.1874C55.8201 47.3515 60.6386 43.3269 66.2706 43.5785C68.5234 43.6414 70.6511 44.4588 72.9039 44.5846C74.2806 44.6475 75.6574 44.5217 76.9715 44.9619C78.2856 45.4021 79.3495 46.4082 80.7262 46.5969C83.1042 46.9113 85.5447 44.5846 87.7349 45.5908C91.6148 42.8868 96.1204 41.2518 100.814 40.8745C95.3069 41.5033 92.9289 49.3009 87.5472 50.3699C86.1079 50.6215 84.606 50.4328 83.3545 51.0616C82.6661 51.3761 82.1029 51.942 81.352 51.942C80.6636 51.942 80.0378 51.4389 79.3495 51.1874C77.0967 50.307 74.969 52.3822 73.2168 54.0801C68.5234 58.6706 62.203 61.4375 55.6949 61.7519C51.8776 61.9405 47.81 61.3746 44.4308 63.1353C48.999 60.8086 53.8176 59.0479 58.8238 57.8531ZM134.982 69.1093C131.79 70.9329 128.286 73.1967 127.284 76.844C131.102 75.3348 134.919 73.8884 138.674 72.3792C138.11 74.643 136.358 76.4038 134.418 77.5986C132.478 78.7934 130.288 79.4851 128.223 80.4283C125.845 81.4345 123.592 82.755 121.59 84.4529C120.526 85.3333 119.525 86.3394 118.273 86.9682C117.022 87.5342 115.395 87.5971 114.393 86.6538C117.084 86.0879 118.586 83.1323 119.712 80.4912C120.964 77.4728 122.216 74.4544 123.467 71.436C123.717 70.8071 123.968 70.1783 124.406 69.6123C125.219 68.4804 126.596 67.7258 127.973 67.4743C129.287 67.2228 130.601 67.3485 131.978 67.2228C135.607 66.9083 138.987 64.7703 142.679 64.8332C140.05 66.1537 137.547 67.6001 134.982 69.1093Z" fill="url(#paint0_linear_66_3222)"/>
<path d="M176.784 70.0525C174.969 68.9835 172.528 68.6691 171.339 66.9083C169.963 64.7074 170.776 60.8715 168.398 60.054C166.959 59.5509 165.395 60.8086 164.894 62.3178C164.393 63.827 164.644 65.3991 164.831 66.9712C165.207 71.0587 165.52 72.0019 163.329 75.5234C162.328 77.1584 162.766 78.9191 161.327 80.3655C159.637 82.0004 157.072 82.4406 156.383 82.6922C150.939 84.8931 152.879 87.66 143.68 89.1063C147.497 86.3394 151.44 83.4468 154.193 79.548C156.383 76.4667 157.76 72.8194 158.198 69.0464C158.323 68.0402 158.386 66.9712 158.761 66.0908C159.637 64.2043 162.015 62.6322 161.327 60.6828C160.075 59.9911 158.636 61.123 157.635 62.1921C156.383 63.5126 155.194 64.8332 153.943 66.1537C151.878 68.3547 149.687 70.9958 149.813 74.0142C148.811 70.9958 149.687 67.6001 151.377 64.9589C153.067 62.3178 155.57 60.3684 158.198 58.6077C158.886 58.1675 159.575 57.6644 160.075 56.9727C161.264 55.212 159.762 52.3193 157.635 52.3193C153.943 52.3193 152.441 58.8592 148.874 58.2304C146.934 57.916 145.995 55.6521 144.18 54.8347C143.054 54.3316 141.74 54.4574 140.488 54.646C138.486 54.8975 136.421 55.1491 134.418 55.4006C132.291 55.6521 130.038 55.9666 128.223 57.2242C125.157 59.2994 121.402 57.4129 117.71 57.35C116.646 57.35 115.582 57.2871 114.518 57.4758C113.455 57.6015 112.391 57.9788 111.39 58.2933C104.381 60.62 97.372 63.0724 90.4884 65.7135C88.9865 66.2795 87.4221 66.8455 85.9828 67.5372C84.5435 68.2289 83.1042 68.9835 81.6023 69.6752C76.4083 72.0648 70.8388 73.3225 65.3319 74.5802C64.3933 74.7688 63.5172 75.0203 62.5785 75.209C50.2506 78.0388 37.2343 81.1829 28.1605 90.1753C28.974 86.6538 32.2281 84.3271 35.2944 82.3777C40.4884 78.982 45.745 75.5863 51.6273 73.6998C56.0078 72.3163 60.576 71.8133 64.9565 70.4927C74.5935 67.6629 82.7287 61.2488 91.8651 56.9727C99.4997 53.3883 107.885 51.3761 116.271 51.0616C118.211 50.9988 120.15 50.9988 122.028 50.4328C124.719 49.6153 127.034 47.7288 129.725 46.9742C135.169 45.4021 141.114 48.7978 146.496 47.2257C148.874 46.534 150.939 44.9619 153.38 44.5846C154.443 44.396 155.57 44.4588 156.571 44.1444C158.949 43.3269 160.201 40.6229 160.826 38.1705C161.452 35.6551 161.89 32.9511 163.705 31.1275C164.581 30.2471 165.77 29.5554 166.208 28.3606C167.147 26.0339 164.706 23.833 162.641 22.5124C158.573 19.9342 154.443 17.356 150 15.5323C148.123 14.7777 146.183 14.1489 144.18 13.6458C144.368 16.6014 144.368 20.06 142.053 21.9465C139.863 23.7701 136.421 23.1413 134.105 24.7762C131.227 26.7256 130.914 31.1904 128.035 33.2027C126.971 33.9573 125.72 34.2717 124.468 34.5861C120.901 35.4665 117.272 36.284 113.705 37.1643C117.522 35.0892 123.405 34.2717 124.594 30.0585C125.845 25.6566 125.783 20.3115 130.163 19.2425C131.164 18.9909 132.291 18.9281 133.229 18.425C134.731 17.6704 135.482 15.9725 136.108 14.4004C136.546 13.3314 136.984 12.0108 136.17 11.1305C134.856 9.68414 132.416 11.6335 130.664 10.9418C130.038 10.6903 129.537 10.1243 129.037 9.62126C126.346 6.85438 121.903 6.03689 118.461 7.67186C116.896 8.42647 115.582 9.55838 114.018 10.2501C112.453 10.9418 109.95 13.3314 108.699 12.1366C110.075 11.6964 110.889 11.0676 110.764 9.99856C110.639 8.92954 109.137 8.92954 108.261 9.30684C107.385 9.68414 106.634 10.3759 105.695 10.7532C102.566 12.0108 99.4997 8.80377 96.183 8.11205C94.2431 7.73475 92.3032 8.23782 90.3632 8.74089C85.6073 9.99856 80.8513 11.3191 76.0954 12.5768C74.1555 13.0799 72.153 13.6458 70.6511 14.9664C69.0866 16.2869 68.148 18.5507 69.0241 20.4373C70.1505 22.9526 73.5923 23.267 76.2206 22.5753C78.8488 21.9465 81.6649 20.7517 84.2306 21.7578C85.9202 22.4495 87.1092 23.9587 88.5485 24.9649C89.8626 25.8453 91.8651 26.2854 93.0541 25.3422C91.4896 26.9143 89.7374 28.4235 87.5472 28.675C85.4821 28.8637 83.4796 27.7947 81.5397 26.9772C79.5998 26.1597 77.2218 25.7195 75.5322 26.9772C74.0303 28.1091 73.0291 30.6244 71.1517 30.3729C70.4634 30.2471 69.9002 29.8069 69.3995 29.3039C67.397 27.3545 65.7074 25.1535 63.5172 23.3928C61.3269 21.6949 58.5109 20.5001 55.8201 21.2547C51.2518 22.4495 48.4358 27.7318 45.5572 31.6306C40.9264 37.9818 34.7938 41.8177 27.347 44.0815C23.8426 45.1506 20.4634 46.9742 18.8989 50.3699C18.586 51.1245 18.3357 51.942 18.6486 52.6966C18.9615 53.5141 19.9627 54.3945 20.7763 54.646C24.7813 55.7779 27.7224 53.5141 31.4771 51.6905C34.606 50.1184 37.4846 47.7917 40.4258 45.9052C44.7437 43.0754 48.6236 38.5478 51.9402 34.5861C52.2531 36.7241 50.7512 38.6735 49.3745 40.3085C46.0579 44.1444 42.6161 47.8546 39.1742 51.5018C35.6073 54.9604 31.4771 59.1108 26.2206 59.7396C24.7813 59.9282 22.153 59.9911 20.7763 60.4313C17.7099 61.4375 16.1455 64.8332 14.9565 67.8516C12.8288 73.1338 11.9527 78.6676 13.3294 84.1385C14.5184 88.9176 18.148 92.5649 21.6523 95.9606C22.7788 97.0296 23.9052 98.1616 25.2819 98.7904C29.9753 100.866 35.4196 97.9729 40.0503 97.2183C45.6824 96.3379 50.3132 98.7904 55.4446 101.369C56.1955 101.746 56.9465 102.123 57.8226 102.375C59.6999 102.878 61.7024 102.312 63.5798 101.746C65.9577 101.054 68.4609 100.237 69.8376 98.0987C71.7775 95.0802 74.3432 92.6907 76.8463 90.1753C77.2844 89.7351 77.785 89.2949 78.3482 88.9805C80.5385 87.7857 83.1042 89.3578 85.5447 89.1692C90.8639 88.8548 93.1793 81.2458 98.3107 79.7995C99.4997 79.4851 100.751 79.548 101.94 79.2964C105.757 78.5418 109.45 74.9575 112.954 76.5924C108.949 77.0326 106.696 81.6231 103.004 83.321C101.627 83.9498 100.125 84.1385 98.8739 85.0189C97.2468 86.1508 96.4959 88.2888 95.1192 89.6722C93.5547 91.1815 91.3645 91.7474 89.5497 92.9422C87.735 94.137 86.2331 96.5266 87.2343 98.476C90.0503 97.4069 92.8664 96.4008 95.9327 95.0802C98.7487 93.8855 102.691 93.8226 104.568 96.3379C108.574 96.275 110.826 98.1615 114.769 97.4069C115.645 97.2183 116.458 96.841 117.334 96.7152C119.525 96.4637 121.402 98.2244 123.53 98.9162C129.224 100.74 134.794 94.7029 140.739 95.2689C137.923 96.1493 135.983 98.9161 136.296 100.866C140.05 104.639 146.371 104.136 151.752 103.318C153.192 103.129 155.382 103.192 156.571 102.375C158.573 100.928 158.323 97.6585 157.572 95.2689C156.821 92.8793 155.007 90.9928 153.129 89.4836C155.069 90.2382 155.945 90.6155 157.51 91.0557C159.888 91.7474 160.951 94.5143 162.954 95.9606C165.332 97.6585 168.649 97.0925 171.027 95.4576C173.405 93.8226 175.032 91.2443 176.533 88.7919C178.348 85.7735 180.163 82.6922 180.601 79.1707C180.976 75.7121 179.788 71.8133 176.784 70.0525ZM100.125 30.1842C100.438 29.6812 100.876 28.8008 100.876 28.172C100.876 27.2916 100.939 26.2854 101.565 25.5937C102.691 24.3989 104.756 25.1535 106.133 24.3361C107.009 23.833 107.572 22.764 108.573 22.5124C109.137 22.3867 109.825 22.5124 110.201 22.0722C110.388 21.8836 110.451 21.6321 110.576 21.3805C111.202 19.9971 112.704 19.1167 114.143 19.1167C113.079 19.494 112.391 20.6259 111.953 21.6949C111.515 22.8268 111.264 23.9587 110.639 24.9649C109.324 27.0401 106.759 27.8575 105.319 29.8698C105.132 30.1214 105.007 30.31 104.819 30.4987C104.506 30.8131 104.068 31.0017 103.63 31.1904C101.064 32.1336 97.9352 32.1336 96.2456 34.3346C97.2468 32.5109 98.9365 32.0708 100.125 30.1842ZM58.8238 57.8531C59.5748 57.6644 60.3883 57.4758 61.0766 57.2242C61.9527 56.9098 62.7662 56.4068 63.5172 55.9037C66.3958 54.0801 66.7087 51.8791 72.0904 49.8668C70.2756 48.8607 68.5234 49.9297 67.2093 48.5463C66.7087 48.0432 66.6461 47.6659 66.1455 47.1C64.4559 45.2135 61.3895 47.9803 58.8864 49.0494C56.571 49.9926 53.9427 50.6843 51.6273 51.1874C55.8201 47.3515 60.6386 43.3269 66.2706 43.5785C68.5234 43.6414 70.6511 44.4588 72.9039 44.5846C74.2806 44.6475 75.6574 44.5217 76.9715 44.9619C78.2856 45.4021 79.3495 46.4082 80.7262 46.5969C83.1042 46.9113 85.5447 44.5846 87.7349 45.5908C91.6148 42.8868 96.1204 41.2518 100.814 40.8745C95.3069 41.5033 92.9289 49.3009 87.5472 50.3699C86.1079 50.6215 84.606 50.4328 83.3545 51.0616C82.6661 51.3761 82.1029 51.942 81.352 51.942C80.6636 51.942 80.0378 51.4389 79.3495 51.1874C77.0967 50.307 74.969 52.3822 73.2168 54.0801C68.5234 58.6706 62.203 61.4375 55.6949 61.7519C51.8776 61.9405 47.81 61.3746 44.4308 63.1353C48.999 60.8086 53.8176 59.0479 58.8238 57.8531ZM134.982 69.1093C131.79 70.9329 128.286 73.1967 127.284 76.844C131.102 75.3348 134.919 73.8884 138.674 72.3792C138.11 74.643 136.358 76.4038 134.418 77.5986C132.478 78.7934 130.288 79.4851 128.223 80.4283C125.845 81.4345 123.592 82.755 121.59 84.4529C120.526 85.3333 119.525 86.3394 118.273 86.9682C117.022 87.5342 115.395 87.5971 114.393 86.6538C117.084 86.0879 118.586 83.1323 119.712 80.4912C120.964 77.4728 122.216 74.4544 123.467 71.436C123.717 70.8071 123.968 70.1783 124.406 69.6123C125.219 68.4804 126.596 67.7258 127.973 67.4743C129.287 67.2228 130.601 67.3485 131.978 67.2228C135.607 66.9083 138.987 64.7703 142.679 64.8332C140.05 66.1537 137.547 67.6001 134.982 69.1093Z" fill="url(#paint1_linear_66_3222)"/>
<path d="M184.481 119.165C184.981 120.36 184.856 121.617 184.856 122.875C184.856 124.761 185.169 126.585 185.67 128.346C201.565 110.927 202.691 82.5036 196.496 63.324C193.304 53.5771 184.418 48.9237 181.915 44.2703C176.909 35.4665 183.73 28.9895 170.714 16.853C156.133 3.33296 133.605 -0.880254 113.517 0.125885C132.478 1.38356 154.193 6.41426 167.46 20.1858C178.098 31.2533 171.089 34.146 176.408 46.6598C176.408 46.6598 176.471 46.8485 176.533 46.9114C179.85 53.5771 187.172 57.4758 190.301 65.8394C191.928 70.2412 191.677 74.706 191.677 74.2658C191.552 78.7305 190.363 83.887 187.985 88.9177C188.486 91.5588 189.425 94.2 189.425 96.904C189.362 101.18 186.859 105.142 187.485 109.292C186.984 107.406 186.483 105.393 186.671 103.381C186.796 101.62 187.422 100.048 187.672 98.2874C187.86 96.7782 187.735 95.1432 187.172 93.8855C186.921 93.3196 186.483 92.8794 186.045 92.565C181.915 99.5451 175.532 105.896 166.771 109.229C166.709 110.675 166.709 112.122 166.646 113.568C166.521 117.341 166.333 121.366 164.018 124.258C165.019 120.548 165.332 116.649 164.956 112.814C164.831 116.838 162.516 120.485 162.266 124.447C162.14 126.585 162.578 128.723 163.079 130.798C163.267 131.679 163.455 132.559 163.642 133.377C162.078 131.679 161.264 129.478 160.639 127.214C160.075 125.265 159.7 123.126 160.138 121.177C160.388 120.108 160.826 119.165 161.139 118.096C161.765 115.706 161.452 113.191 161.077 110.801C160.326 110.99 159.512 111.116 158.699 111.241C158.699 111.43 158.699 111.556 158.636 111.745C158.573 113.002 158.949 114.26 158.949 115.518C158.949 116.712 158.573 117.781 158.323 118.976C157.823 121.429 157.885 123.944 158.01 126.396C157.009 124.699 157.447 122.498 157.134 120.485C157.009 119.731 156.759 118.976 156.571 118.222C156.195 116.021 156.821 113.694 156.759 111.43C155.632 111.556 154.506 111.619 153.317 111.619C153.317 111.619 149.187 111.87 139.299 110.675C136.859 113.254 136.045 117.027 135.42 120.611C135.044 122.749 134.731 125.013 135.294 127.151C135.482 127.843 135.732 128.534 136.233 129.1C135.232 128.031 134.293 126.899 133.855 125.516C133.417 124.195 133.48 122.749 133.542 121.366C133.667 118.473 133.104 115.329 133.229 112.499C133.292 111.556 133.292 110.487 132.791 109.669C129.162 109.166 125.782 108.726 121.027 107.846C118.586 107.406 116.271 107.028 114.018 106.777C112.328 106.651 112.015 109.041 111.327 110.99C110.701 112.688 110.138 114.386 109.512 116.146C108.448 119.102 107.384 122.372 108.448 125.39C106.821 123.441 106.759 120.674 107.322 118.222C107.823 115.769 108.824 113.379 109.074 110.864C106.946 115.14 105.507 119.857 104.881 124.636C104.318 121.491 104.568 118.222 105.632 115.203C106.008 114.071 106.571 113.002 106.696 111.87C107.009 109.606 107.823 106.148 103.817 106.022C103.817 106.022 103.818 106.022 103.88 106.022C98.8738 105.833 94.5559 106.148 90.6135 106.588C89.7374 108.349 88.9239 110.235 88.611 112.185C88.3607 113.757 88.3607 115.392 88.1104 117.027C87.9226 118.222 87.6097 119.353 87.2969 120.548C86.3582 124.51 86.1704 128.66 85.9827 132.748C85.6072 130.421 84.9189 127.151 85.1692 124.824C85.4195 122.057 86.4833 117.907 86.233 115.14C85.9827 111.807 84.8563 110.801 83.3544 107.846C82.0403 108.097 80.7887 108.412 79.5997 108.663C80.2255 110.927 81.3519 113.002 81.8525 115.329C83.6047 122.561 79.6623 130.295 81.2268 137.59C79.1617 134.697 79.85 130.735 80.1004 127.151C80.601 121.051 79.1617 114.952 76.8463 109.292C75.7199 109.606 75.0315 109.732 73.9051 110.047C73.4671 110.172 72.9664 110.298 72.5284 110.361C73.2793 111.367 73.78 112.499 73.9677 113.757C74.218 115.14 74.0303 116.587 73.9677 118.033C73.8425 120.926 74.7186 122.12 75.0941 122.498C74.218 121.995 73.7174 121.051 73.5296 120.108C73.3419 119.165 73.3419 118.159 73.2168 117.153C72.9664 114.826 72.0278 112.625 70.5885 110.801C57.8851 113.631 45.0565 114.386 34.2305 112.059C33.7925 120.8 37.1717 127.654 37.1717 127.654C32.7286 120.988 32.4783 115.014 32.4783 115.014C31.2893 124.824 35.8575 134.697 35.8575 134.697C28.0353 122.875 30.7261 112.248 26.4082 109.732C15.2067 105.016 7.57219 95.7092 7.32188 79.9882C7.32188 79.9882 7.32188 79.9253 7.32188 79.8624C7.44704 69.2351 9.51212 59.6139 15.7699 48.9865C34.0428 18.2364 73.8425 3.27007 91.7399 0.125885C68.3982 -0.691603 2.19047 25.9082 0.187962 78.3532C-0.375242 93.0051 -1.31392 122.309 19.9001 136.143C19.9627 135.389 20.0878 134.571 20.2756 133.88C20.7762 131.616 20.5885 128.849 20.7136 126.459C20.8388 123.315 20.2756 120.045 19.1492 117.593C20.0878 118.222 20.9014 119.479 21.402 121.051C21.5897 121.806 21.7774 122.561 21.9026 123.378C22.2781 125.705 22.4658 128.094 22.5284 130.484C22.5284 131.804 22.4658 133.125 22.4032 134.446C22.3407 135.452 22.2781 136.521 22.2155 137.527C29.0991 141.363 38.0478 143.689 49.7499 143.689C51.5021 143.689 53.3795 143.627 55.382 143.501C55.1942 140.985 54.4433 138.407 54.631 135.829C54.7562 133.502 55.6949 131.301 56.5709 129.226C55.5697 133.439 55.6949 137.904 56.9464 141.992C57.0716 142.432 57.2593 142.872 57.3219 143.312C58.0728 143.249 58.7612 143.186 59.5121 143.123C59.7624 139.476 58.1354 135.515 59.1992 131.93C59.5747 130.735 60.2005 129.666 60.6385 128.534C61.5772 126.145 61.6398 123.504 61.7024 120.863C62.8913 124.824 63.1417 129.038 62.2656 133.062C62.0153 134.383 61.5772 135.703 61.5772 137.087C61.5146 139.099 62.3281 141.174 63.7674 142.62C76.7211 141.174 92.1154 138.596 106.446 138.596C119.212 138.596 132.416 143.249 145.495 143.564C145.244 142.495 144.931 141.426 144.681 140.357C144.055 137.841 143.367 135.326 143.179 132.748C142.866 128.912 143.43 125.076 144.869 121.554C144.931 124.761 144.994 127.906 145.057 131.113C145.119 133.377 145.182 135.64 145.745 137.841C146.308 139.916 147.435 141.866 148.686 143.627C156.634 143.438 163.455 142.054 169.337 139.665C172.278 136.646 173.029 130.044 172.528 126.711C171.965 123.252 173.029 120.234 173.905 118.347C173.655 123.692 173.467 129.163 175.094 134.32C177.284 129.792 177.91 124.51 176.909 119.542C176.346 116.587 175.157 113.694 175.47 110.738C176.221 113.254 177.097 115.769 177.597 118.347C179.412 127.465 177.347 133.377 179.537 133.88C181.352 132.496 182.979 131.05 184.543 129.478C183.792 126.145 183.73 122.561 184.481 119.165ZM12.5785 122.372C12.641 119.165 11.9527 116.964 11.2017 114.323C10.4508 111.682 10.0127 108.726 11.2643 106.274C11.3895 107.657 11.5146 108.978 11.6398 110.361C11.7024 110.99 11.7649 111.619 11.9527 112.248C12.1404 112.751 12.3281 113.254 12.5159 113.82C13.5797 116.461 13.2668 120.297 12.5785 122.372ZM47.4345 132.622C47.0591 131.427 46.7462 130.232 46.621 128.975C46.4958 127.528 46.7462 126.082 46.9339 124.636C47.1842 122.938 47.4345 121.24 47.81 119.605C48.0603 124.573 48.4358 129.541 48.8112 134.508C48.8738 135.074 48.8738 135.64 48.9364 136.269C48.999 136.961 49.0616 137.653 49.1241 138.344C48.5609 136.458 47.9977 134.508 47.4345 132.622ZM90.1129 136.709C89.049 132.37 89.2368 127.717 90.6135 123.504C90.4258 127.843 90.3006 132.245 90.1129 136.709ZM118.586 132.685C118.21 131.364 118.148 129.918 118.148 128.534C118.148 127.277 118.085 125.956 118.273 124.699C118.336 124.007 118.523 123.378 118.649 122.749C119.087 120.737 119.587 118.725 120.025 116.649C120.338 120.548 120.338 124.51 119.963 128.409C119.9 129.289 119.775 130.169 119.838 131.113C119.963 132.685 120.588 134.194 120.714 135.829C119.712 135.263 118.961 134.005 118.586 132.685ZM122.966 129.038C123.279 127.78 123.53 124.321 123.467 123.001C123.342 119.353 122.528 118.159 122.779 114.134C125.094 118.662 124.218 126.585 122.966 129.038Z" fill="#D81C24"/>
<path d="M184.481 119.165C184.981 120.36 184.856 121.617 184.856 122.875C184.856 124.761 185.169 126.585 185.67 128.346C201.565 110.927 202.691 82.5036 196.496 63.324C193.304 53.5771 184.418 48.9237 181.915 44.2703C176.909 35.4665 183.73 28.9895 170.714 16.853C156.133 3.33296 133.605 -0.880254 113.517 0.125885C132.478 1.38356 154.193 6.41426 167.46 20.1858C178.098 31.2533 171.089 34.146 176.408 46.6598C176.408 46.6598 176.471 46.8485 176.533 46.9114C179.85 53.5771 187.172 57.4758 190.301 65.8394C191.928 70.2412 191.677 74.706 191.677 74.2658C191.552 78.7305 190.363 83.887 187.985 88.9177C188.486 91.5588 189.425 94.2 189.425 96.904C189.362 101.18 186.859 105.142 187.485 109.292C186.984 107.406 186.483 105.393 186.671 103.381C186.796 101.62 187.422 100.048 187.672 98.2874C187.86 96.7782 187.735 95.1432 187.172 93.8855C186.921 93.3196 186.483 92.8794 186.045 92.565C181.915 99.5451 175.532 105.896 166.771 109.229C166.709 110.675 166.709 112.122 166.646 113.568C166.521 117.341 166.333 121.366 164.018 124.258C165.019 120.548 165.332 116.649 164.956 112.814C164.831 116.838 162.516 120.485 162.266 124.447C162.14 126.585 162.578 128.723 163.079 130.798C163.267 131.679 163.455 132.559 163.642 133.377C162.078 131.679 161.264 129.478 160.639 127.214C160.075 125.265 159.7 123.126 160.138 121.177C160.388 120.108 160.826 119.165 161.139 118.096C161.765 115.706 161.452 113.191 161.077 110.801C160.326 110.99 159.512 111.116 158.699 111.241C158.699 111.43 158.699 111.556 158.636 111.745C158.573 113.002 158.949 114.26 158.949 115.518C158.949 116.712 158.573 117.781 158.323 118.976C157.823 121.429 157.885 123.944 158.01 126.396C157.009 124.699 157.447 122.498 157.134 120.485C157.009 119.731 156.759 118.976 156.571 118.222C156.195 116.021 156.821 113.694 156.759 111.43C155.632 111.556 154.506 111.619 153.317 111.619C153.317 111.619 149.187 111.87 139.299 110.675C136.859 113.254 136.045 117.027 135.42 120.611C135.044 122.749 134.731 125.013 135.294 127.151C135.482 127.843 135.732 128.534 136.233 129.1C135.232 128.031 134.293 126.899 133.855 125.516C133.417 124.195 133.48 122.749 133.542 121.366C133.667 118.473 133.104 115.329 133.229 112.499C133.292 111.556 133.292 110.487 132.791 109.669C129.162 109.166 125.782 108.726 121.027 107.846C118.586 107.406 116.271 107.028 114.018 106.777C112.328 106.651 112.015 109.041 111.327 110.99C110.701 112.688 110.138 114.386 109.512 116.146C108.448 119.102 107.384 122.372 108.448 125.39C106.821 123.441 106.759 120.674 107.322 118.222C107.823 115.769 108.824 113.379 109.074 110.864C106.946 115.14 105.507 119.857 104.881 124.636C104.318 121.491 104.568 118.222 105.632 115.203C106.008 114.071 106.571 113.002 106.696 111.87C107.009 109.606 107.823 106.148 103.817 106.022C103.817 106.022 103.818 106.022 103.88 106.022C98.8738 105.833 94.5559 106.148 90.6135 106.588C89.7374 108.349 88.9239 110.235 88.611 112.185C88.3607 113.757 88.3607 115.392 88.1104 117.027C87.9226 118.222 87.6097 119.353 87.2969 120.548C86.3582 124.51 86.1704 128.66 85.9827 132.748C85.6072 130.421 84.9189 127.151 85.1692 124.824C85.4195 122.057 86.4833 117.907 86.233 115.14C85.9827 111.807 84.8563 110.801 83.3544 107.846C82.0403 108.097 80.7887 108.412 79.5997 108.663C80.2255 110.927 81.3519 113.002 81.8525 115.329C83.6047 122.561 79.6623 130.295 81.2268 137.59C79.1617 134.697 79.85 130.735 80.1004 127.151C80.601 121.051 79.1617 114.952 76.8463 109.292C75.7199 109.606 75.0315 109.732 73.9051 110.047C73.4671 110.172 72.9664 110.298 72.5284 110.361C73.2793 111.367 73.78 112.499 73.9677 113.757C74.218 115.14 74.0303 116.587 73.9677 118.033C73.8425 120.926 74.7186 122.12 75.0941 122.498C74.218 121.995 73.7174 121.051 73.5296 120.108C73.3419 119.165 73.3419 118.159 73.2168 117.153C72.9664 114.826 72.0278 112.625 70.5885 110.801C57.8851 113.631 45.0565 114.386 34.2305 112.059C33.7925 120.8 37.1717 127.654 37.1717 127.654C32.7286 120.988 32.4783 115.014 32.4783 115.014C31.2893 124.824 35.8575 134.697 35.8575 134.697C28.0353 122.875 30.7261 112.248 26.4082 109.732C15.2067 105.016 7.57219 95.7092 7.32188 79.9882C7.32188 79.9882 7.32188 79.9253 7.32188 79.8624C7.44704 69.2351 9.51212 59.6139 15.7699 48.9865C34.0428 18.2364 73.8425 3.27007 91.7399 0.125885C68.3982 -0.691603 2.19047 25.9082 0.187962 78.3532C-0.375242 93.0051 -1.31392 122.309 19.9001 136.143C19.9627 135.389 20.0878 134.571 20.2756 133.88C20.7762 131.616 20.5885 128.849 20.7136 126.459C20.8388 123.315 20.2756 120.045 19.1492 117.593C20.0878 118.222 20.9014 119.479 21.402 121.051C21.5897 121.806 21.7774 122.561 21.9026 123.378C22.2781 125.705 22.4658 128.094 22.5284 130.484C22.5284 131.804 22.4658 133.125 22.4032 134.446C22.3407 135.452 22.2781 136.521 22.2155 137.527C29.0991 141.363 38.0478 143.689 49.7499 143.689C51.5021 143.689 53.3795 143.627 55.382 143.501C55.1942 140.985 54.4433 138.407 54.631 135.829C54.7562 133.502 55.6949 131.301 56.5709 129.226C55.5697 133.439 55.6949 137.904 56.9464 141.992C57.0716 142.432 57.2593 142.872 57.3219 143.312C58.0728 143.249 58.7612 143.186 59.5121 143.123C59.7624 139.476 58.1354 135.515 59.1992 131.93C59.5747 130.735 60.2005 129.666 60.6385 128.534C61.5772 126.145 61.6398 123.504 61.7024 120.863C62.8913 124.824 63.1417 129.038 62.2656 133.062C62.0153 134.383 61.5772 135.703 61.5772 137.087C61.5146 139.099 62.3281 141.174 63.7674 142.62C76.7211 141.174 92.1154 138.596 106.446 138.596C119.212 138.596 132.416 143.249 145.495 143.564C145.244 142.495 144.931 141.426 144.681 140.357C144.055 137.841 143.367 135.326 143.179 132.748C142.866 128.912 143.43 125.076 144.869 121.554C144.931 124.761 144.994 127.906 145.057 131.113C145.119 133.377 145.182 135.64 145.745 137.841C146.308 139.916 147.435 141.866 148.686 143.627C156.634 143.438 163.455 142.054 169.337 139.665C172.278 136.646 173.029 130.044 172.528 126.711C171.965 123.252 173.029 120.234 173.905 118.347C173.655 123.692 173.467 129.163 175.094 134.32C177.284 129.792 177.91 124.51 176.909 119.542C176.346 116.587 175.157 113.694 175.47 110.738C176.221 113.254 177.097 115.769 177.597 118.347C179.412 127.465 177.347 133.377 179.537 133.88C181.352 132.496 182.979 131.05 184.543 129.478C183.792 126.145 183.73 122.561 184.481 119.165ZM12.5785 122.372C12.641 119.165 11.9527 116.964 11.2017 114.323C10.4508 111.682 10.0127 108.726 11.2643 106.274C11.3895 107.657 11.5146 108.978 11.6398 110.361C11.7024 110.99 11.7649 111.619 11.9527 112.248C12.1404 112.751 12.3281 113.254 12.5159 113.82C13.5797 116.461 13.2668 120.297 12.5785 122.372ZM47.4345 132.622C47.0591 131.427 46.7462 130.232 46.621 128.975C46.4958 127.528 46.7462 126.082 46.9339 124.636C47.1842 122.938 47.4345 121.24 47.81 119.605C48.0603 124.573 48.4358 129.541 48.8112 134.508C48.8738 135.074 48.8738 135.64 48.9364 136.269C48.999 136.961 49.0616 137.653 49.1241 138.344C48.5609 136.458 47.9977 134.508 47.4345 132.622ZM90.1129 136.709C89.049 132.37 89.2368 127.717 90.6135 123.504C90.4258 127.843 90.3006 132.245 90.1129 136.709ZM118.586 132.685C118.21 131.364 118.148 129.918 118.148 128.534C118.148 127.277 118.085 125.956 118.273 124.699C118.336 124.007 118.523 123.378 118.649 122.749C119.087 120.737 119.587 118.725 120.025 116.649C120.338 120.548 120.338 124.51 119.963 128.409C119.9 129.289 119.775 130.169 119.838 131.113C119.963 132.685 120.588 134.194 120.714 135.829C119.712 135.263 118.961 134.005 118.586 132.685ZM122.966 129.038C123.279 127.78 123.53 124.321 123.467 123.001C123.342 119.353 122.528 118.159 122.779 114.134C125.094 118.662 124.218 126.585 122.966 129.038Z" fill="url(#paint2_linear_66_3222)"/>
<path d="M184.481 119.165C184.981 120.36 184.856 121.617 184.856 122.875C184.856 124.761 185.169 126.585 185.67 128.346C201.565 110.927 202.691 82.5036 196.496 63.324C193.304 53.5771 184.418 48.9237 181.915 44.2703C176.909 35.4665 183.73 28.9895 170.714 16.853C156.133 3.33296 133.605 -0.880254 113.517 0.125885C132.478 1.38356 154.193 6.41426 167.46 20.1858C178.098 31.2533 171.089 34.146 176.408 46.6598C176.408 46.6598 176.471 46.8485 176.533 46.9114C179.85 53.5771 187.172 57.4758 190.301 65.8394C191.928 70.2412 191.677 74.706 191.677 74.2658C191.552 78.7305 190.363 83.887 187.985 88.9177C188.486 91.5588 189.425 94.2 189.425 96.904C189.362 101.18 186.859 105.142 187.485 109.292C186.984 107.406 186.483 105.393 186.671 103.381C186.796 101.62 187.422 100.048 187.672 98.2874C187.86 96.7782 187.735 95.1432 187.172 93.8855C186.921 93.3196 186.483 92.8794 186.045 92.565C181.915 99.5451 175.532 105.896 166.771 109.229C166.709 110.675 166.709 112.122 166.646 113.568C166.521 117.341 166.333 121.366 164.018 124.258C165.019 120.548 165.332 116.649 164.956 112.814C164.831 116.838 162.516 120.485 162.266 124.447C162.14 126.585 162.578 128.723 163.079 130.798C163.267 131.679 163.455 132.559 163.642 133.377C162.078 131.679 161.264 129.478 160.639 127.214C160.075 125.265 159.7 123.126 160.138 121.177C160.388 120.108 160.826 119.165 161.139 118.096C161.765 115.706 161.452 113.191 161.077 110.801C160.326 110.99 159.512 111.116 158.699 111.241C158.699 111.43 158.699 111.556 158.636 111.745C158.573 113.002 158.949 114.26 158.949 115.518C158.949 116.712 158.573 117.781 158.323 118.976C157.823 121.429 157.885 123.944 158.01 126.396C157.009 124.699 157.447 122.498 157.134 120.485C157.009 119.731 156.759 118.976 156.571 118.222C156.195 116.021 156.821 113.694 156.759 111.43C155.632 111.556 154.506 111.619 153.317 111.619C153.317 111.619 149.187 111.87 139.299 110.675C136.859 113.254 136.045 117.027 135.42 120.611C135.044 122.749 134.731 125.013 135.294 127.151C135.482 127.843 135.732 128.534 136.233 129.1C135.232 128.031 134.293 126.899 133.855 125.516C133.417 124.195 133.48 122.749 133.542 121.366C133.667 118.473 133.104 115.329 133.229 112.499C133.292 111.556 133.292 110.487 132.791 109.669C129.162 109.166 125.782 108.726 121.027 107.846C118.586 107.406 116.271 107.028 114.018 106.777C112.328 106.651 112.015 109.041 111.327 110.99C110.701 112.688 110.138 114.386 109.512 116.146C108.448 119.102 107.384 122.372 108.448 125.39C106.821 123.441 106.759 120.674 107.322 118.222C107.823 115.769 108.824 113.379 109.074 110.864C106.946 115.14 105.507 119.857 104.881 124.636C104.318 121.491 104.568 118.222 105.632 115.203C106.008 114.071 106.571 113.002 106.696 111.87C107.009 109.606 107.823 106.148 103.817 106.022C103.817 106.022 103.818 106.022 103.88 106.022C98.8738 105.833 94.5559 106.148 90.6135 106.588C89.7374 108.349 88.9239 110.235 88.611 112.185C88.3607 113.757 88.3607 115.392 88.1104 117.027C87.9226 118.222 87.6097 119.353 87.2969 120.548C86.3582 124.51 86.1704 128.66 85.9827 132.748C85.6072 130.421 84.9189 127.151 85.1692 124.824C85.4195 122.057 86.4833 117.907 86.233 115.14C85.9827 111.807 84.8563 110.801 83.3544 107.846C82.0403 108.097 80.7887 108.412 79.5997 108.663C80.2255 110.927 81.3519 113.002 81.8525 115.329C83.6047 122.561 79.6623 130.295 81.2268 137.59C79.1617 134.697 79.85 130.735 80.1004 127.151C80.601 121.051 79.1617 114.952 76.8463 109.292C75.7199 109.606 75.0315 109.732 73.9051 110.047C73.4671 110.172 72.9664 110.298 72.5284 110.361C73.2793 111.367 73.78 112.499 73.9677 113.757C74.218 115.14 74.0303 116.587 73.9677 118.033C73.8425 120.926 74.7186 122.12 75.0941 122.498C74.218 121.995 73.7174 121.051 73.5296 120.108C73.3419 119.165 73.3419 118.159 73.2168 117.153C72.9664 114.826 72.0278 112.625 70.5885 110.801C57.8851 113.631 45.0565 114.386 34.2305 112.059C33.7925 120.8 37.1717 127.654 37.1717 127.654C32.7286 120.988 32.4783 115.014 32.4783 115.014C31.2893 124.824 35.8575 134.697 35.8575 134.697C28.0353 122.875 30.7261 112.248 26.4082 109.732C15.2067 105.016 7.57219 95.7092 7.32188 79.9882C7.32188 79.9882 7.32188 79.9253 7.32188 79.8624C7.44704 69.2351 9.51212 59.6139 15.7699 48.9865C34.0428 18.2364 73.8425 3.27007 91.7399 0.125885C68.3982 -0.691603 2.19047 25.9082 0.187962 78.3532C-0.375242 93.0051 -1.31392 122.309 19.9001 136.143C19.9627 135.389 20.0878 134.571 20.2756 133.88C20.7762 131.616 20.5885 128.849 20.7136 126.459C20.8388 123.315 20.2756 120.045 19.1492 117.593C20.0878 118.222 20.9014 119.479 21.402 121.051C21.5897 121.806 21.7774 122.561 21.9026 123.378C22.2781 125.705 22.4658 128.094 22.5284 130.484C22.5284 131.804 22.4658 133.125 22.4032 134.446C22.3407 135.452 22.2781 136.521 22.2155 137.527C29.0991 141.363 38.0478 143.689 49.7499 143.689C51.5021 143.689 53.3795 143.627 55.382 143.501C55.1942 140.985 54.4433 138.407 54.631 135.829C54.7562 133.502 55.6949 131.301 56.5709 129.226C55.5697 133.439 55.6949 137.904 56.9464 141.992C57.0716 142.432 57.2593 142.872 57.3219 143.312C58.0728 143.249 58.7612 143.186 59.5121 143.123C59.7624 139.476 58.1354 135.515 59.1992 131.93C59.5747 130.735 60.2005 129.666 60.6385 128.534C61.5772 126.145 61.6398 123.504 61.7024 120.863C62.8913 124.824 63.1417 129.038 62.2656 133.062C62.0153 134.383 61.5772 135.703 61.5772 137.087C61.5146 139.099 62.3281 141.174 63.7674 142.62C76.7211 141.174 92.1154 138.596 106.446 138.596C119.212 138.596 132.416 143.249 145.495 143.564C145.244 142.495 144.931 141.426 144.681 140.357C144.055 137.841 143.367 135.326 143.179 132.748C142.866 128.912 143.43 125.076 144.869 121.554C144.931 124.761 144.994 127.906 145.057 131.113C145.119 133.377 145.182 135.64 145.745 137.841C146.308 139.916 147.435 141.866 148.686 143.627C156.634 143.438 163.455 142.054 169.337 139.665C172.278 136.646 173.029 130.044 172.528 126.711C171.965 123.252 173.029 120.234 173.905 118.347C173.655 123.692 173.467 129.163 175.094 134.32C177.284 129.792 177.91 124.51 176.909 119.542C176.346 116.587 175.157 113.694 175.47 110.738C176.221 113.254 177.097 115.769 177.597 118.347C179.412 127.465 177.347 133.377 179.537 133.88C181.352 132.496 182.979 131.05 184.543 129.478C183.792 126.145 183.73 122.561 184.481 119.165ZM12.5785 122.372C12.641 119.165 11.9527 116.964 11.2017 114.323C10.4508 111.682 10.0127 108.726 11.2643 106.274C11.3895 107.657 11.5146 108.978 11.6398 110.361C11.7024 110.99 11.7649 111.619 11.9527 112.248C12.1404 112.751 12.3281 113.254 12.5159 113.82C13.5797 116.461 13.2668 120.297 12.5785 122.372ZM47.4345 132.622C47.0591 131.427 46.7462 130.232 46.621 128.975C46.4958 127.528 46.7462 126.082 46.9339 124.636C47.1842 122.938 47.4345 121.24 47.81 119.605C48.0603 124.573 48.4358 129.541 48.8112 134.508C48.8738 135.074 48.8738 135.64 48.9364 136.269C48.999 136.961 49.0616 137.653 49.1241 138.344C48.5609 136.458 47.9977 134.508 47.4345 132.622ZM90.1129 136.709C89.049 132.37 89.2368 127.717 90.6135 123.504C90.4258 127.843 90.3006 132.245 90.1129 136.709ZM118.586 132.685C118.21 131.364 118.148 129.918 118.148 128.534C118.148 127.277 118.085 125.956 118.273 124.699C118.336 124.007 118.523 123.378 118.649 122.749C119.087 120.737 119.587 118.725 120.025 116.649C120.338 120.548 120.338 124.51 119.963 128.409C119.9 129.289 119.775 130.169 119.838 131.113C119.963 132.685 120.588 134.194 120.714 135.829C119.712 135.263 118.961 134.005 118.586 132.685ZM122.966 129.038C123.279 127.78 123.53 124.321 123.467 123.001C123.342 119.353 122.528 118.159 122.779 114.134C125.094 118.662 124.218 126.585 122.966 129.038Z" fill="url(#paint3_linear_66_3222)"/>
<defs>
<linearGradient id="paint0_linear_66_3222" x1="12.6665" y1="6.83472" x2="167.959" y2="121.16" gradientUnits="userSpaceOnUse">
<stop stop-color="#FF4500"/>
<stop offset="1" stop-color="#FF4500"/>
</linearGradient>
<linearGradient id="paint1_linear_66_3222" x1="12.6665" y1="6.83472" x2="158.106" y2="130.443" gradientUnits="userSpaceOnUse">
<stop stop-color="#FFA500"/>
<stop offset="1" stop-color="#FF4500"/>
</linearGradient>
<linearGradient id="paint2_linear_66_3222" x1="-0.0214844" y1="-0.0161133" x2="211.083" y2="124.956" gradientUnits="userSpaceOnUse">
<stop stop-color="#FC5997"/>
<stop offset="1" stop-color="#FF4500"/>
</linearGradient>
<linearGradient id="paint3_linear_66_3222" x1="-0.0214844" y1="-0.0161133" x2="203.259" y2="138.91" gradientUnits="userSpaceOnUse">
<stop stop-color="#FFA500"/>
<stop offset="1" stop-color="#FF4500"/>
</linearGradient>
</defs>
</svg>
