<svg width="89" height="200" fill="none" xmlns="http://www.w3.org/2000/svg">
    <mask id="a" fill="#fff">
        <path d="M87.456 100.959c-.24-.482-.481-1.204-.481-1.686.963-.963.481-3.853.481-4.816 0-1.926.241-3.612.482-5.538.482-4.094.24-7.946 0-11.799 0-1.204-.24-4.575-1.204-6.02-.24-1.926-.963-3.13-1.685-5.057-.241-.963-.241-3.612-.723-5.297.24-1.926-.481-3.853-.963-5.538-.482-1.445-1.204-4.335-2.167-5.539v-1.204c-.241-2.408-1.204-5.779-3.13-7.464-.964-.963-2.409-1.204-3.612-1.927-1.445-.722-2.408-1.204-3.853-1.685-.241-.723-1.204-1.204-1.927-1.686-.722-.481-1.685-.722-2.648-1.204-.723-.481-1.686-.963-2.408-1.445-.723-.481-1.686-1.204-2.408-1.685-.482-.482-1.204-.963-1.686-1.445-.481-1.685-.481-3.612-.481-5.538.24-.482.481-.723.481-1.204 0-.482.241-.963.482-1.686 0-.481 0-.963.24-1.444.482-.241.723-.482.964-.964.481-.963.963-2.408 1.204-3.37 0-.482.24-1.445 0-1.927-.241-.482-.723-.24-.963 0 .24-1.686.24-3.371.24-5.057-.24-3.612-1.444-7.705-5.779-8.187-1.926-.24-4.093-.722-6.02-.481-1.685.24-2.89 1.204-3.852 2.648-.723.241-1.204.482-1.686 1.204-.481.723-.481 1.686-.722 2.408-.241.963-.482 1.927-.482 2.649-.24 1.686 0 3.612 0 5.298-.24-.241-.722-.241-.963.24-.482 1.204 0 2.408.482 3.612.24.963.963 2.167 1.926 2.408 0 .723.482 2.408.482 2.89.24 1.204.24 2.408 0 3.37v.723c-.482.241-1.204.963-1.445 1.204-1.204.963-2.167 1.927-3.612 2.408-.963.482-2.89.723-3.612 1.686-.963-.241-1.926-.482-3.13-.482-2.408 0-4.816.722-7.224 1.686-1.204.481-2.408 1.204-3.371 1.926-.723.482-1.686 1.445-2.168 2.167h-1.204c-1.203 0-2.407.482-3.611 1.204-.482.241-1.686.963-2.168 1.686v-2.649c0-2.89.241-5.297 1.204-7.946.723-2.167 2.168-4.094 3.612-6.02.963 0 1.686-.24 2.408-.963.723-.241 1.686-.723 2.167-1.686.482-.722.723-1.685 1.204-2.408.482-.963.241-1.926 0-2.89-.24-1.203-.481-1.685-1.685-1.203 0-.482-.24-.723-.482-1.204-.481-1.204-1.204-.963-2.408-.723-.722.241-2.648 0-3.13.964-.722 0-1.445 0-1.686.481-.481 0-1.204.24-.963.723-.722.24-.963.722-1.204 1.203-.481.723-.481 1.445-.481 2.168 0 .722-.241 1.444-.482 2.408-.24.722-.24 1.444-.482 2.167-.24.24-.24.963-.24 1.445-.241.481-.482 1.204-.482 1.685-.24.722-.481 1.445-.963 2.167l-2.89 4.334c-1.926 2.89-3.852 6.502-4.575 9.873-.24.963-.963 3.13-.963 4.816-.963 1.445-1.685 4.575 0 5.538.963.482 1.926.723 2.89.964.963.481 2.167.722 3.37.722.723 0 1.686-.241 2.409-.722 2.408 0 5.056-.482 7.464-.723 2.89-.481 5.539-1.204 7.947-2.649.722-.481 1.685-.963 2.407-1.444 1.927 1.926 2.65 5.056 3.612 7.464 1.204 2.89 1.686 6.02 2.89 8.91.24.722.722 1.685 1.204 2.648-.24.723-.24 1.686-.482 2.168-.24.963-.481 1.685-.722 2.648-.482 1.686-.482 3.853-.722 5.78 0 .722 0 1.685-.241 2.407-.241 0-.723-.24-.963.241-.241.24-.482.723-.482 1.204-.24.722-.482 1.686-.963 2.408-.482.963-1.927 2.89-.963 3.853-1.204 2.408-1.686 5.056-2.168 7.705-.481 3.371-1.203 6.502-1.685 9.873-.482 6.742.24 13.484 1.204 19.986.24 2.167.963 4.334 1.204 6.742-1.204 1.926-.723 5.538-.723 7.705 0 1.204-.481 2.649-.722 4.094-.963.963-1.685 4.816-1.685 5.779-.482 2.649-.723 5.057-.723 7.705 0 2.649 0 5.298.241 7.947.24 2.408.963 4.816 1.204 7.464.24 1.445 0 3.131 0 4.575 0 .964-.24 2.168-.482 3.131-1.444.963-2.167 3.13-2.408 5.056-.963 1.445-1.685 2.89-2.89 4.335-1.203 1.444-3.611 2.648-4.093 4.816-1.444 5.779 7.465 3.612 9.632 3.13 2.167-.241 3.13-1.445 3.612-3.371.482 0 .723-.241 1.204-.241 2.649-.722 2.89-2.408 2.167-4.816-.481-1.445-.481-4.093-1.204-5.538 0-2.408 0-4.575.241-6.983.482-2.649 1.445-5.057 2.408-7.706.963-2.648 1.445-5.297 2.167-7.705.963-4.575.24-9.15 0-13.725-.24-3.372 1.445-6.743 2.89-9.632 1.204-2.649 1.685-5.538 2.167-8.428.24-1.445.722-2.89.963-4.334.24-1.445.24-3.131.482-4.575.722-2.89 2.89-5.057 4.093-7.947.482-1.444.963-2.889 1.204-4.334.24-.482.24-1.204.482-1.685.24.722.481 1.444.481 2.167.241 1.444.482 2.648.963 4.093.964 2.89 2.168 5.538 2.65 8.187.24 1.445.48 2.89.962 4.334.482 1.204.964 2.408 1.445 3.853.723 2.649.963 5.538 1.927 8.428.481 1.445 1.444 2.89 1.926 4.334.24.482.481 1.445.963 2.408-.722 5.298 0 11.077 1.204 16.134 1.204 5.297 4.334 10.354 4.816 15.651.24 1.445.24 3.131.481 4.816v1.926c-.722.964-.722 2.408-.722 3.612 0 1.445-.24 2.408-.481 3.853-.723 2.89 2.167 3.371 4.334 3.612-.241 3.612 4.575 3.853 7.465 3.371 1.685-.241 4.093 0 5.297-1.445 1.445-1.685-.24-3.612-1.686-4.575l-3.611-2.889c-.482-1.445-1.445-2.649-1.927-4.094-.24-.722-1.204-4.575-2.408-4.093-.481-2.408-.24-4.816-.24-7.224 0-5.538.481-9.15 0-15.411-.241-2.649 0-5.779-.723-8.669-.24-1.444-.963-4.816-2.167-7.223.24-1.927-.241-4.094-.482-6.02-.24-2.167 0-4.094 0-6.261.963-2.167.723-3.853.963-6.261.482-6.02-.722-11.317-1.204-17.096-.24-2.649-.481-5.298-.963-8.187-.481-2.408-1.204-5.057-1.445-7.706 1.204-.722.241-3.37-.24-4.334-.723-1.204-.723-3.612-2.167-4.093 0-.723.24-1.686.24-2.408.241-2.168.723-4.094.723-6.261v-3.371c0-.482-.241-1.204-.241-1.926.481-.482.963-.964 1.204-1.686.963-1.686 1.445-3.371 2.167-5.057.482-.963.963-1.926 1.445-3.13.24 1.685 1.204 3.853 1.685 5.297.964 1.927 1.927 3.853 3.612 5.298l1.445 1.445c0 .722.482 1.204.482 1.926v2.649c.24 1.926.24 3.853.722 5.779.482 1.685 1.204 3.371 1.445 5.297.24 1.927.722 3.853.963 5.539.24.963.482 2.167.482 3.13v2.167c-.964 2.167-3.371 3.853-3.853 6.261-.24 1.445-.482 2.649-.963 4.093-.482 1.686.963 2.167 2.167.963.722-.722.963-2.407 1.445-3.371h1.204c0 1.445-.964 2.89-1.204 4.335-.964.24-2.167.963-2.408 1.685-.482.963.963.963 1.926.723.722.722 2.649.24 3.853-.482 1.926.482 2.89-2.89 3.612-4.093 2.89-2.408 2.167-5.298 1.444-7.224z"/>
    </mask>
    <path d="M87.456 100.959c-.24-.482-.481-1.204-.481-1.686.963-.963.481-3.853.481-4.816 0-1.926.241-3.612.482-5.538.482-4.094.24-7.946 0-11.799 0-1.204-.24-4.575-1.204-6.02-.24-1.926-.963-3.13-1.685-5.057-.241-.963-.241-3.612-.723-5.297.24-1.926-.481-3.853-.963-5.538-.482-1.445-1.204-4.335-2.167-5.539v-1.204c-.241-2.408-1.204-5.779-3.13-7.464-.964-.963-2.409-1.204-3.612-1.927-1.445-.722-2.408-1.204-3.853-1.685-.241-.723-1.204-1.204-1.927-1.686-.722-.481-1.685-.722-2.648-1.204-.723-.481-1.686-.963-2.408-1.445-.723-.481-1.686-1.204-2.408-1.685-.482-.482-1.204-.963-1.686-1.445-.481-1.685-.481-3.612-.481-5.538.24-.482.481-.723.481-1.204 0-.482.241-.963.482-1.686 0-.481 0-.963.24-1.444.482-.241.723-.482.964-.964.481-.963.963-2.408 1.204-3.37 0-.482.24-1.445 0-1.927-.241-.482-.723-.24-.963 0 .24-1.686.24-3.371.24-5.057-.24-3.612-1.444-7.705-5.779-8.187-1.926-.24-4.093-.722-6.02-.481-1.685.24-2.89 1.204-3.852 2.648-.723.241-1.204.482-1.686 1.204-.481.723-.481 1.686-.722 2.408-.241.963-.482 1.927-.482 2.649-.24 1.686 0 3.612 0 5.298-.24-.241-.722-.241-.963.24-.482 1.204 0 2.408.482 3.612.24.963.963 2.167 1.926 2.408 0 .723.482 2.408.482 2.89.24 1.204.24 2.408 0 3.37v.723c-.482.241-1.204.963-1.445 1.204-1.204.963-2.167 1.927-3.612 2.408-.963.482-2.89.723-3.612 1.686-.963-.241-1.926-.482-3.13-.482-2.408 0-4.816.722-7.224 1.686-1.204.481-2.408 1.204-3.371 1.926-.723.482-1.686 1.445-2.168 2.167h-1.204c-1.203 0-2.407.482-3.611 1.204-.482.241-1.686.963-2.168 1.686v-2.649c0-2.89.241-5.297 1.204-7.946.723-2.167 2.168-4.094 3.612-6.02.963 0 1.686-.24 2.408-.963.723-.241 1.686-.723 2.167-1.686.482-.722.723-1.685 1.204-2.408.482-.963.241-1.926 0-2.89-.24-1.203-.481-1.685-1.685-1.203 0-.482-.24-.723-.482-1.204-.481-1.204-1.204-.963-2.408-.723-.722.241-2.648 0-3.13.964-.722 0-1.445 0-1.686.481-.481 0-1.204.24-.963.723-.722.24-.963.722-1.204 1.203-.481.723-.481 1.445-.481 2.168 0 .722-.241 1.444-.482 2.408-.24.722-.24 1.444-.482 2.167-.24.24-.24.963-.24 1.445-.241.481-.482 1.204-.482 1.685-.24.722-.481 1.445-.963 2.167l-2.89 4.334c-1.926 2.89-3.852 6.502-4.575 9.873-.24.963-.963 3.13-.963 4.816-.963 1.445-1.685 4.575 0 5.538.963.482 1.926.723 2.89.964.963.481 2.167.722 3.37.722.723 0 1.686-.241 2.409-.722 2.408 0 5.056-.482 7.464-.723 2.89-.481 5.539-1.204 7.947-2.649.722-.481 1.685-.963 2.407-1.444 1.927 1.926 2.65 5.056 3.612 7.464 1.204 2.89 1.686 6.02 2.89 8.91.24.722.722 1.685 1.204 2.648-.24.723-.24 1.686-.482 2.168-.24.963-.481 1.685-.722 2.648-.482 1.686-.482 3.853-.722 5.78 0 .722 0 1.685-.241 2.407-.241 0-.723-.24-.963.241-.241.24-.482.723-.482 1.204-.24.722-.482 1.686-.963 2.408-.482.963-1.927 2.89-.963 3.853-1.204 2.408-1.686 5.056-2.168 7.705-.481 3.371-1.203 6.502-1.685 9.873-.482 6.742.24 13.484 1.204 19.986.24 2.167.963 4.334 1.204 6.742-1.204 1.926-.723 5.538-.723 7.705 0 1.204-.481 2.649-.722 4.094-.963.963-1.685 4.816-1.685 5.779-.482 2.649-.723 5.057-.723 7.705 0 2.649 0 5.298.241 7.947.24 2.408.963 4.816 1.204 7.464.24 1.445 0 3.131 0 4.575 0 .964-.24 2.168-.482 3.131-1.444.963-2.167 3.13-2.408 5.056-.963 1.445-1.685 2.89-2.89 4.335-1.203 1.444-3.611 2.648-4.093 4.816-1.444 5.779 7.465 3.612 9.632 3.13 2.167-.241 3.13-1.445 3.612-3.371.482 0 .723-.241 1.204-.241 2.649-.722 2.89-2.408 2.167-4.816-.481-1.445-.481-4.093-1.204-5.538 0-2.408 0-4.575.241-6.983.482-2.649 1.445-5.057 2.408-7.706.963-2.648 1.445-5.297 2.167-7.705.963-4.575.24-9.15 0-13.725-.24-3.372 1.445-6.743 2.89-9.632 1.204-2.649 1.685-5.538 2.167-8.428.24-1.445.722-2.89.963-4.334.24-1.445.24-3.131.482-4.575.722-2.89 2.89-5.057 4.093-7.947.482-1.444.963-2.889 1.204-4.334.24-.482.24-1.204.482-1.685.24.722.481 1.444.481 2.167.241 1.444.482 2.648.963 4.093.964 2.89 2.168 5.538 2.65 8.187.24 1.445.48 2.89.962 4.334.482 1.204.964 2.408 1.445 3.853.723 2.649.963 5.538 1.927 8.428.481 1.445 1.444 2.89 1.926 4.334.24.482.481 1.445.963 2.408-.722 5.298 0 11.077 1.204 16.134 1.204 5.297 4.334 10.354 4.816 15.651.24 1.445.24 3.131.481 4.816v1.926c-.722.964-.722 2.408-.722 3.612 0 1.445-.24 2.408-.481 3.853-.723 2.89 2.167 3.371 4.334 3.612-.241 3.612 4.575 3.853 7.465 3.371 1.685-.241 4.093 0 5.297-1.445 1.445-1.685-.24-3.612-1.686-4.575l-3.611-2.889c-.482-1.445-1.445-2.649-1.927-4.094-.24-.722-1.204-4.575-2.408-4.093-.481-2.408-.24-4.816-.24-7.224 0-5.538.481-9.15 0-15.411-.241-2.649 0-5.779-.723-8.669-.24-1.444-.963-4.816-2.167-7.223.24-1.927-.241-4.094-.482-6.02-.24-2.167 0-4.094 0-6.261.963-2.167.723-3.853.963-6.261.482-6.02-.722-11.317-1.204-17.096-.24-2.649-.481-5.298-.963-8.187-.481-2.408-1.204-5.057-1.445-7.706 1.204-.722.241-3.37-.24-4.334-.723-1.204-.723-3.612-2.167-4.093 0-.723.24-1.686.24-2.408.241-2.168.723-4.094.723-6.261v-3.371c0-.482-.241-1.204-.241-1.926.481-.482.963-.964 1.204-1.686.963-1.686 1.445-3.371 2.167-5.057.482-.963.963-1.926 1.445-3.13.24 1.685 1.204 3.853 1.685 5.297.964 1.927 1.927 3.853 3.612 5.298l1.445 1.445c0 .722.482 1.204.482 1.926v2.649c.24 1.926.24 3.853.722 5.779.482 1.685 1.204 3.371 1.445 5.297.24 1.927.722 3.853.963 5.539.24.963.482 2.167.482 3.13v2.167c-.964 2.167-3.371 3.853-3.853 6.261-.24 1.445-.482 2.649-.963 4.093-.482 1.686.963 2.167 2.167.963.722-.722.963-2.407 1.445-3.371h1.204c0 1.445-.964 2.89-1.204 4.335-.964.24-2.167.963-2.408 1.685-.482.963.963.963 1.926.723.722.722 2.649.24 3.853-.482 1.926.482 2.89-2.89 3.612-4.093 2.89-2.408 2.167-5.298 1.444-7.224z"
          fill="url(#paint0_linear_75_177)" fill-opacity=".12"/>
    <path d="M87.456 100.959c-.24-.482-.481-1.204-.481-1.686.963-.963.481-3.853.481-4.816 0-1.926.241-3.612.482-5.538.482-4.094.24-7.946 0-11.799 0-1.204-.24-4.575-1.204-6.02-.24-1.926-.963-3.13-1.685-5.057-.241-.963-.241-3.612-.723-5.297.24-1.926-.481-3.853-.963-5.538-.482-1.445-1.204-4.335-2.167-5.539v-1.204c-.241-2.408-1.204-5.779-3.13-7.464-.964-.963-2.409-1.204-3.612-1.927-1.445-.722-2.408-1.204-3.853-1.685-.241-.723-1.204-1.204-1.927-1.686-.722-.481-1.685-.722-2.648-1.204-.723-.481-1.686-.963-2.408-1.445-.723-.481-1.686-1.204-2.408-1.685-.482-.482-1.204-.963-1.686-1.445-.481-1.685-.481-3.612-.481-5.538.24-.482.481-.723.481-1.204 0-.482.241-.963.482-1.686 0-.481 0-.963.24-1.444.482-.241.723-.482.964-.964.481-.963.963-2.408 1.204-3.37 0-.482.24-1.445 0-1.927-.241-.482-.723-.24-.963 0 .24-1.686.24-3.371.24-5.057-.24-3.612-1.444-7.705-5.779-8.187-1.926-.24-4.093-.722-6.02-.481-1.685.24-2.89 1.204-3.852 2.648-.723.241-1.204.482-1.686 1.204-.481.723-.481 1.686-.722 2.408-.241.963-.482 1.927-.482 2.649-.24 1.686 0 3.612 0 5.298-.24-.241-.722-.241-.963.24-.482 1.204 0 2.408.482 3.612.24.963.963 2.167 1.926 2.408 0 .723.482 2.408.482 2.89.24 1.204.24 2.408 0 3.37v.723c-.482.241-1.204.963-1.445 1.204-1.204.963-2.167 1.927-3.612 2.408-.963.482-2.89.723-3.612 1.686-.963-.241-1.926-.482-3.13-.482-2.408 0-4.816.722-7.224 1.686-1.204.481-2.408 1.204-3.371 1.926-.723.482-1.686 1.445-2.168 2.167h-1.204c-1.203 0-2.407.482-3.611 1.204-.482.241-1.686.963-2.168 1.686v-2.649c0-2.89.241-5.297 1.204-7.946.723-2.167 2.168-4.094 3.612-6.02.963 0 1.686-.24 2.408-.963.723-.241 1.686-.723 2.167-1.686.482-.722.723-1.685 1.204-2.408.482-.963.241-1.926 0-2.89-.24-1.203-.481-1.685-1.685-1.203 0-.482-.24-.723-.482-1.204-.481-1.204-1.204-.963-2.408-.723-.722.241-2.648 0-3.13.964-.722 0-1.445 0-1.686.481-.481 0-1.204.24-.963.723-.722.24-.963.722-1.204 1.203-.481.723-.481 1.445-.481 2.168 0 .722-.241 1.444-.482 2.408-.24.722-.24 1.444-.482 2.167-.24.24-.24.963-.24 1.445-.241.481-.482 1.204-.482 1.685-.24.722-.481 1.445-.963 2.167l-2.89 4.334c-1.926 2.89-3.852 6.502-4.575 9.873-.24.963-.963 3.13-.963 4.816-.963 1.445-1.685 4.575 0 5.538.963.482 1.926.723 2.89.964.963.481 2.167.722 3.37.722.723 0 1.686-.241 2.409-.722 2.408 0 5.056-.482 7.464-.723 2.89-.481 5.539-1.204 7.947-2.649.722-.481 1.685-.963 2.407-1.444 1.927 1.926 2.65 5.056 3.612 7.464 1.204 2.89 1.686 6.02 2.89 8.91.24.722.722 1.685 1.204 2.648-.24.723-.24 1.686-.482 2.168-.24.963-.481 1.685-.722 2.648-.482 1.686-.482 3.853-.722 5.78 0 .722 0 1.685-.241 2.407-.241 0-.723-.24-.963.241-.241.24-.482.723-.482 1.204-.24.722-.482 1.686-.963 2.408-.482.963-1.927 2.89-.963 3.853-1.204 2.408-1.686 5.056-2.168 7.705-.481 3.371-1.203 6.502-1.685 9.873-.482 6.742.24 13.484 1.204 19.986.24 2.167.963 4.334 1.204 6.742-1.204 1.926-.723 5.538-.723 7.705 0 1.204-.481 2.649-.722 4.094-.963.963-1.685 4.816-1.685 5.779-.482 2.649-.723 5.057-.723 7.705 0 2.649 0 5.298.241 7.947.24 2.408.963 4.816 1.204 7.464.24 1.445 0 3.131 0 4.575 0 .964-.24 2.168-.482 3.131-1.444.963-2.167 3.13-2.408 5.056-.963 1.445-1.685 2.89-2.89 4.335-1.203 1.444-3.611 2.648-4.093 4.816-1.444 5.779 7.465 3.612 9.632 3.13 2.167-.241 3.13-1.445 3.612-3.371.482 0 .723-.241 1.204-.241 2.649-.722 2.89-2.408 2.167-4.816-.481-1.445-.481-4.093-1.204-5.538 0-2.408 0-4.575.241-6.983.482-2.649 1.445-5.057 2.408-7.706.963-2.648 1.445-5.297 2.167-7.705.963-4.575.24-9.15 0-13.725-.24-3.372 1.445-6.743 2.89-9.632 1.204-2.649 1.685-5.538 2.167-8.428.24-1.445.722-2.89.963-4.334.24-1.445.24-3.131.482-4.575.722-2.89 2.89-5.057 4.093-7.947.482-1.444.963-2.889 1.204-4.334.24-.482.24-1.204.482-1.685.24.722.481 1.444.481 2.167.241 1.444.482 2.648.963 4.093.964 2.89 2.168 5.538 2.65 8.187.24 1.445.48 2.89.962 4.334.482 1.204.964 2.408 1.445 3.853.723 2.649.963 5.538 1.927 8.428.481 1.445 1.444 2.89 1.926 4.334.24.482.481 1.445.963 2.408-.722 5.298 0 11.077 1.204 16.134 1.204 5.297 4.334 10.354 4.816 15.651.24 1.445.24 3.131.481 4.816v1.926c-.722.964-.722 2.408-.722 3.612 0 1.445-.24 2.408-.481 3.853-.723 2.89 2.167 3.371 4.334 3.612-.241 3.612 4.575 3.853 7.465 3.371 1.685-.241 4.093 0 5.297-1.445 1.445-1.685-.24-3.612-1.686-4.575l-3.611-2.889c-.482-1.445-1.445-2.649-1.927-4.094-.24-.722-1.204-4.575-2.408-4.093-.481-2.408-.24-4.816-.24-7.224 0-5.538.481-9.15 0-15.411-.241-2.649 0-5.779-.723-8.669-.24-1.444-.963-4.816-2.167-7.223.24-1.927-.241-4.094-.482-6.02-.24-2.167 0-4.094 0-6.261.963-2.167.723-3.853.963-6.261.482-6.02-.722-11.317-1.204-17.096-.24-2.649-.481-5.298-.963-8.187-.481-2.408-1.204-5.057-1.445-7.706 1.204-.722.241-3.37-.24-4.334-.723-1.204-.723-3.612-2.167-4.093 0-.723.24-1.686.24-2.408.241-2.168.723-4.094.723-6.261v-3.371c0-.482-.241-1.204-.241-1.926.481-.482.963-.964 1.204-1.686.963-1.686 1.445-3.371 2.167-5.057.482-.963.963-1.926 1.445-3.13.24 1.685 1.204 3.853 1.685 5.297.964 1.927 1.927 3.853 3.612 5.298l1.445 1.445c0 .722.482 1.204.482 1.926v2.649c.24 1.926.24 3.853.722 5.779.482 1.685 1.204 3.371 1.445 5.297.24 1.927.722 3.853.963 5.539.24.963.482 2.167.482 3.13v2.167c-.964 2.167-3.371 3.853-3.853 6.261-.24 1.445-.482 2.649-.963 4.093-.482 1.686.963 2.167 2.167.963.722-.722.963-2.407 1.445-3.371h1.204c0 1.445-.964 2.89-1.204 4.335-.964.24-2.167.963-2.408 1.685-.482.963.963.963 1.926.723.722.722 2.649.24 3.853-.482 1.926.482 2.89-2.89 3.612-4.093 2.89-2.408 2.167-5.298 1.444-7.224z"
          fill="url(#paint1_linear_75_177)"/>
    <path d="M87.456 100.959c-.24-.482-.481-1.204-.481-1.686.963-.963.481-3.853.481-4.816 0-1.926.241-3.612.482-5.538.482-4.094.24-7.946 0-11.799 0-1.204-.24-4.575-1.204-6.02-.24-1.926-.963-3.13-1.685-5.057-.241-.963-.241-3.612-.723-5.297.24-1.926-.481-3.853-.963-5.538-.482-1.445-1.204-4.335-2.167-5.539v-1.204c-.241-2.408-1.204-5.779-3.13-7.464-.964-.963-2.409-1.204-3.612-1.927-1.445-.722-2.408-1.204-3.853-1.685-.241-.723-1.204-1.204-1.927-1.686-.722-.481-1.685-.722-2.648-1.204-.723-.481-1.686-.963-2.408-1.445-.723-.481-1.686-1.204-2.408-1.685-.482-.482-1.204-.963-1.686-1.445-.481-1.685-.481-3.612-.481-5.538.24-.482.481-.723.481-1.204 0-.482.241-.963.482-1.686 0-.481 0-.963.24-1.444.482-.241.723-.482.964-.964.481-.963.963-2.408 1.204-3.37 0-.482.24-1.445 0-1.927-.241-.482-.723-.24-.963 0 .24-1.686.24-3.371.24-5.057-.24-3.612-1.444-7.705-5.779-8.187-1.926-.24-4.093-.722-6.02-.481-1.685.24-2.89 1.204-3.852 2.648-.723.241-1.204.482-1.686 1.204-.481.723-.481 1.686-.722 2.408-.241.963-.482 1.927-.482 2.649-.24 1.686 0 3.612 0 5.298-.24-.241-.722-.241-.963.24-.482 1.204 0 2.408.482 3.612.24.963.963 2.167 1.926 2.408 0 .723.482 2.408.482 2.89.24 1.204.24 2.408 0 3.37v.723c-.482.241-1.204.963-1.445 1.204-1.204.963-2.167 1.927-3.612 2.408-.963.482-2.89.723-3.612 1.686-.963-.241-1.926-.482-3.13-.482-2.408 0-4.816.722-7.224 1.686-1.204.481-2.408 1.204-3.371 1.926-.723.482-1.686 1.445-2.168 2.167h-1.204c-1.203 0-2.407.482-3.611 1.204-.482.241-1.686.963-2.168 1.686v-2.649c0-2.89.241-5.297 1.204-7.946.723-2.167 2.168-4.094 3.612-6.02.963 0 1.686-.24 2.408-.963.723-.241 1.686-.723 2.167-1.686.482-.722.723-1.685 1.204-2.408.482-.963.241-1.926 0-2.89-.24-1.203-.481-1.685-1.685-1.203 0-.482-.24-.723-.482-1.204-.481-1.204-1.204-.963-2.408-.723-.722.241-2.648 0-3.13.964-.722 0-1.445 0-1.686.481-.481 0-1.204.24-.963.723-.722.24-.963.722-1.204 1.203-.481.723-.481 1.445-.481 2.168 0 .722-.241 1.444-.482 2.408-.24.722-.24 1.444-.482 2.167-.24.24-.24.963-.24 1.445-.241.481-.482 1.204-.482 1.685-.24.722-.481 1.445-.963 2.167l-2.89 4.334c-1.926 2.89-3.852 6.502-4.575 9.873-.24.963-.963 3.13-.963 4.816-.963 1.445-1.685 4.575 0 5.538.963.482 1.926.723 2.89.964.963.481 2.167.722 3.37.722.723 0 1.686-.241 2.409-.722 2.408 0 5.056-.482 7.464-.723 2.89-.481 5.539-1.204 7.947-2.649.722-.481 1.685-.963 2.407-1.444 1.927 1.926 2.65 5.056 3.612 7.464 1.204 2.89 1.686 6.02 2.89 8.91.24.722.722 1.685 1.204 2.648-.24.723-.24 1.686-.482 2.168-.24.963-.481 1.685-.722 2.648-.482 1.686-.482 3.853-.722 5.78 0 .722 0 1.685-.241 2.407-.241 0-.723-.24-.963.241-.241.24-.482.723-.482 1.204-.24.722-.482 1.686-.963 2.408-.482.963-1.927 2.89-.963 3.853-1.204 2.408-1.686 5.056-2.168 7.705-.481 3.371-1.203 6.502-1.685 9.873-.482 6.742.24 13.484 1.204 19.986.24 2.167.963 4.334 1.204 6.742-1.204 1.926-.723 5.538-.723 7.705 0 1.204-.481 2.649-.722 4.094-.963.963-1.685 4.816-1.685 5.779-.482 2.649-.723 5.057-.723 7.705 0 2.649 0 5.298.241 7.947.24 2.408.963 4.816 1.204 7.464.24 1.445 0 3.131 0 4.575 0 .964-.24 2.168-.482 3.131-1.444.963-2.167 3.13-2.408 5.056-.963 1.445-1.685 2.89-2.89 4.335-1.203 1.444-3.611 2.648-4.093 4.816-1.444 5.779 7.465 3.612 9.632 3.13 2.167-.241 3.13-1.445 3.612-3.371.482 0 .723-.241 1.204-.241 2.649-.722 2.89-2.408 2.167-4.816-.481-1.445-.481-4.093-1.204-5.538 0-2.408 0-4.575.241-6.983.482-2.649 1.445-5.057 2.408-7.706.963-2.648 1.445-5.297 2.167-7.705.963-4.575.24-9.15 0-13.725-.24-3.372 1.445-6.743 2.89-9.632 1.204-2.649 1.685-5.538 2.167-8.428.24-1.445.722-2.89.963-4.334.24-1.445.24-3.131.482-4.575.722-2.89 2.89-5.057 4.093-7.947.482-1.444.963-2.889 1.204-4.334.24-.482.24-1.204.482-1.685.24.722.481 1.444.481 2.167.241 1.444.482 2.648.963 4.093.964 2.89 2.168 5.538 2.65 8.187.24 1.445.48 2.89.962 4.334.482 1.204.964 2.408 1.445 3.853.723 2.649.963 5.538 1.927 8.428.481 1.445 1.444 2.89 1.926 4.334.24.482.481 1.445.963 2.408-.722 5.298 0 11.077 1.204 16.134 1.204 5.297 4.334 10.354 4.816 15.651.24 1.445.24 3.131.481 4.816v1.926c-.722.964-.722 2.408-.722 3.612 0 1.445-.24 2.408-.481 3.853-.723 2.89 2.167 3.371 4.334 3.612-.241 3.612 4.575 3.853 7.465 3.371 1.685-.241 4.093 0 5.297-1.445 1.445-1.685-.24-3.612-1.686-4.575l-3.611-2.889c-.482-1.445-1.445-2.649-1.927-4.094-.24-.722-1.204-4.575-2.408-4.093-.481-2.408-.24-4.816-.24-7.224 0-5.538.481-9.15 0-15.411-.241-2.649 0-5.779-.723-8.669-.24-1.444-.963-4.816-2.167-7.223.24-1.927-.241-4.094-.482-6.02-.24-2.167 0-4.094 0-6.261.963-2.167.723-3.853.963-6.261.482-6.02-.722-11.317-1.204-17.096-.24-2.649-.481-5.298-.963-8.187-.481-2.408-1.204-5.057-1.445-7.706 1.204-.722.241-3.37-.24-4.334-.723-1.204-.723-3.612-2.167-4.093 0-.723.24-1.686.24-2.408.241-2.168.723-4.094.723-6.261v-3.371c0-.482-.241-1.204-.241-1.926.481-.482.963-.964 1.204-1.686.963-1.686 1.445-3.371 2.167-5.057.482-.963.963-1.926 1.445-3.13.24 1.685 1.204 3.853 1.685 5.297.964 1.927 1.927 3.853 3.612 5.298l1.445 1.445c0 .722.482 1.204.482 1.926v2.649c.24 1.926.24 3.853.722 5.779.482 1.685 1.204 3.371 1.445 5.297.24 1.927.722 3.853.963 5.539.24.963.482 2.167.482 3.13v2.167c-.964 2.167-3.371 3.853-3.853 6.261-.24 1.445-.482 2.649-.963 4.093-.482 1.686.963 2.167 2.167.963.722-.722.963-2.407 1.445-3.371h1.204c0 1.445-.964 2.89-1.204 4.335-.964.24-2.167.963-2.408 1.685-.482.963.963.963 1.926.723.722.722 2.649.24 3.853-.482 1.926.482 2.89-2.89 3.612-4.093 2.89-2.408 2.167-5.298 1.444-7.224z"
          fill="url(#paint2_linear_75_177)"/>
    <path d="M87.456 100.959c-.24-.482-.481-1.204-.481-1.686.963-.963.481-3.853.481-4.816 0-1.926.241-3.612.482-5.538.482-4.094.24-7.946 0-11.799 0-1.204-.24-4.575-1.204-6.02-.24-1.926-.963-3.13-1.685-5.057-.241-.963-.241-3.612-.723-5.297.24-1.926-.481-3.853-.963-5.538-.482-1.445-1.204-4.335-2.167-5.539v-1.204c-.241-2.408-1.204-5.779-3.13-7.464-.964-.963-2.409-1.204-3.612-1.927-1.445-.722-2.408-1.204-3.853-1.685-.241-.723-1.204-1.204-1.927-1.686-.722-.481-1.685-.722-2.648-1.204-.723-.481-1.686-.963-2.408-1.445-.723-.481-1.686-1.204-2.408-1.685-.482-.482-1.204-.963-1.686-1.445-.481-1.685-.481-3.612-.481-5.538.24-.482.481-.723.481-1.204 0-.482.241-.963.482-1.686 0-.481 0-.963.24-1.444.482-.241.723-.482.964-.964.481-.963.963-2.408 1.204-3.37 0-.482.24-1.445 0-1.927-.241-.482-.723-.24-.963 0 .24-1.686.24-3.371.24-5.057-.24-3.612-1.444-7.705-5.779-8.187-1.926-.24-4.093-.722-6.02-.481-1.685.24-2.89 1.204-3.852 2.648-.723.241-1.204.482-1.686 1.204-.481.723-.481 1.686-.722 2.408-.241.963-.482 1.927-.482 2.649-.24 1.686 0 3.612 0 5.298-.24-.241-.722-.241-.963.24-.482 1.204 0 2.408.482 3.612.24.963.963 2.167 1.926 2.408 0 .723.482 2.408.482 2.89.24 1.204.24 2.408 0 3.37v.723c-.482.241-1.204.963-1.445 1.204-1.204.963-2.167 1.927-3.612 2.408-.963.482-2.89.723-3.612 1.686-.963-.241-1.926-.482-3.13-.482-2.408 0-4.816.722-7.224 1.686-1.204.481-2.408 1.204-3.371 1.926-.723.482-1.686 1.445-2.168 2.167h-1.204c-1.203 0-2.407.482-3.611 1.204-.482.241-1.686.963-2.168 1.686v-2.649c0-2.89.241-5.297 1.204-7.946.723-2.167 2.168-4.094 3.612-6.02.963 0 1.686-.24 2.408-.963.723-.241 1.686-.723 2.167-1.686.482-.722.723-1.685 1.204-2.408.482-.963.241-1.926 0-2.89-.24-1.203-.481-1.685-1.685-1.203 0-.482-.24-.723-.482-1.204-.481-1.204-1.204-.963-2.408-.723-.722.241-2.648 0-3.13.964-.722 0-1.445 0-1.686.481-.481 0-1.204.24-.963.723-.722.24-.963.722-1.204 1.203-.481.723-.481 1.445-.481 2.168 0 .722-.241 1.444-.482 2.408-.24.722-.24 1.444-.482 2.167-.24.24-.24.963-.24 1.445-.241.481-.482 1.204-.482 1.685-.24.722-.481 1.445-.963 2.167l-2.89 4.334c-1.926 2.89-3.852 6.502-4.575 9.873-.24.963-.963 3.13-.963 4.816-.963 1.445-1.685 4.575 0 5.538.963.482 1.926.723 2.89.964.963.481 2.167.722 3.37.722.723 0 1.686-.241 2.409-.722 2.408 0 5.056-.482 7.464-.723 2.89-.481 5.539-1.204 7.947-2.649.722-.481 1.685-.963 2.407-1.444 1.927 1.926 2.65 5.056 3.612 7.464 1.204 2.89 1.686 6.02 2.89 8.91.24.722.722 1.685 1.204 2.648-.24.723-.24 1.686-.482 2.168-.24.963-.481 1.685-.722 2.648-.482 1.686-.482 3.853-.722 5.78 0 .722 0 1.685-.241 2.407-.241 0-.723-.24-.963.241-.241.24-.482.723-.482 1.204-.24.722-.482 1.686-.963 2.408-.482.963-1.927 2.89-.963 3.853-1.204 2.408-1.686 5.056-2.168 7.705-.481 3.371-1.203 6.502-1.685 9.873-.482 6.742.24 13.484 1.204 19.986.24 2.167.963 4.334 1.204 6.742-1.204 1.926-.723 5.538-.723 7.705 0 1.204-.481 2.649-.722 4.094-.963.963-1.685 4.816-1.685 5.779-.482 2.649-.723 5.057-.723 7.705 0 2.649 0 5.298.241 7.947.24 2.408.963 4.816 1.204 7.464.24 1.445 0 3.131 0 4.575 0 .964-.24 2.168-.482 3.131-1.444.963-2.167 3.13-2.408 5.056-.963 1.445-1.685 2.89-2.89 4.335-1.203 1.444-3.611 2.648-4.093 4.816-1.444 5.779 7.465 3.612 9.632 3.13 2.167-.241 3.13-1.445 3.612-3.371.482 0 .723-.241 1.204-.241 2.649-.722 2.89-2.408 2.167-4.816-.481-1.445-.481-4.093-1.204-5.538 0-2.408 0-4.575.241-6.983.482-2.649 1.445-5.057 2.408-7.706.963-2.648 1.445-5.297 2.167-7.705.963-4.575.24-9.15 0-13.725-.24-3.372 1.445-6.743 2.89-9.632 1.204-2.649 1.685-5.538 2.167-8.428.24-1.445.722-2.89.963-4.334.24-1.445.24-3.131.482-4.575.722-2.89 2.89-5.057 4.093-7.947.482-1.444.963-2.889 1.204-4.334.24-.482.24-1.204.482-1.685.24.722.481 1.444.481 2.167.241 1.444.482 2.648.963 4.093.964 2.89 2.168 5.538 2.65 8.187.24 1.445.48 2.89.962 4.334.482 1.204.964 2.408 1.445 3.853.723 2.649.963 5.538 1.927 8.428.481 1.445 1.444 2.89 1.926 4.334.24.482.481 1.445.963 2.408-.722 5.298 0 11.077 1.204 16.134 1.204 5.297 4.334 10.354 4.816 15.651.24 1.445.24 3.131.481 4.816v1.926c-.722.964-.722 2.408-.722 3.612 0 1.445-.24 2.408-.481 3.853-.723 2.89 2.167 3.371 4.334 3.612-.241 3.612 4.575 3.853 7.465 3.371 1.685-.241 4.093 0 5.297-1.445 1.445-1.685-.24-3.612-1.686-4.575l-3.611-2.889c-.482-1.445-1.445-2.649-1.927-4.094-.24-.722-1.204-4.575-2.408-4.093-.481-2.408-.24-4.816-.24-7.224 0-5.538.481-9.15 0-15.411-.241-2.649 0-5.779-.723-8.669-.24-1.444-.963-4.816-2.167-7.223.24-1.927-.241-4.094-.482-6.02-.24-2.167 0-4.094 0-6.261.963-2.167.723-3.853.963-6.261.482-6.02-.722-11.317-1.204-17.096-.24-2.649-.481-5.298-.963-8.187-.481-2.408-1.204-5.057-1.445-7.706 1.204-.722.241-3.37-.24-4.334-.723-1.204-.723-3.612-2.167-4.093 0-.723.24-1.686.24-2.408.241-2.168.723-4.094.723-6.261v-3.371c0-.482-.241-1.204-.241-1.926.481-.482.963-.964 1.204-1.686.963-1.686 1.445-3.371 2.167-5.057.482-.963.963-1.926 1.445-3.13.24 1.685 1.204 3.853 1.685 5.297.964 1.927 1.927 3.853 3.612 5.298l1.445 1.445c0 .722.482 1.204.482 1.926v2.649c.24 1.926.24 3.853.722 5.779.482 1.685 1.204 3.371 1.445 5.297.24 1.927.722 3.853.963 5.539.24.963.482 2.167.482 3.13v2.167c-.964 2.167-3.371 3.853-3.853 6.261-.24 1.445-.482 2.649-.963 4.093-.482 1.686.963 2.167 2.167.963.722-.722.963-2.407 1.445-3.371h1.204c0 1.445-.964 2.89-1.204 4.335-.964.24-2.167.963-2.408 1.685-.482.963.963.963 1.926.723.722.722 2.649.24 3.853-.482 1.926.482 2.89-2.89 3.612-4.093 2.89-2.408 2.167-5.298 1.444-7.224z"
          fill="url(#paint3_linear_75_177)"/>
    <path d="M87.456 100.959c-.24-.482-.481-1.204-.481-1.686.963-.963.481-3.853.481-4.816 0-1.926.241-3.612.482-5.538.482-4.094.24-7.946 0-11.799 0-1.204-.24-4.575-1.204-6.02-.24-1.926-.963-3.13-1.685-5.057-.241-.963-.241-3.612-.723-5.297.24-1.926-.481-3.853-.963-5.538-.482-1.445-1.204-4.335-2.167-5.539v-1.204c-.241-2.408-1.204-5.779-3.13-7.464-.964-.963-2.409-1.204-3.612-1.927-1.445-.722-2.408-1.204-3.853-1.685-.241-.723-1.204-1.204-1.927-1.686-.722-.481-1.685-.722-2.648-1.204-.723-.481-1.686-.963-2.408-1.445-.723-.481-1.686-1.204-2.408-1.685-.482-.482-1.204-.963-1.686-1.445-.481-1.685-.481-3.612-.481-5.538.24-.482.481-.723.481-1.204 0-.482.241-.963.482-1.686 0-.481 0-.963.24-1.444.482-.241.723-.482.964-.964.481-.963.963-2.408 1.204-3.37 0-.482.24-1.445 0-1.927-.241-.482-.723-.24-.963 0 .24-1.686.24-3.371.24-5.057-.24-3.612-1.444-7.705-5.779-8.187-1.926-.24-4.093-.722-6.02-.481-1.685.24-2.89 1.204-3.852 2.648-.723.241-1.204.482-1.686 1.204-.481.723-.481 1.686-.722 2.408-.241.963-.482 1.927-.482 2.649-.24 1.686 0 3.612 0 5.298-.24-.241-.722-.241-.963.24-.482 1.204 0 2.408.482 3.612.24.963.963 2.167 1.926 2.408 0 .723.482 2.408.482 2.89.24 1.204.24 2.408 0 3.37v.723c-.482.241-1.204.963-1.445 1.204-1.204.963-2.167 1.927-3.612 2.408-.963.482-2.89.723-3.612 1.686-.963-.241-1.926-.482-3.13-.482-2.408 0-4.816.722-7.224 1.686-1.204.481-2.408 1.204-3.371 1.926-.723.482-1.686 1.445-2.168 2.167h-1.204c-1.203 0-2.407.482-3.611 1.204-.482.241-1.686.963-2.168 1.686v-2.649c0-2.89.241-5.297 1.204-7.946.723-2.167 2.168-4.094 3.612-6.02.963 0 1.686-.24 2.408-.963.723-.241 1.686-.723 2.167-1.686.482-.722.723-1.685 1.204-2.408.482-.963.241-1.926 0-2.89-.24-1.203-.481-1.685-1.685-1.203 0-.482-.24-.723-.482-1.204-.481-1.204-1.204-.963-2.408-.723-.722.241-2.648 0-3.13.964-.722 0-1.445 0-1.686.481-.481 0-1.204.24-.963.723-.722.24-.963.722-1.204 1.203-.481.723-.481 1.445-.481 2.168 0 .722-.241 1.444-.482 2.408-.24.722-.24 1.444-.482 2.167-.24.24-.24.963-.24 1.445-.241.481-.482 1.204-.482 1.685-.24.722-.481 1.445-.963 2.167l-2.89 4.334c-1.926 2.89-3.852 6.502-4.575 9.873-.24.963-.963 3.13-.963 4.816-.963 1.445-1.685 4.575 0 5.538.963.482 1.926.723 2.89.964.963.481 2.167.722 3.37.722.723 0 1.686-.241 2.409-.722 2.408 0 5.056-.482 7.464-.723 2.89-.481 5.539-1.204 7.947-2.649.722-.481 1.685-.963 2.407-1.444 1.927 1.926 2.65 5.056 3.612 7.464 1.204 2.89 1.686 6.02 2.89 8.91.24.722.722 1.685 1.204 2.648-.24.723-.24 1.686-.482 2.168-.24.963-.481 1.685-.722 2.648-.482 1.686-.482 3.853-.722 5.78 0 .722 0 1.685-.241 2.407-.241 0-.723-.24-.963.241-.241.24-.482.723-.482 1.204-.24.722-.482 1.686-.963 2.408-.482.963-1.927 2.89-.963 3.853-1.204 2.408-1.686 5.056-2.168 7.705-.481 3.371-1.203 6.502-1.685 9.873-.482 6.742.24 13.484 1.204 19.986.24 2.167.963 4.334 1.204 6.742-1.204 1.926-.723 5.538-.723 7.705 0 1.204-.481 2.649-.722 4.094-.963.963-1.685 4.816-1.685 5.779-.482 2.649-.723 5.057-.723 7.705 0 2.649 0 5.298.241 7.947.24 2.408.963 4.816 1.204 7.464.24 1.445 0 3.131 0 4.575 0 .964-.24 2.168-.482 3.131-1.444.963-2.167 3.13-2.408 5.056-.963 1.445-1.685 2.89-2.89 4.335-1.203 1.444-3.611 2.648-4.093 4.816-1.444 5.779 7.465 3.612 9.632 3.13 2.167-.241 3.13-1.445 3.612-3.371.482 0 .723-.241 1.204-.241 2.649-.722 2.89-2.408 2.167-4.816-.481-1.445-.481-4.093-1.204-5.538 0-2.408 0-4.575.241-6.983.482-2.649 1.445-5.057 2.408-7.706.963-2.648 1.445-5.297 2.167-7.705.963-4.575.24-9.15 0-13.725-.24-3.372 1.445-6.743 2.89-9.632 1.204-2.649 1.685-5.538 2.167-8.428.24-1.445.722-2.89.963-4.334.24-1.445.24-3.131.482-4.575.722-2.89 2.89-5.057 4.093-7.947.482-1.444.963-2.889 1.204-4.334.24-.482.24-1.204.482-1.685.24.722.481 1.444.481 2.167.241 1.444.482 2.648.963 4.093.964 2.89 2.168 5.538 2.65 8.187.24 1.445.48 2.89.962 4.334.482 1.204.964 2.408 1.445 3.853.723 2.649.963 5.538 1.927 8.428.481 1.445 1.444 2.89 1.926 4.334.24.482.481 1.445.963 2.408-.722 5.298 0 11.077 1.204 16.134 1.204 5.297 4.334 10.354 4.816 15.651.24 1.445.24 3.131.481 4.816v1.926c-.722.964-.722 2.408-.722 3.612 0 1.445-.24 2.408-.481 3.853-.723 2.89 2.167 3.371 4.334 3.612-.241 3.612 4.575 3.853 7.465 3.371 1.685-.241 4.093 0 5.297-1.445 1.445-1.685-.24-3.612-1.686-4.575l-3.611-2.889c-.482-1.445-1.445-2.649-1.927-4.094-.24-.722-1.204-4.575-2.408-4.093-.481-2.408-.24-4.816-.24-7.224 0-5.538.481-9.15 0-15.411-.241-2.649 0-5.779-.723-8.669-.24-1.444-.963-4.816-2.167-7.223.24-1.927-.241-4.094-.482-6.02-.24-2.167 0-4.094 0-6.261.963-2.167.723-3.853.963-6.261.482-6.02-.722-11.317-1.204-17.096-.24-2.649-.481-5.298-.963-8.187-.481-2.408-1.204-5.057-1.445-7.706 1.204-.722.241-3.37-.24-4.334-.723-1.204-.723-3.612-2.167-4.093 0-.723.24-1.686.24-2.408.241-2.168.723-4.094.723-6.261v-3.371c0-.482-.241-1.204-.241-1.926.481-.482.963-.964 1.204-1.686.963-1.686 1.445-3.371 2.167-5.057.482-.963.963-1.926 1.445-3.13.24 1.685 1.204 3.853 1.685 5.297.964 1.927 1.927 3.853 3.612 5.298l1.445 1.445c0 .722.482 1.204.482 1.926v2.649c.24 1.926.24 3.853.722 5.779.482 1.685 1.204 3.371 1.445 5.297.24 1.927.722 3.853.963 5.539.24.963.482 2.167.482 3.13v2.167c-.964 2.167-3.371 3.853-3.853 6.261-.24 1.445-.482 2.649-.963 4.093-.482 1.686.963 2.167 2.167.963.722-.722.963-2.407 1.445-3.371h1.204c0 1.445-.964 2.89-1.204 4.335-.964.24-2.167.963-2.408 1.685-.482.963.963.963 1.926.723.722.722 2.649.24 3.853-.482 1.926.482 2.89-2.89 3.612-4.093 2.89-2.408 2.167-5.298 1.444-7.224z"
          fill="url(#paint4_linear_75_177)"/>
    <path d="M87.456 100.959c-.24-.482-.481-1.204-.481-1.686.963-.963.481-3.853.481-4.816 0-1.926.241-3.612.482-5.538.482-4.094.24-7.946 0-11.799 0-1.204-.24-4.575-1.204-6.02-.24-1.926-.963-3.13-1.685-5.057-.241-.963-.241-3.612-.723-5.297.24-1.926-.481-3.853-.963-5.538-.482-1.445-1.204-4.335-2.167-5.539v-1.204c-.241-2.408-1.204-5.779-3.13-7.464-.964-.963-2.409-1.204-3.612-1.927-1.445-.722-2.408-1.204-3.853-1.685-.241-.723-1.204-1.204-1.927-1.686-.722-.481-1.685-.722-2.648-1.204-.723-.481-1.686-.963-2.408-1.445-.723-.481-1.686-1.204-2.408-1.685-.482-.482-1.204-.963-1.686-1.445-.481-1.685-.481-3.612-.481-5.538.24-.482.481-.723.481-1.204 0-.482.241-.963.482-1.686 0-.481 0-.963.24-1.444.482-.241.723-.482.964-.964.481-.963.963-2.408 1.204-3.37 0-.482.24-1.445 0-1.927-.241-.482-.723-.24-.963 0 .24-1.686.24-3.371.24-5.057-.24-3.612-1.444-7.705-5.779-8.187-1.926-.24-4.093-.722-6.02-.481-1.685.24-2.89 1.204-3.852 2.648-.723.241-1.204.482-1.686 1.204-.481.723-.481 1.686-.722 2.408-.241.963-.482 1.927-.482 2.649-.24 1.686 0 3.612 0 5.298-.24-.241-.722-.241-.963.24-.482 1.204 0 2.408.482 3.612.24.963.963 2.167 1.926 2.408 0 .723.482 2.408.482 2.89.24 1.204.24 2.408 0 3.37v.723c-.482.241-1.204.963-1.445 1.204-1.204.963-2.167 1.927-3.612 2.408-.963.482-2.89.723-3.612 1.686-.963-.241-1.926-.482-3.13-.482-2.408 0-4.816.722-7.224 1.686-1.204.481-2.408 1.204-3.371 1.926-.723.482-1.686 1.445-2.168 2.167h-1.204c-1.203 0-2.407.482-3.611 1.204-.482.241-1.686.963-2.168 1.686v-2.649c0-2.89.241-5.297 1.204-7.946.723-2.167 2.168-4.094 3.612-6.02.963 0 1.686-.24 2.408-.963.723-.241 1.686-.723 2.167-1.686.482-.722.723-1.685 1.204-2.408.482-.963.241-1.926 0-2.89-.24-1.203-.481-1.685-1.685-1.203 0-.482-.24-.723-.482-1.204-.481-1.204-1.204-.963-2.408-.723-.722.241-2.648 0-3.13.964-.722 0-1.445 0-1.686.481-.481 0-1.204.24-.963.723-.722.24-.963.722-1.204 1.203-.481.723-.481 1.445-.481 2.168 0 .722-.241 1.444-.482 2.408-.24.722-.24 1.444-.482 2.167-.24.24-.24.963-.24 1.445-.241.481-.482 1.204-.482 1.685-.24.722-.481 1.445-.963 2.167l-2.89 4.334c-1.926 2.89-3.852 6.502-4.575 9.873-.24.963-.963 3.13-.963 4.816-.963 1.445-1.685 4.575 0 5.538.963.482 1.926.723 2.89.964.963.481 2.167.722 3.37.722.723 0 1.686-.241 2.409-.722 2.408 0 5.056-.482 7.464-.723 2.89-.481 5.539-1.204 7.947-2.649.722-.481 1.685-.963 2.407-1.444 1.927 1.926 2.65 5.056 3.612 7.464 1.204 2.89 1.686 6.02 2.89 8.91.24.722.722 1.685 1.204 2.648-.24.723-.24 1.686-.482 2.168-.24.963-.481 1.685-.722 2.648-.482 1.686-.482 3.853-.722 5.78 0 .722 0 1.685-.241 2.407-.241 0-.723-.24-.963.241-.241.24-.482.723-.482 1.204-.24.722-.482 1.686-.963 2.408-.482.963-1.927 2.89-.963 3.853-1.204 2.408-1.686 5.056-2.168 7.705-.481 3.371-1.203 6.502-1.685 9.873-.482 6.742.24 13.484 1.204 19.986.24 2.167.963 4.334 1.204 6.742-1.204 1.926-.723 5.538-.723 7.705 0 1.204-.481 2.649-.722 4.094-.963.963-1.685 4.816-1.685 5.779-.482 2.649-.723 5.057-.723 7.705 0 2.649 0 5.298.241 7.947.24 2.408.963 4.816 1.204 7.464.24 1.445 0 3.131 0 4.575 0 .964-.24 2.168-.482 3.131-1.444.963-2.167 3.13-2.408 5.056-.963 1.445-1.685 2.89-2.89 4.335-1.203 1.444-3.611 2.648-4.093 4.816-1.444 5.779 7.465 3.612 9.632 3.13 2.167-.241 3.13-1.445 3.612-3.371.482 0 .723-.241 1.204-.241 2.649-.722 2.89-2.408 2.167-4.816-.481-1.445-.481-4.093-1.204-5.538 0-2.408 0-4.575.241-6.983.482-2.649 1.445-5.057 2.408-7.706.963-2.648 1.445-5.297 2.167-7.705.963-4.575.24-9.15 0-13.725-.24-3.372 1.445-6.743 2.89-9.632 1.204-2.649 1.685-5.538 2.167-8.428.24-1.445.722-2.89.963-4.334.24-1.445.24-3.131.482-4.575.722-2.89 2.89-5.057 4.093-7.947.482-1.444.963-2.889 1.204-4.334.24-.482.24-1.204.482-1.685.24.722.481 1.444.481 2.167.241 1.444.482 2.648.963 4.093.964 2.89 2.168 5.538 2.65 8.187.24 1.445.48 2.89.962 4.334.482 1.204.964 2.408 1.445 3.853.723 2.649.963 5.538 1.927 8.428.481 1.445 1.444 2.89 1.926 4.334.24.482.481 1.445.963 2.408-.722 5.298 0 11.077 1.204 16.134 1.204 5.297 4.334 10.354 4.816 15.651.24 1.445.24 3.131.481 4.816v1.926c-.722.964-.722 2.408-.722 3.612 0 1.445-.24 2.408-.481 3.853-.723 2.89 2.167 3.371 4.334 3.612-.241 3.612 4.575 3.853 7.465 3.371 1.685-.241 4.093 0 5.297-1.445 1.445-1.685-.24-3.612-1.686-4.575l-3.611-2.889c-.482-1.445-1.445-2.649-1.927-4.094-.24-.722-1.204-4.575-2.408-4.093-.481-2.408-.24-4.816-.24-7.224 0-5.538.481-9.15 0-15.411-.241-2.649 0-5.779-.723-8.669-.24-1.444-.963-4.816-2.167-7.223.24-1.927-.241-4.094-.482-6.02-.24-2.167 0-4.094 0-6.261.963-2.167.723-3.853.963-6.261.482-6.02-.722-11.317-1.204-17.096-.24-2.649-.481-5.298-.963-8.187-.481-2.408-1.204-5.057-1.445-7.706 1.204-.722.241-3.37-.24-4.334-.723-1.204-.723-3.612-2.167-4.093 0-.723.24-1.686.24-2.408.241-2.168.723-4.094.723-6.261v-3.371c0-.482-.241-1.204-.241-1.926.481-.482.963-.964 1.204-1.686.963-1.686 1.445-3.371 2.167-5.057.482-.963.963-1.926 1.445-3.13.24 1.685 1.204 3.853 1.685 5.297.964 1.927 1.927 3.853 3.612 5.298l1.445 1.445c0 .722.482 1.204.482 1.926v2.649c.24 1.926.24 3.853.722 5.779.482 1.685 1.204 3.371 1.445 5.297.24 1.927.722 3.853.963 5.539.24.963.482 2.167.482 3.13v2.167c-.964 2.167-3.371 3.853-3.853 6.261-.24 1.445-.482 2.649-.963 4.093-.482 1.686.963 2.167 2.167.963.722-.722.963-2.407 1.445-3.371h1.204c0 1.445-.964 2.89-1.204 4.335-.964.24-2.167.963-2.408 1.685-.482.963.963.963 1.926.723.722.722 2.649.24 3.853-.482 1.926.482 2.89-2.89 3.612-4.093 2.89-2.408 2.167-5.298 1.444-7.224z"
          fill="#FF4500"/>
    <path d="M87.456 100.959c-.24-.482-.481-1.204-.481-1.686.963-.963.481-3.853.481-4.816 0-1.926.241-3.612.482-5.538.482-4.094.24-7.946 0-11.799 0-1.204-.24-4.575-1.204-6.02-.24-1.926-.963-3.13-1.685-5.057-.241-.963-.241-3.612-.723-5.297.24-1.926-.481-3.853-.963-5.538-.482-1.445-1.204-4.335-2.167-5.539v-1.204c-.241-2.408-1.204-5.779-3.13-7.464-.964-.963-2.409-1.204-3.612-1.927-1.445-.722-2.408-1.204-3.853-1.685-.241-.723-1.204-1.204-1.927-1.686-.722-.481-1.685-.722-2.648-1.204-.723-.481-1.686-.963-2.408-1.445-.723-.481-1.686-1.204-2.408-1.685-.482-.482-1.204-.963-1.686-1.445-.481-1.685-.481-3.612-.481-5.538.24-.482.481-.723.481-1.204 0-.482.241-.963.482-1.686 0-.481 0-.963.24-1.444.482-.241.723-.482.964-.964.481-.963.963-2.408 1.204-3.37 0-.482.24-1.445 0-1.927-.241-.482-.723-.24-.963 0 .24-1.686.24-3.371.24-5.057-.24-3.612-1.444-7.705-5.779-8.187-1.926-.24-4.093-.722-6.02-.481-1.685.24-2.89 1.204-3.852 2.648-.723.241-1.204.482-1.686 1.204-.481.723-.481 1.686-.722 2.408-.241.963-.482 1.927-.482 2.649-.24 1.686 0 3.612 0 5.298-.24-.241-.722-.241-.963.24-.482 1.204 0 2.408.482 3.612.24.963.963 2.167 1.926 2.408 0 .723.482 2.408.482 2.89.24 1.204.24 2.408 0 3.37v.723c-.482.241-1.204.963-1.445 1.204-1.204.963-2.167 1.927-3.612 2.408-.963.482-2.89.723-3.612 1.686-.963-.241-1.926-.482-3.13-.482-2.408 0-4.816.722-7.224 1.686-1.204.481-2.408 1.204-3.371 1.926-.723.482-1.686 1.445-2.168 2.167h-1.204c-1.203 0-2.407.482-3.611 1.204-.482.241-1.686.963-2.168 1.686v-2.649c0-2.89.241-5.297 1.204-7.946.723-2.167 2.168-4.094 3.612-6.02.963 0 1.686-.24 2.408-.963.723-.241 1.686-.723 2.167-1.686.482-.722.723-1.685 1.204-2.408.482-.963.241-1.926 0-2.89-.24-1.203-.481-1.685-1.685-1.203 0-.482-.24-.723-.482-1.204-.481-1.204-1.204-.963-2.408-.723-.722.241-2.648 0-3.13.964-.722 0-1.445 0-1.686.481-.481 0-1.204.24-.963.723-.722.24-.963.722-1.204 1.203-.481.723-.481 1.445-.481 2.168 0 .722-.241 1.444-.482 2.408-.24.722-.24 1.444-.482 2.167-.24.24-.24.963-.24 1.445-.241.481-.482 1.204-.482 1.685-.24.722-.481 1.445-.963 2.167l-2.89 4.334c-1.926 2.89-3.852 6.502-4.575 9.873-.24.963-.963 3.13-.963 4.816-.963 1.445-1.685 4.575 0 5.538.963.482 1.926.723 2.89.964.963.481 2.167.722 3.37.722.723 0 1.686-.241 2.409-.722 2.408 0 5.056-.482 7.464-.723 2.89-.481 5.539-1.204 7.947-2.649.722-.481 1.685-.963 2.407-1.444 1.927 1.926 2.65 5.056 3.612 7.464 1.204 2.89 1.686 6.02 2.89 8.91.24.722.722 1.685 1.204 2.648-.24.723-.24 1.686-.482 2.168-.24.963-.481 1.685-.722 2.648-.482 1.686-.482 3.853-.722 5.78 0 .722 0 1.685-.241 2.407-.241 0-.723-.24-.963.241-.241.24-.482.723-.482 1.204-.24.722-.482 1.686-.963 2.408-.482.963-1.927 2.89-.963 3.853-1.204 2.408-1.686 5.056-2.168 7.705-.481 3.371-1.203 6.502-1.685 9.873-.482 6.742.24 13.484 1.204 19.986.24 2.167.963 4.334 1.204 6.742-1.204 1.926-.723 5.538-.723 7.705 0 1.204-.481 2.649-.722 4.094-.963.963-1.685 4.816-1.685 5.779-.482 2.649-.723 5.057-.723 7.705 0 2.649 0 5.298.241 7.947.24 2.408.963 4.816 1.204 7.464.24 1.445 0 3.131 0 4.575 0 .964-.24 2.168-.482 3.131-1.444.963-2.167 3.13-2.408 5.056-.963 1.445-1.685 2.89-2.89 4.335-1.203 1.444-3.611 2.648-4.093 4.816-1.444 5.779 7.465 3.612 9.632 3.13 2.167-.241 3.13-1.445 3.612-3.371.482 0 .723-.241 1.204-.241 2.649-.722 2.89-2.408 2.167-4.816-.481-1.445-.481-4.093-1.204-5.538 0-2.408 0-4.575.241-6.983.482-2.649 1.445-5.057 2.408-7.706.963-2.648 1.445-5.297 2.167-7.705.963-4.575.24-9.15 0-13.725-.24-3.372 1.445-6.743 2.89-9.632 1.204-2.649 1.685-5.538 2.167-8.428.24-1.445.722-2.89.963-4.334.24-1.445.24-3.131.482-4.575.722-2.89 2.89-5.057 4.093-7.947.482-1.444.963-2.889 1.204-4.334.24-.482.24-1.204.482-1.685.24.722.481 1.444.481 2.167.241 1.444.482 2.648.963 4.093.964 2.89 2.168 5.538 2.65 8.187.24 1.445.48 2.89.962 4.334.482 1.204.964 2.408 1.445 3.853.723 2.649.963 5.538 1.927 8.428.481 1.445 1.444 2.89 1.926 4.334.24.482.481 1.445.963 2.408-.722 5.298 0 11.077 1.204 16.134 1.204 5.297 4.334 10.354 4.816 15.651.24 1.445.24 3.131.481 4.816v1.926c-.722.964-.722 2.408-.722 3.612 0 1.445-.24 2.408-.481 3.853-.723 2.89 2.167 3.371 4.334 3.612-.241 3.612 4.575 3.853 7.465 3.371 1.685-.241 4.093 0 5.297-1.445 1.445-1.685-.24-3.612-1.686-4.575l-3.611-2.889c-.482-1.445-1.445-2.649-1.927-4.094-.24-.722-1.204-4.575-2.408-4.093-.481-2.408-.24-4.816-.24-7.224 0-5.538.481-9.15 0-15.411-.241-2.649 0-5.779-.723-8.669-.24-1.444-.963-4.816-2.167-7.223.24-1.927-.241-4.094-.482-6.02-.24-2.167 0-4.094 0-6.261.963-2.167.723-3.853.963-6.261.482-6.02-.722-11.317-1.204-17.096-.24-2.649-.481-5.298-.963-8.187-.481-2.408-1.204-5.057-1.445-7.706 1.204-.722.241-3.37-.24-4.334-.723-1.204-.723-3.612-2.167-4.093 0-.723.24-1.686.24-2.408.241-2.168.723-4.094.723-6.261v-3.371c0-.482-.241-1.204-.241-1.926.481-.482.963-.964 1.204-1.686.963-1.686 1.445-3.371 2.167-5.057.482-.963.963-1.926 1.445-3.13.24 1.685 1.204 3.853 1.685 5.297.964 1.927 1.927 3.853 3.612 5.298l1.445 1.445c0 .722.482 1.204.482 1.926v2.649c.24 1.926.24 3.853.722 5.779.482 1.685 1.204 3.371 1.445 5.297.24 1.927.722 3.853.963 5.539.24.963.482 2.167.482 3.13v2.167c-.964 2.167-3.371 3.853-3.853 6.261-.24 1.445-.482 2.649-.963 4.093-.482 1.686.963 2.167 2.167.963.722-.722.963-2.407 1.445-3.371h1.204c0 1.445-.964 2.89-1.204 4.335-.964.24-2.167.963-2.408 1.685-.482.963.963.963 1.926.723.722.722 2.649.24 3.853-.482 1.926.482 2.89-2.89 3.612-4.093 2.89-2.408 2.167-5.298 1.444-7.224z"
          stroke="url(#paint5_linear_75_177)" stroke-width="2" mask="url(#a)"/>
    <path d="M87.456 100.959c-.24-.482-.481-1.204-.481-1.686.963-.963.481-3.853.481-4.816 0-1.926.241-3.612.482-5.538.482-4.094.24-7.946 0-11.799 0-1.204-.24-4.575-1.204-6.02-.24-1.926-.963-3.13-1.685-5.057-.241-.963-.241-3.612-.723-5.297.24-1.926-.481-3.853-.963-5.538-.482-1.445-1.204-4.335-2.167-5.539v-1.204c-.241-2.408-1.204-5.779-3.13-7.464-.964-.963-2.409-1.204-3.612-1.927-1.445-.722-2.408-1.204-3.853-1.685-.241-.723-1.204-1.204-1.927-1.686-.722-.481-1.685-.722-2.648-1.204-.723-.481-1.686-.963-2.408-1.445-.723-.481-1.686-1.204-2.408-1.685-.482-.482-1.204-.963-1.686-1.445-.481-1.685-.481-3.612-.481-5.538.24-.482.481-.723.481-1.204 0-.482.241-.963.482-1.686 0-.481 0-.963.24-1.444.482-.241.723-.482.964-.964.481-.963.963-2.408 1.204-3.37 0-.482.24-1.445 0-1.927-.241-.482-.723-.24-.963 0 .24-1.686.24-3.371.24-5.057-.24-3.612-1.444-7.705-5.779-8.187-1.926-.24-4.093-.722-6.02-.481-1.685.24-2.89 1.204-3.852 2.648-.723.241-1.204.482-1.686 1.204-.481.723-.481 1.686-.722 2.408-.241.963-.482 1.927-.482 2.649-.24 1.686 0 3.612 0 5.298-.24-.241-.722-.241-.963.24-.482 1.204 0 2.408.482 3.612.24.963.963 2.167 1.926 2.408 0 .723.482 2.408.482 2.89.24 1.204.24 2.408 0 3.37v.723c-.482.241-1.204.963-1.445 1.204-1.204.963-2.167 1.927-3.612 2.408-.963.482-2.89.723-3.612 1.686-.963-.241-1.926-.482-3.13-.482-2.408 0-4.816.722-7.224 1.686-1.204.481-2.408 1.204-3.371 1.926-.723.482-1.686 1.445-2.168 2.167h-1.204c-1.203 0-2.407.482-3.611 1.204-.482.241-1.686.963-2.168 1.686v-2.649c0-2.89.241-5.297 1.204-7.946.723-2.167 2.168-4.094 3.612-6.02.963 0 1.686-.24 2.408-.963.723-.241 1.686-.723 2.167-1.686.482-.722.723-1.685 1.204-2.408.482-.963.241-1.926 0-2.89-.24-1.203-.481-1.685-1.685-1.203 0-.482-.24-.723-.482-1.204-.481-1.204-1.204-.963-2.408-.723-.722.241-2.648 0-3.13.964-.722 0-1.445 0-1.686.481-.481 0-1.204.24-.963.723-.722.24-.963.722-1.204 1.203-.481.723-.481 1.445-.481 2.168 0 .722-.241 1.444-.482 2.408-.24.722-.24 1.444-.482 2.167-.24.24-.24.963-.24 1.445-.241.481-.482 1.204-.482 1.685-.24.722-.481 1.445-.963 2.167l-2.89 4.334c-1.926 2.89-3.852 6.502-4.575 9.873-.24.963-.963 3.13-.963 4.816-.963 1.445-1.685 4.575 0 5.538.963.482 1.926.723 2.89.964.963.481 2.167.722 3.37.722.723 0 1.686-.241 2.409-.722 2.408 0 5.056-.482 7.464-.723 2.89-.481 5.539-1.204 7.947-2.649.722-.481 1.685-.963 2.407-1.444 1.927 1.926 2.65 5.056 3.612 7.464 1.204 2.89 1.686 6.02 2.89 8.91.24.722.722 1.685 1.204 2.648-.24.723-.24 1.686-.482 2.168-.24.963-.481 1.685-.722 2.648-.482 1.686-.482 3.853-.722 5.78 0 .722 0 1.685-.241 2.407-.241 0-.723-.24-.963.241-.241.24-.482.723-.482 1.204-.24.722-.482 1.686-.963 2.408-.482.963-1.927 2.89-.963 3.853-1.204 2.408-1.686 5.056-2.168 7.705-.481 3.371-1.203 6.502-1.685 9.873-.482 6.742.24 13.484 1.204 19.986.24 2.167.963 4.334 1.204 6.742-1.204 1.926-.723 5.538-.723 7.705 0 1.204-.481 2.649-.722 4.094-.963.963-1.685 4.816-1.685 5.779-.482 2.649-.723 5.057-.723 7.705 0 2.649 0 5.298.241 7.947.24 2.408.963 4.816 1.204 7.464.24 1.445 0 3.131 0 4.575 0 .964-.24 2.168-.482 3.131-1.444.963-2.167 3.13-2.408 5.056-.963 1.445-1.685 2.89-2.89 4.335-1.203 1.444-3.611 2.648-4.093 4.816-1.444 5.779 7.465 3.612 9.632 3.13 2.167-.241 3.13-1.445 3.612-3.371.482 0 .723-.241 1.204-.241 2.649-.722 2.89-2.408 2.167-4.816-.481-1.445-.481-4.093-1.204-5.538 0-2.408 0-4.575.241-6.983.482-2.649 1.445-5.057 2.408-7.706.963-2.648 1.445-5.297 2.167-7.705.963-4.575.24-9.15 0-13.725-.24-3.372 1.445-6.743 2.89-9.632 1.204-2.649 1.685-5.538 2.167-8.428.24-1.445.722-2.89.963-4.334.24-1.445.24-3.131.482-4.575.722-2.89 2.89-5.057 4.093-7.947.482-1.444.963-2.889 1.204-4.334.24-.482.24-1.204.482-1.685.24.722.481 1.444.481 2.167.241 1.444.482 2.648.963 4.093.964 2.89 2.168 5.538 2.65 8.187.24 1.445.48 2.89.962 4.334.482 1.204.964 2.408 1.445 3.853.723 2.649.963 5.538 1.927 8.428.481 1.445 1.444 2.89 1.926 4.334.24.482.481 1.445.963 2.408-.722 5.298 0 11.077 1.204 16.134 1.204 5.297 4.334 10.354 4.816 15.651.24 1.445.24 3.131.481 4.816v1.926c-.722.964-.722 2.408-.722 3.612 0 1.445-.24 2.408-.481 3.853-.723 2.89 2.167 3.371 4.334 3.612-.241 3.612 4.575 3.853 7.465 3.371 1.685-.241 4.093 0 5.297-1.445 1.445-1.685-.24-3.612-1.686-4.575l-3.611-2.889c-.482-1.445-1.445-2.649-1.927-4.094-.24-.722-1.204-4.575-2.408-4.093-.481-2.408-.24-4.816-.24-7.224 0-5.538.481-9.15 0-15.411-.241-2.649 0-5.779-.723-8.669-.24-1.444-.963-4.816-2.167-7.223.24-1.927-.241-4.094-.482-6.02-.24-2.167 0-4.094 0-6.261.963-2.167.723-3.853.963-6.261.482-6.02-.722-11.317-1.204-17.096-.24-2.649-.481-5.298-.963-8.187-.481-2.408-1.204-5.057-1.445-7.706 1.204-.722.241-3.37-.24-4.334-.723-1.204-.723-3.612-2.167-4.093 0-.723.24-1.686.24-2.408.241-2.168.723-4.094.723-6.261v-3.371c0-.482-.241-1.204-.241-1.926.481-.482.963-.964 1.204-1.686.963-1.686 1.445-3.371 2.167-5.057.482-.963.963-1.926 1.445-3.13.24 1.685 1.204 3.853 1.685 5.297.964 1.927 1.927 3.853 3.612 5.298l1.445 1.445c0 .722.482 1.204.482 1.926v2.649c.24 1.926.24 3.853.722 5.779.482 1.685 1.204 3.371 1.445 5.297.24 1.927.722 3.853.963 5.539.24.963.482 2.167.482 3.13v2.167c-.964 2.167-3.371 3.853-3.853 6.261-.24 1.445-.482 2.649-.963 4.093-.482 1.686.963 2.167 2.167.963.722-.722.963-2.407 1.445-3.371h1.204c0 1.445-.964 2.89-1.204 4.335-.964.24-2.167.963-2.408 1.685-.482.963.963.963 1.926.723.722.722 2.649.24 3.853-.482 1.926.482 2.89-2.89 3.612-4.093 2.89-2.408 2.167-5.298 1.444-7.224z"
          stroke="url(#paint6_linear_75_177)" stroke-width="2" mask="url(#a)"/>
    <path d="M87.456 100.959c-.24-.482-.481-1.204-.481-1.686.963-.963.481-3.853.481-4.816 0-1.926.241-3.612.482-5.538.482-4.094.24-7.946 0-11.799 0-1.204-.24-4.575-1.204-6.02-.24-1.926-.963-3.13-1.685-5.057-.241-.963-.241-3.612-.723-5.297.24-1.926-.481-3.853-.963-5.538-.482-1.445-1.204-4.335-2.167-5.539v-1.204c-.241-2.408-1.204-5.779-3.13-7.464-.964-.963-2.409-1.204-3.612-1.927-1.445-.722-2.408-1.204-3.853-1.685-.241-.723-1.204-1.204-1.927-1.686-.722-.481-1.685-.722-2.648-1.204-.723-.481-1.686-.963-2.408-1.445-.723-.481-1.686-1.204-2.408-1.685-.482-.482-1.204-.963-1.686-1.445-.481-1.685-.481-3.612-.481-5.538.24-.482.481-.723.481-1.204 0-.482.241-.963.482-1.686 0-.481 0-.963.24-1.444.482-.241.723-.482.964-.964.481-.963.963-2.408 1.204-3.37 0-.482.24-1.445 0-1.927-.241-.482-.723-.24-.963 0 .24-1.686.24-3.371.24-5.057-.24-3.612-1.444-7.705-5.779-8.187-1.926-.24-4.093-.722-6.02-.481-1.685.24-2.89 1.204-3.852 2.648-.723.241-1.204.482-1.686 1.204-.481.723-.481 1.686-.722 2.408-.241.963-.482 1.927-.482 2.649-.24 1.686 0 3.612 0 5.298-.24-.241-.722-.241-.963.24-.482 1.204 0 2.408.482 3.612.24.963.963 2.167 1.926 2.408 0 .723.482 2.408.482 2.89.24 1.204.24 2.408 0 3.37v.723c-.482.241-1.204.963-1.445 1.204-1.204.963-2.167 1.927-3.612 2.408-.963.482-2.89.723-3.612 1.686-.963-.241-1.926-.482-3.13-.482-2.408 0-4.816.722-7.224 1.686-1.204.481-2.408 1.204-3.371 1.926-.723.482-1.686 1.445-2.168 2.167h-1.204c-1.203 0-2.407.482-3.611 1.204-.482.241-1.686.963-2.168 1.686v-2.649c0-2.89.241-5.297 1.204-7.946.723-2.167 2.168-4.094 3.612-6.02.963 0 1.686-.24 2.408-.963.723-.241 1.686-.723 2.167-1.686.482-.722.723-1.685 1.204-2.408.482-.963.241-1.926 0-2.89-.24-1.203-.481-1.685-1.685-1.203 0-.482-.24-.723-.482-1.204-.481-1.204-1.204-.963-2.408-.723-.722.241-2.648 0-3.13.964-.722 0-1.445 0-1.686.481-.481 0-1.204.24-.963.723-.722.24-.963.722-1.204 1.203-.481.723-.481 1.445-.481 2.168 0 .722-.241 1.444-.482 2.408-.24.722-.24 1.444-.482 2.167-.24.24-.24.963-.24 1.445-.241.481-.482 1.204-.482 1.685-.24.722-.481 1.445-.963 2.167l-2.89 4.334c-1.926 2.89-3.852 6.502-4.575 9.873-.24.963-.963 3.13-.963 4.816-.963 1.445-1.685 4.575 0 5.538.963.482 1.926.723 2.89.964.963.481 2.167.722 3.37.722.723 0 1.686-.241 2.409-.722 2.408 0 5.056-.482 7.464-.723 2.89-.481 5.539-1.204 7.947-2.649.722-.481 1.685-.963 2.407-1.444 1.927 1.926 2.65 5.056 3.612 7.464 1.204 2.89 1.686 6.02 2.89 8.91.24.722.722 1.685 1.204 2.648-.24.723-.24 1.686-.482 2.168-.24.963-.481 1.685-.722 2.648-.482 1.686-.482 3.853-.722 5.78 0 .722 0 1.685-.241 2.407-.241 0-.723-.24-.963.241-.241.24-.482.723-.482 1.204-.24.722-.482 1.686-.963 2.408-.482.963-1.927 2.89-.963 3.853-1.204 2.408-1.686 5.056-2.168 7.705-.481 3.371-1.203 6.502-1.685 9.873-.482 6.742.24 13.484 1.204 19.986.24 2.167.963 4.334 1.204 6.742-1.204 1.926-.723 5.538-.723 7.705 0 1.204-.481 2.649-.722 4.094-.963.963-1.685 4.816-1.685 5.779-.482 2.649-.723 5.057-.723 7.705 0 2.649 0 5.298.241 7.947.24 2.408.963 4.816 1.204 7.464.24 1.445 0 3.131 0 4.575 0 .964-.24 2.168-.482 3.131-1.444.963-2.167 3.13-2.408 5.056-.963 1.445-1.685 2.89-2.89 4.335-1.203 1.444-3.611 2.648-4.093 4.816-1.444 5.779 7.465 3.612 9.632 3.13 2.167-.241 3.13-1.445 3.612-3.371.482 0 .723-.241 1.204-.241 2.649-.722 2.89-2.408 2.167-4.816-.481-1.445-.481-4.093-1.204-5.538 0-2.408 0-4.575.241-6.983.482-2.649 1.445-5.057 2.408-7.706.963-2.648 1.445-5.297 2.167-7.705.963-4.575.24-9.15 0-13.725-.24-3.372 1.445-6.743 2.89-9.632 1.204-2.649 1.685-5.538 2.167-8.428.24-1.445.722-2.89.963-4.334.24-1.445.24-3.131.482-4.575.722-2.89 2.89-5.057 4.093-7.947.482-1.444.963-2.889 1.204-4.334.24-.482.24-1.204.482-1.685.24.722.481 1.444.481 2.167.241 1.444.482 2.648.963 4.093.964 2.89 2.168 5.538 2.65 8.187.24 1.445.48 2.89.962 4.334.482 1.204.964 2.408 1.445 3.853.723 2.649.963 5.538 1.927 8.428.481 1.445 1.444 2.89 1.926 4.334.24.482.481 1.445.963 2.408-.722 5.298 0 11.077 1.204 16.134 1.204 5.297 4.334 10.354 4.816 15.651.24 1.445.24 3.131.481 4.816v1.926c-.722.964-.722 2.408-.722 3.612 0 1.445-.24 2.408-.481 3.853-.723 2.89 2.167 3.371 4.334 3.612-.241 3.612 4.575 3.853 7.465 3.371 1.685-.241 4.093 0 5.297-1.445 1.445-1.685-.24-3.612-1.686-4.575l-3.611-2.889c-.482-1.445-1.445-2.649-1.927-4.094-.24-.722-1.204-4.575-2.408-4.093-.481-2.408-.24-4.816-.24-7.224 0-5.538.481-9.15 0-15.411-.241-2.649 0-5.779-.723-8.669-.24-1.444-.963-4.816-2.167-7.223.24-1.927-.241-4.094-.482-6.02-.24-2.167 0-4.094 0-6.261.963-2.167.723-3.853.963-6.261.482-6.02-.722-11.317-1.204-17.096-.24-2.649-.481-5.298-.963-8.187-.481-2.408-1.204-5.057-1.445-7.706 1.204-.722.241-3.37-.24-4.334-.723-1.204-.723-3.612-2.167-4.093 0-.723.24-1.686.24-2.408.241-2.168.723-4.094.723-6.261v-3.371c0-.482-.241-1.204-.241-1.926.481-.482.963-.964 1.204-1.686.963-1.686 1.445-3.371 2.167-5.057.482-.963.963-1.926 1.445-3.13.24 1.685 1.204 3.853 1.685 5.297.964 1.927 1.927 3.853 3.612 5.298l1.445 1.445c0 .722.482 1.204.482 1.926v2.649c.24 1.926.24 3.853.722 5.779.482 1.685 1.204 3.371 1.445 5.297.24 1.927.722 3.853.963 5.539.24.963.482 2.167.482 3.13v2.167c-.964 2.167-3.371 3.853-3.853 6.261-.24 1.445-.482 2.649-.963 4.093-.482 1.686.963 2.167 2.167.963.722-.722.963-2.407 1.445-3.371h1.204c0 1.445-.964 2.89-1.204 4.335-.964.24-2.167.963-2.408 1.685-.482.963.963.963 1.926.723.722.722 2.649.24 3.853-.482 1.926.482 2.89-2.89 3.612-4.093 2.89-2.408 2.167-5.298 1.444-7.224z"
          stroke="url(#paint7_linear_75_177)" stroke-width="2" mask="url(#a)"/>
    <path d="M87.456 100.959c-.24-.482-.481-1.204-.481-1.686.963-.963.481-3.853.481-4.816 0-1.926.241-3.612.482-5.538.482-4.094.24-7.946 0-11.799 0-1.204-.24-4.575-1.204-6.02-.24-1.926-.963-3.13-1.685-5.057-.241-.963-.241-3.612-.723-5.297.24-1.926-.481-3.853-.963-5.538-.482-1.445-1.204-4.335-2.167-5.539v-1.204c-.241-2.408-1.204-5.779-3.13-7.464-.964-.963-2.409-1.204-3.612-1.927-1.445-.722-2.408-1.204-3.853-1.685-.241-.723-1.204-1.204-1.927-1.686-.722-.481-1.685-.722-2.648-1.204-.723-.481-1.686-.963-2.408-1.445-.723-.481-1.686-1.204-2.408-1.685-.482-.482-1.204-.963-1.686-1.445-.481-1.685-.481-3.612-.481-5.538.24-.482.481-.723.481-1.204 0-.482.241-.963.482-1.686 0-.481 0-.963.24-1.444.482-.241.723-.482.964-.964.481-.963.963-2.408 1.204-3.37 0-.482.24-1.445 0-1.927-.241-.482-.723-.24-.963 0 .24-1.686.24-3.371.24-5.057-.24-3.612-1.444-7.705-5.779-8.187-1.926-.24-4.093-.722-6.02-.481-1.685.24-2.89 1.204-3.852 2.648-.723.241-1.204.482-1.686 1.204-.481.723-.481 1.686-.722 2.408-.241.963-.482 1.927-.482 2.649-.24 1.686 0 3.612 0 5.298-.24-.241-.722-.241-.963.24-.482 1.204 0 2.408.482 3.612.24.963.963 2.167 1.926 2.408 0 .723.482 2.408.482 2.89.24 1.204.24 2.408 0 3.37v.723c-.482.241-1.204.963-1.445 1.204-1.204.963-2.167 1.927-3.612 2.408-.963.482-2.89.723-3.612 1.686-.963-.241-1.926-.482-3.13-.482-2.408 0-4.816.722-7.224 1.686-1.204.481-2.408 1.204-3.371 1.926-.723.482-1.686 1.445-2.168 2.167h-1.204c-1.203 0-2.407.482-3.611 1.204-.482.241-1.686.963-2.168 1.686v-2.649c0-2.89.241-5.297 1.204-7.946.723-2.167 2.168-4.094 3.612-6.02.963 0 1.686-.24 2.408-.963.723-.241 1.686-.723 2.167-1.686.482-.722.723-1.685 1.204-2.408.482-.963.241-1.926 0-2.89-.24-1.203-.481-1.685-1.685-1.203 0-.482-.24-.723-.482-1.204-.481-1.204-1.204-.963-2.408-.723-.722.241-2.648 0-3.13.964-.722 0-1.445 0-1.686.481-.481 0-1.204.24-.963.723-.722.24-.963.722-1.204 1.203-.481.723-.481 1.445-.481 2.168 0 .722-.241 1.444-.482 2.408-.24.722-.24 1.444-.482 2.167-.24.24-.24.963-.24 1.445-.241.481-.482 1.204-.482 1.685-.24.722-.481 1.445-.963 2.167l-2.89 4.334c-1.926 2.89-3.852 6.502-4.575 9.873-.24.963-.963 3.13-.963 4.816-.963 1.445-1.685 4.575 0 5.538.963.482 1.926.723 2.89.964.963.481 2.167.722 3.37.722.723 0 1.686-.241 2.409-.722 2.408 0 5.056-.482 7.464-.723 2.89-.481 5.539-1.204 7.947-2.649.722-.481 1.685-.963 2.407-1.444 1.927 1.926 2.65 5.056 3.612 7.464 1.204 2.89 1.686 6.02 2.89 8.91.24.722.722 1.685 1.204 2.648-.24.723-.24 1.686-.482 2.168-.24.963-.481 1.685-.722 2.648-.482 1.686-.482 3.853-.722 5.78 0 .722 0 1.685-.241 2.407-.241 0-.723-.24-.963.241-.241.24-.482.723-.482 1.204-.24.722-.482 1.686-.963 2.408-.482.963-1.927 2.89-.963 3.853-1.204 2.408-1.686 5.056-2.168 7.705-.481 3.371-1.203 6.502-1.685 9.873-.482 6.742.24 13.484 1.204 19.986.24 2.167.963 4.334 1.204 6.742-1.204 1.926-.723 5.538-.723 7.705 0 1.204-.481 2.649-.722 4.094-.963.963-1.685 4.816-1.685 5.779-.482 2.649-.723 5.057-.723 7.705 0 2.649 0 5.298.241 7.947.24 2.408.963 4.816 1.204 7.464.24 1.445 0 3.131 0 4.575 0 .964-.24 2.168-.482 3.131-1.444.963-2.167 3.13-2.408 5.056-.963 1.445-1.685 2.89-2.89 4.335-1.203 1.444-3.611 2.648-4.093 4.816-1.444 5.779 7.465 3.612 9.632 3.13 2.167-.241 3.13-1.445 3.612-3.371.482 0 .723-.241 1.204-.241 2.649-.722 2.89-2.408 2.167-4.816-.481-1.445-.481-4.093-1.204-5.538 0-2.408 0-4.575.241-6.983.482-2.649 1.445-5.057 2.408-7.706.963-2.648 1.445-5.297 2.167-7.705.963-4.575.24-9.15 0-13.725-.24-3.372 1.445-6.743 2.89-9.632 1.204-2.649 1.685-5.538 2.167-8.428.24-1.445.722-2.89.963-4.334.24-1.445.24-3.131.482-4.575.722-2.89 2.89-5.057 4.093-7.947.482-1.444.963-2.889 1.204-4.334.24-.482.24-1.204.482-1.685.24.722.481 1.444.481 2.167.241 1.444.482 2.648.963 4.093.964 2.89 2.168 5.538 2.65 8.187.24 1.445.48 2.89.962 4.334.482 1.204.964 2.408 1.445 3.853.723 2.649.963 5.538 1.927 8.428.481 1.445 1.444 2.89 1.926 4.334.24.482.481 1.445.963 2.408-.722 5.298 0 11.077 1.204 16.134 1.204 5.297 4.334 10.354 4.816 15.651.24 1.445.24 3.131.481 4.816v1.926c-.722.964-.722 2.408-.722 3.612 0 1.445-.24 2.408-.481 3.853-.723 2.89 2.167 3.371 4.334 3.612-.241 3.612 4.575 3.853 7.465 3.371 1.685-.241 4.093 0 5.297-1.445 1.445-1.685-.24-3.612-1.686-4.575l-3.611-2.889c-.482-1.445-1.445-2.649-1.927-4.094-.24-.722-1.204-4.575-2.408-4.093-.481-2.408-.24-4.816-.24-7.224 0-5.538.481-9.15 0-15.411-.241-2.649 0-5.779-.723-8.669-.24-1.444-.963-4.816-2.167-7.223.24-1.927-.241-4.094-.482-6.02-.24-2.167 0-4.094 0-6.261.963-2.167.723-3.853.963-6.261.482-6.02-.722-11.317-1.204-17.096-.24-2.649-.481-5.298-.963-8.187-.481-2.408-1.204-5.057-1.445-7.706 1.204-.722.241-3.37-.24-4.334-.723-1.204-.723-3.612-2.167-4.093 0-.723.24-1.686.24-2.408.241-2.168.723-4.094.723-6.261v-3.371c0-.482-.241-1.204-.241-1.926.481-.482.963-.964 1.204-1.686.963-1.686 1.445-3.371 2.167-5.057.482-.963.963-1.926 1.445-3.13.24 1.685 1.204 3.853 1.685 5.297.964 1.927 1.927 3.853 3.612 5.298l1.445 1.445c0 .722.482 1.204.482 1.926v2.649c.24 1.926.24 3.853.722 5.779.482 1.685 1.204 3.371 1.445 5.297.24 1.927.722 3.853.963 5.539.24.963.482 2.167.482 3.13v2.167c-.964 2.167-3.371 3.853-3.853 6.261-.24 1.445-.482 2.649-.963 4.093-.482 1.686.963 2.167 2.167.963.722-.722.963-2.407 1.445-3.371h1.204c0 1.445-.964 2.89-1.204 4.335-.964.24-2.167.963-2.408 1.685-.482.963.963.963 1.926.723.722.722 2.649.24 3.853-.482 1.926.482 2.89-2.89 3.612-4.093 2.89-2.408 2.167-5.298 1.444-7.224z"
          stroke="#FF4500" stroke-width="2" mask="url(#a)"/>
    <defs>
        <linearGradient id="paint0_linear_75_177" x1="0" y1="0" x2="121.462" y2="22.787" gradientUnits="userSpaceOnUse">
            <stop stop-color="#FFA500"/>
            <stop offset="1" stop-color="#FFA500"/>
        </linearGradient>
        <linearGradient id="paint1_linear_75_177" x1="0" y1="0" x2="121.462" y2="22.787" gradientUnits="userSpaceOnUse">
            <stop stop-color="#FFA500"/>
            <stop offset="1" stop-color="#FFA500"/>
        </linearGradient>
        <linearGradient id="paint2_linear_75_177" x1="0" y1="0" x2="125.639" y2="27.211" gradientUnits="userSpaceOnUse">
            <stop stop-color="#FFA500"/>
            <stop offset="1" stop-color="#FFA500"/>
        </linearGradient>
        <linearGradient id="paint3_linear_75_177" x1="0" y1="0" x2="125.639" y2="27.211" gradientUnits="userSpaceOnUse">
            <stop stop-color="#FFA500"/>
            <stop offset=".427" stop-color="#FFA500"/>
            <stop offset="1" stop-color="#FF4500"/>
        </linearGradient>
        <linearGradient id="paint4_linear_75_177" x1="0" y1="0" x2="125.639" y2="27.211" gradientUnits="userSpaceOnUse">
            <stop stop-color="#FFA500"/>
            <stop offset="1" stop-color="#FFA500"/>
        </linearGradient>
        <linearGradient id="paint5_linear_75_177" x1="0" y1="0" x2="121.462" y2="22.787" gradientUnits="userSpaceOnUse">
            <stop stop-color="#FFA500"/>
            <stop offset="1" stop-color="#FFA500"/>
        </linearGradient>
        <linearGradient id="paint6_linear_75_177" x1="0" y1="0" x2="125.639" y2="27.211" gradientUnits="userSpaceOnUse">
            <stop stop-color="#FFA500"/>
            <stop offset="1" stop-color="#FFA500"/>
        </linearGradient>
        <linearGradient id="paint7_linear_75_177" x1="0" y1="0" x2="125.639" y2="27.211" gradientUnits="userSpaceOnUse">
            <stop stop-color="#FFA500"/>
            <stop offset="1" stop-color="#FFA500"/>
        </linearGradient>
    </defs>
</svg>