<svg width="97" height="200" fill="none" xmlns="http://www.w3.org/2000/svg">
    <path d="M1.035 37.13c.549 1.207 2.194 1.646 3.291 2.085 3.071 1.097 6.143 2.194 9.324 2.853 3.18.658 6.362.768 9.543.987.658.549 1.535 1.537 1.755 1.866.768.987 1.426 1.975 1.755 3.182.768 2.304 1.536 4.608 2.523 6.803.22.439.329.878.548 1.317-.439.658.22 2.304.439 2.743.439 1.207 1.316 2.195 1.426 3.292.11 1.207.768 1.975 1.097 3.072.22.55.22 1.207.329 1.756 0 .549.329 1.317.22 1.756-.22.658-.659.987-.55 1.755 0 .22.11.55.22.878-.548.22-1.097.44-1.316 1.207-.22.659.11 2.085-.33 2.634-.219.22-.657.22-.877.549-.219.219-.329.658-.548.877-.549.659-1.097.44-1.426 1.317a4.972 4.972 0 00-.33 1.756c-.657.549-1.425 1.097-1.974 1.646-.767.768-1.425 1.755-2.084 2.633-.658.878-.987 1.975-1.535 2.963-.44.878-1.207 1.317-1.646 2.085-.438.658-.877 2.304.11 2.743-.658 1.427-1.097 3.182-1.536 4.17-1.316 3.62-.658 8.12.11 11.851.439 1.975.658 3.621.878 5.706.11 1.097.658 2.194.987 3.401-1.865.439-.987 5.267-.549 6.474.44 1.317.44 2.744.768 4.06.33 1.317.878 1.646 1.755 1.756.549 3.731.987 7.352.878 11.192-.11 4.39-.988 8.34-1.097 12.619-.33 8.34 2.961 17.009 4.607 25.019.658 2.853 1.865 6.474 2.303 9.766-1.206 1.207-.877 3.072-1.097 4.718-.219 1.975-1.426 4.828.44 6.365 1.316 1.097 4.497.658 6.032.219 1.865-.549 2.633-1.646 2.633-3.182 2.852-.11 6.8-.878 4.607-4.06-.768-1.207-2.413-1.756-3.291-3.073-.877-1.207-1.316-3.072-2.742-3.511-.988-2.963-1.097-6.584-1.207-9.217-.439-8.669-.439-17.008.439-25.677.439-4.28-.11-8.669 1.316-12.948 1.207-3.731 2.194-6.584 1.646-10.315.877-.658.987-1.865.767-3.621-.219-1.536.768-6.145-1.316-6.364.439-2.305 1.207-4.609 1.316-6.474 3.291 2.633 7.46 4.169 10.97 6.254.11 1.866.767 2.524 3.18 3.731 1.426.768 3.51 1.866 5.046 1.207.878.659 1.755 1.207 2.413 1.536 3.181 1.537 6.143 3.731 8.885 5.926 1.536 1.317 3.95 2.962 5.704 4.828-.548 1.756-1.645 3.511-1.974 5.267-.658 2.853-1.097 5.816-1.426 8.778-.549 5.926 0 11.851.11 17.667 0 1.975.11 4.718-.44 7.023-1.096.219-1.974 1.316-3.18 1.755-1.865.659-3.181.329-3.95 2.524-1.315 3.841 1.098 7.132 3.511 9.766.548.549.987.988 1.536 1.426.548 2.195 1.206 4.28 2.632 6.145 1.536 2.085 3.291 4.28 5.814 5.048 3.839 1.207 4.497-.768 2.852-3.731-1.755-3.072-1.097-5.267-.33-8.559.659-2.853.769-5.047-.109-7.681.22-2.304-.11-5.157 0-6.693.549-6.145 1.755-12.29 2.633-18.325.438-3.073 1.535-6.035 2.413-9.108.768-2.633 1.097-5.048 1.316-7.791 1.426-1.755 2.084-4.828 2.084-6.913 0-3.182-1.645-5.157-3.18-7.681-1.427-2.304-2.743-4.718-4.608-6.693-2.961-3.292-6.69-5.926-9.982-8.998.11-.659-.219-1.427-.877-2.305-.878-1.207-1.755-2.962-3.181-3.511-.987-.329-1.755-.11-2.742-.768-.768-.439-1.207-1.097-1.865-1.646-1.207-.987-2.304-2.085-3.51-3.182-.22-.44-.33-.988-.44-1.427 0-2.523.66-4.938.879-7.352.11-1.207.438-2.523.438-3.73 0-.549.11-1.866 0-2.744.549-.987.768-2.194.768-3.182-.11-1.426-.439-2.853-.329-4.28.11-1.535.11-3.072.33-4.498.218-1.427.218-2.963.547-4.39.11-.767.44-1.426.549-2.194.11-.658.11-1.317.11-1.975.438-.659.877-1.317 1.206-1.975.439-.988 1.097-1.975 1.426-2.963.33-1.097.22-2.524.22-3.621-.11-2.085-.988-3.95-2.304-5.596 1.316-.878 3.071-1.207 4.607-1.098 2.523 0 5.046-.11 7.569-.329 1.316-.11 2.523-.11 3.839-.329 1.207-.22 2.413-.658 3.51-.878 1.207-.329 2.413-.22 3.62-.439 1.097-.22 2.303-.658 3.4-1.097 1.426-.549 4.388-.988 5.375-2.414.878-.22 1.536-.549 1.755-1.756.22-1.207-.329-2.414-.439-3.62-.438-4.61-.987-9.218-2.413-13.717-1.206-4.06-2.194-8.12-4.278-11.85-.22-1.647-2.523-3.183-3.62-4.06-1.535-1.318-2.851-2.964-4.497-4.17-.987-.659-2.194-.44-2.742.658-.878.329-1.755.329-2.523.987-1.426 1.098-1.097 1.975-.548 2.853-1.536 1.536 1.316 2.414 2.522 3.073.988.548 1.426.768 2.523.878.988.11 1.865.438 2.633.877.768.33 1.426.769 2.303.878.22.549.33 1.207.44 1.646.219.659.438 1.427.657 2.085.33 1.536.33 3.182.33 4.828.109 3.402-.33 6.803-.44 10.205 0 1.317-.219 2.963.11 4.39-1.864.767-3.949.877-5.923.767-1.097 0-2.084-.22-3.181-.11s-2.194.33-3.29.44c-.659.11-1.207.11-1.865.329-.11 0-.22.11-.33.11-1.316-.22-2.413-.769-3.73-1.317a17.21 17.21 0 00-4.716-.988c-1.755-.22-3.51-.11-5.155-.22-1.755-.11-3.29.55-4.936.44-.987 0-1.865.11-2.852 0-.549-.11-1.097-.22-1.536-.44.11-.658.22-1.316.33-1.865.109-.548.219-1.097.438-1.646 0-.11.11-.11.11-.22.329.22.658.44.877.66 1.097.767 2.413 1.206 3.73 1.535 1.206.22 2.523-.987 2.523-2.304.329 0 .658 0 .877-.11.439-.22.439-.548.439-.987.329.11.658 0 .877-.11.22-.11.33-.658.33-1.097.438 0 .987 0 1.316-.11.877-.22.987-.878.877-1.646-.11-.768-.22-1.426-.22-2.195 0-.438.11-1.097.11-1.645 1.317-.22 1.975-2.415 2.194-3.402.33-1.097.988-3.73.22-4.938.987-1.756 1.206-3.511-.33-5.157-1.425-1.536-3.51-2.085-5.155-3.292-1.645-1.317-2.962-2.524-5.155-3.073C51.383.59 49.19.37 47.105.7c-1.974.329-3.62 1.207-5.045 2.414-.44-.22-.988-.22-1.536 0 0 .22-.22.439-.33.658-2.632-2.853-7.239-.11-8.116 3.182-.33 1.097-.33 2.304-.33 3.402.11-.768.55-1.975 1.207-2.524-.548 1.426-.438 2.963-.877 4.499-.439 1.426-1.207 2.853-1.426 4.28-.11.767-.33 1.865-.11 2.633 0-.768.33-1.427.878-1.975-.659 1.865-.44 3.95-.44 5.267.55 1.755.878 2.743 1.866 3.84.987.988 2.303 1.098 3.4 1.756.22.11.439.33.658.439-.877.658-1.645 1.646-2.523 2.194-.11 0-.11.11-.22.11-1.535-.11-3.29.22-4.826.22-1.755-.11-3.4-.33-5.155-.33-1.755 0-3.181.55-4.936.988-1.645.549-3.4.658-5.046.878-1.645.22-3.29.11-4.607-.878.22-1.097.658-2.633.987-3.84.659-2.853 1.646-5.926 2.962-8.56 1.097-2.413 2.194-5.266 4.059-7.242.987.22 2.413 0 3.18-.11.44-.109 2.085-.438 3.072-.658.439.22.987.22 1.645 0 .44-.11.878-.329 1.317-.439.438-.11.987 0 1.535-.219.11-.439-.329-.988-.768-1.207.768-.988.22-1.865-.658-2.853-.768-.768-1.755-2.085-2.742-2.304-.658-.22-1.207.22-1.645.658-1.207-.11-3.181 1.207-4.059 1.646-1.535.658-2.852 1.207-3.949 2.524-.438.548-1.206 1.426-1.316 2.194-3.071 2.524-5.155 6.474-7.13 9.986-1.097 1.865-2.413 3.511-3.51 5.377-.987 1.755-1.426 3.84-2.084 5.815-.768 1.866-.658 3.402.548 4.609zM35.917 21c-.22-1.537.329-2.963.329-4.5.11.44.439 1.098.987 1.427-.548-1.097-.658-2.414-.329-3.621.11-.658.549-1.317.987-1.756.22-.11.44-.22.768-.329.11.768.33 1.427.878 1.756-.11 1.317-.33 2.524-.11 3.84.22 1.427 1.097 2.524 1.755 3.731-.22.878-.658 1.866-.878 2.305-.329.987-.987 1.645-1.535 2.414-.11-.549-.549-1.207-.878-1.646-.987-1.098-1.755-2.085-1.974-3.621z"
          fill="url(#paint0_linear_75_173)"/>
    <path d="M1.035 37.13c.549 1.207 2.194 1.646 3.291 2.085 3.071 1.097 6.143 2.194 9.324 2.853 3.18.658 6.362.768 9.543.987.658.549 1.535 1.537 1.755 1.866.768.987 1.426 1.975 1.755 3.182.768 2.304 1.536 4.608 2.523 6.803.22.439.329.878.548 1.317-.439.658.22 2.304.439 2.743.439 1.207 1.316 2.195 1.426 3.292.11 1.207.768 1.975 1.097 3.072.22.55.22 1.207.329 1.756 0 .549.329 1.317.22 1.756-.22.658-.659.987-.55 1.755 0 .22.11.55.22.878-.548.22-1.097.44-1.316 1.207-.22.659.11 2.085-.33 2.634-.219.22-.657.22-.877.549-.219.219-.329.658-.548.877-.549.659-1.097.44-1.426 1.317a4.972 4.972 0 00-.33 1.756c-.657.549-1.425 1.097-1.974 1.646-.767.768-1.425 1.755-2.084 2.633-.658.878-.987 1.975-1.535 2.963-.44.878-1.207 1.317-1.646 2.085-.438.658-.877 2.304.11 2.743-.658 1.427-1.097 3.182-1.536 4.17-1.316 3.62-.658 8.12.11 11.851.439 1.975.658 3.621.878 5.706.11 1.097.658 2.194.987 3.401-1.865.439-.987 5.267-.549 6.474.44 1.317.44 2.744.768 4.06.33 1.317.878 1.646 1.755 1.756.549 3.731.987 7.352.878 11.192-.11 4.39-.988 8.34-1.097 12.619-.33 8.34 2.961 17.009 4.607 25.019.658 2.853 1.865 6.474 2.303 9.766-1.206 1.207-.877 3.072-1.097 4.718-.219 1.975-1.426 4.828.44 6.365 1.316 1.097 4.497.658 6.032.219 1.865-.549 2.633-1.646 2.633-3.182 2.852-.11 6.8-.878 4.607-4.06-.768-1.207-2.413-1.756-3.291-3.073-.877-1.207-1.316-3.072-2.742-3.511-.988-2.963-1.097-6.584-1.207-9.217-.439-8.669-.439-17.008.439-25.677.439-4.28-.11-8.669 1.316-12.948 1.207-3.731 2.194-6.584 1.646-10.315.877-.658.987-1.865.767-3.621-.219-1.536.768-6.145-1.316-6.364.439-2.305 1.207-4.609 1.316-6.474 3.291 2.633 7.46 4.169 10.97 6.254.11 1.866.767 2.524 3.18 3.731 1.426.768 3.51 1.866 5.046 1.207.878.659 1.755 1.207 2.413 1.536 3.181 1.537 6.143 3.731 8.885 5.926 1.536 1.317 3.95 2.962 5.704 4.828-.548 1.756-1.645 3.511-1.974 5.267-.658 2.853-1.097 5.816-1.426 8.778-.549 5.926 0 11.851.11 17.667 0 1.975.11 4.718-.44 7.023-1.096.219-1.974 1.316-3.18 1.755-1.865.659-3.181.329-3.95 2.524-1.315 3.841 1.098 7.132 3.511 9.766.548.549.987.988 1.536 1.426.548 2.195 1.206 4.28 2.632 6.145 1.536 2.085 3.291 4.28 5.814 5.048 3.839 1.207 4.497-.768 2.852-3.731-1.755-3.072-1.097-5.267-.33-8.559.659-2.853.769-5.047-.109-7.681.22-2.304-.11-5.157 0-6.693.549-6.145 1.755-12.29 2.633-18.325.438-3.073 1.535-6.035 2.413-9.108.768-2.633 1.097-5.048 1.316-7.791 1.426-1.755 2.084-4.828 2.084-6.913 0-3.182-1.645-5.157-3.18-7.681-1.427-2.304-2.743-4.718-4.608-6.693-2.961-3.292-6.69-5.926-9.982-8.998.11-.659-.219-1.427-.877-2.305-.878-1.207-1.755-2.962-3.181-3.511-.987-.329-1.755-.11-2.742-.768-.768-.439-1.207-1.097-1.865-1.646-1.207-.987-2.304-2.085-3.51-3.182-.22-.44-.33-.988-.44-1.427 0-2.523.66-4.938.879-7.352.11-1.207.438-2.523.438-3.73 0-.549.11-1.866 0-2.744.549-.987.768-2.194.768-3.182-.11-1.426-.439-2.853-.329-4.28.11-1.535.11-3.072.33-4.498.218-1.427.218-2.963.547-4.39.11-.767.44-1.426.549-2.194.11-.658.11-1.317.11-1.975.438-.659.877-1.317 1.206-1.975.439-.988 1.097-1.975 1.426-2.963.33-1.097.22-2.524.22-3.621-.11-2.085-.988-3.95-2.304-5.596 1.316-.878 3.071-1.207 4.607-1.098 2.523 0 5.046-.11 7.569-.329 1.316-.11 2.523-.11 3.839-.329 1.207-.22 2.413-.658 3.51-.878 1.207-.329 2.413-.22 3.62-.439 1.097-.22 2.303-.658 3.4-1.097 1.426-.549 4.388-.988 5.375-2.414.878-.22 1.536-.549 1.755-1.756.22-1.207-.329-2.414-.439-3.62-.438-4.61-.987-9.218-2.413-13.717-1.206-4.06-2.194-8.12-4.278-11.85-.22-1.647-2.523-3.183-3.62-4.06-1.535-1.318-2.851-2.964-4.497-4.17-.987-.659-2.194-.44-2.742.658-.878.329-1.755.329-2.523.987-1.426 1.098-1.097 1.975-.548 2.853-1.536 1.536 1.316 2.414 2.522 3.073.988.548 1.426.768 2.523.878.988.11 1.865.438 2.633.877.768.33 1.426.769 2.303.878.22.549.33 1.207.44 1.646.219.659.438 1.427.657 2.085.33 1.536.33 3.182.33 4.828.109 3.402-.33 6.803-.44 10.205 0 1.317-.219 2.963.11 4.39-1.864.767-3.949.877-5.923.767-1.097 0-2.084-.22-3.181-.11s-2.194.33-3.29.44c-.659.11-1.207.11-1.865.329-.11 0-.22.11-.33.11-1.316-.22-2.413-.769-3.73-1.317a17.21 17.21 0 00-4.716-.988c-1.755-.22-3.51-.11-5.155-.22-1.755-.11-3.29.55-4.936.44-.987 0-1.865.11-2.852 0-.549-.11-1.097-.22-1.536-.44.11-.658.22-1.316.33-1.865.109-.548.219-1.097.438-1.646 0-.11.11-.11.11-.22.329.22.658.44.877.66 1.097.767 2.413 1.206 3.73 1.535 1.206.22 2.523-.987 2.523-2.304.329 0 .658 0 .877-.11.439-.22.439-.548.439-.987.329.11.658 0 .877-.11.22-.11.33-.658.33-1.097.438 0 .987 0 1.316-.11.877-.22.987-.878.877-1.646-.11-.768-.22-1.426-.22-2.195 0-.438.11-1.097.11-1.645 1.317-.22 1.975-2.415 2.194-3.402.33-1.097.988-3.73.22-4.938.987-1.756 1.206-3.511-.33-5.157-1.425-1.536-3.51-2.085-5.155-3.292-1.645-1.317-2.962-2.524-5.155-3.073C51.383.59 49.19.37 47.105.7c-1.974.329-3.62 1.207-5.045 2.414-.44-.22-.988-.22-1.536 0 0 .22-.22.439-.33.658-2.632-2.853-7.239-.11-8.116 3.182-.33 1.097-.33 2.304-.33 3.402.11-.768.55-1.975 1.207-2.524-.548 1.426-.438 2.963-.877 4.499-.439 1.426-1.207 2.853-1.426 4.28-.11.767-.33 1.865-.11 2.633 0-.768.33-1.427.878-1.975-.659 1.865-.44 3.95-.44 5.267.55 1.755.878 2.743 1.866 3.84.987.988 2.303 1.098 3.4 1.756.22.11.439.33.658.439-.877.658-1.645 1.646-2.523 2.194-.11 0-.11.11-.22.11-1.535-.11-3.29.22-4.826.22-1.755-.11-3.4-.33-5.155-.33-1.755 0-3.181.55-4.936.988-1.645.549-3.4.658-5.046.878-1.645.22-3.29.11-4.607-.878.22-1.097.658-2.633.987-3.84.659-2.853 1.646-5.926 2.962-8.56 1.097-2.413 2.194-5.266 4.059-7.242.987.22 2.413 0 3.18-.11.44-.109 2.085-.438 3.072-.658.439.22.987.22 1.645 0 .44-.11.878-.329 1.317-.439.438-.11.987 0 1.535-.219.11-.439-.329-.988-.768-1.207.768-.988.22-1.865-.658-2.853-.768-.768-1.755-2.085-2.742-2.304-.658-.22-1.207.22-1.645.658-1.207-.11-3.181 1.207-4.059 1.646-1.535.658-2.852 1.207-3.949 2.524-.438.548-1.206 1.426-1.316 2.194-3.071 2.524-5.155 6.474-7.13 9.986-1.097 1.865-2.413 3.511-3.51 5.377-.987 1.755-1.426 3.84-2.084 5.815-.768 1.866-.658 3.402.548 4.609zM35.917 21c-.22-1.537.329-2.963.329-4.5.11.44.439 1.098.987 1.427-.548-1.097-.658-2.414-.329-3.621.11-.658.549-1.317.987-1.756.22-.11.44-.22.768-.329.11.768.33 1.427.878 1.756-.11 1.317-.33 2.524-.11 3.84.22 1.427 1.097 2.524 1.755 3.731-.22.878-.658 1.866-.878 2.305-.329.987-.987 1.645-1.535 2.414-.11-.549-.549-1.207-.878-1.646-.987-1.098-1.755-2.085-1.974-3.621z"
          fill="url(#paint1_linear_75_173)"/>
    <path d="M1.035 37.13c.549 1.207 2.194 1.646 3.291 2.085 3.071 1.097 6.143 2.194 9.324 2.853 3.18.658 6.362.768 9.543.987.658.549 1.535 1.537 1.755 1.866.768.987 1.426 1.975 1.755 3.182.768 2.304 1.536 4.608 2.523 6.803.22.439.329.878.548 1.317-.439.658.22 2.304.439 2.743.439 1.207 1.316 2.195 1.426 3.292.11 1.207.768 1.975 1.097 3.072.22.55.22 1.207.329 1.756 0 .549.329 1.317.22 1.756-.22.658-.659.987-.55 1.755 0 .22.11.55.22.878-.548.22-1.097.44-1.316 1.207-.22.659.11 2.085-.33 2.634-.219.22-.657.22-.877.549-.219.219-.329.658-.548.877-.549.659-1.097.44-1.426 1.317a4.972 4.972 0 00-.33 1.756c-.657.549-1.425 1.097-1.974 1.646-.767.768-1.425 1.755-2.084 2.633-.658.878-.987 1.975-1.535 2.963-.44.878-1.207 1.317-1.646 2.085-.438.658-.877 2.304.11 2.743-.658 1.427-1.097 3.182-1.536 4.17-1.316 3.62-.658 8.12.11 11.851.439 1.975.658 3.621.878 5.706.11 1.097.658 2.194.987 3.401-1.865.439-.987 5.267-.549 6.474.44 1.317.44 2.744.768 4.06.33 1.317.878 1.646 1.755 1.756.549 3.731.987 7.352.878 11.192-.11 4.39-.988 8.34-1.097 12.619-.33 8.34 2.961 17.009 4.607 25.019.658 2.853 1.865 6.474 2.303 9.766-1.206 1.207-.877 3.072-1.097 4.718-.219 1.975-1.426 4.828.44 6.365 1.316 1.097 4.497.658 6.032.219 1.865-.549 2.633-1.646 2.633-3.182 2.852-.11 6.8-.878 4.607-4.06-.768-1.207-2.413-1.756-3.291-3.073-.877-1.207-1.316-3.072-2.742-3.511-.988-2.963-1.097-6.584-1.207-9.217-.439-8.669-.439-17.008.439-25.677.439-4.28-.11-8.669 1.316-12.948 1.207-3.731 2.194-6.584 1.646-10.315.877-.658.987-1.865.767-3.621-.219-1.536.768-6.145-1.316-6.364.439-2.305 1.207-4.609 1.316-6.474 3.291 2.633 7.46 4.169 10.97 6.254.11 1.866.767 2.524 3.18 3.731 1.426.768 3.51 1.866 5.046 1.207.878.659 1.755 1.207 2.413 1.536 3.181 1.537 6.143 3.731 8.885 5.926 1.536 1.317 3.95 2.962 5.704 4.828-.548 1.756-1.645 3.511-1.974 5.267-.658 2.853-1.097 5.816-1.426 8.778-.549 5.926 0 11.851.11 17.667 0 1.975.11 4.718-.44 7.023-1.096.219-1.974 1.316-3.18 1.755-1.865.659-3.181.329-3.95 2.524-1.315 3.841 1.098 7.132 3.511 9.766.548.549.987.988 1.536 1.426.548 2.195 1.206 4.28 2.632 6.145 1.536 2.085 3.291 4.28 5.814 5.048 3.839 1.207 4.497-.768 2.852-3.731-1.755-3.072-1.097-5.267-.33-8.559.659-2.853.769-5.047-.109-7.681.22-2.304-.11-5.157 0-6.693.549-6.145 1.755-12.29 2.633-18.325.438-3.073 1.535-6.035 2.413-9.108.768-2.633 1.097-5.048 1.316-7.791 1.426-1.755 2.084-4.828 2.084-6.913 0-3.182-1.645-5.157-3.18-7.681-1.427-2.304-2.743-4.718-4.608-6.693-2.961-3.292-6.69-5.926-9.982-8.998.11-.659-.219-1.427-.877-2.305-.878-1.207-1.755-2.962-3.181-3.511-.987-.329-1.755-.11-2.742-.768-.768-.439-1.207-1.097-1.865-1.646-1.207-.987-2.304-2.085-3.51-3.182-.22-.44-.33-.988-.44-1.427 0-2.523.66-4.938.879-7.352.11-1.207.438-2.523.438-3.73 0-.549.11-1.866 0-2.744.549-.987.768-2.194.768-3.182-.11-1.426-.439-2.853-.329-4.28.11-1.535.11-3.072.33-4.498.218-1.427.218-2.963.547-4.39.11-.767.44-1.426.549-2.194.11-.658.11-1.317.11-1.975.438-.659.877-1.317 1.206-1.975.439-.988 1.097-1.975 1.426-2.963.33-1.097.22-2.524.22-3.621-.11-2.085-.988-3.95-2.304-5.596 1.316-.878 3.071-1.207 4.607-1.098 2.523 0 5.046-.11 7.569-.329 1.316-.11 2.523-.11 3.839-.329 1.207-.22 2.413-.658 3.51-.878 1.207-.329 2.413-.22 3.62-.439 1.097-.22 2.303-.658 3.4-1.097 1.426-.549 4.388-.988 5.375-2.414.878-.22 1.536-.549 1.755-1.756.22-1.207-.329-2.414-.439-3.62-.438-4.61-.987-9.218-2.413-13.717-1.206-4.06-2.194-8.12-4.278-11.85-.22-1.647-2.523-3.183-3.62-4.06-1.535-1.318-2.851-2.964-4.497-4.17-.987-.659-2.194-.44-2.742.658-.878.329-1.755.329-2.523.987-1.426 1.098-1.097 1.975-.548 2.853-1.536 1.536 1.316 2.414 2.522 3.073.988.548 1.426.768 2.523.878.988.11 1.865.438 2.633.877.768.33 1.426.769 2.303.878.22.549.33 1.207.44 1.646.219.659.438 1.427.657 2.085.33 1.536.33 3.182.33 4.828.109 3.402-.33 6.803-.44 10.205 0 1.317-.219 2.963.11 4.39-1.864.767-3.949.877-5.923.767-1.097 0-2.084-.22-3.181-.11s-2.194.33-3.29.44c-.659.11-1.207.11-1.865.329-.11 0-.22.11-.33.11-1.316-.22-2.413-.769-3.73-1.317a17.21 17.21 0 00-4.716-.988c-1.755-.22-3.51-.11-5.155-.22-1.755-.11-3.29.55-4.936.44-.987 0-1.865.11-2.852 0-.549-.11-1.097-.22-1.536-.44.11-.658.22-1.316.33-1.865.109-.548.219-1.097.438-1.646 0-.11.11-.11.11-.22.329.22.658.44.877.66 1.097.767 2.413 1.206 3.73 1.535 1.206.22 2.523-.987 2.523-2.304.329 0 .658 0 .877-.11.439-.22.439-.548.439-.987.329.11.658 0 .877-.11.22-.11.33-.658.33-1.097.438 0 .987 0 1.316-.11.877-.22.987-.878.877-1.646-.11-.768-.22-1.426-.22-2.195 0-.438.11-1.097.11-1.645 1.317-.22 1.975-2.415 2.194-3.402.33-1.097.988-3.73.22-4.938.987-1.756 1.206-3.511-.33-5.157-1.425-1.536-3.51-2.085-5.155-3.292-1.645-1.317-2.962-2.524-5.155-3.073C51.383.59 49.19.37 47.105.7c-1.974.329-3.62 1.207-5.045 2.414-.44-.22-.988-.22-1.536 0 0 .22-.22.439-.33.658-2.632-2.853-7.239-.11-8.116 3.182-.33 1.097-.33 2.304-.33 3.402.11-.768.55-1.975 1.207-2.524-.548 1.426-.438 2.963-.877 4.499-.439 1.426-1.207 2.853-1.426 4.28-.11.767-.33 1.865-.11 2.633 0-.768.33-1.427.878-1.975-.659 1.865-.44 3.95-.44 5.267.55 1.755.878 2.743 1.866 3.84.987.988 2.303 1.098 3.4 1.756.22.11.439.33.658.439-.877.658-1.645 1.646-2.523 2.194-.11 0-.11.11-.22.11-1.535-.11-3.29.22-4.826.22-1.755-.11-3.4-.33-5.155-.33-1.755 0-3.181.55-4.936.988-1.645.549-3.4.658-5.046.878-1.645.22-3.29.11-4.607-.878.22-1.097.658-2.633.987-3.84.659-2.853 1.646-5.926 2.962-8.56 1.097-2.413 2.194-5.266 4.059-7.242.987.22 2.413 0 3.18-.11.44-.109 2.085-.438 3.072-.658.439.22.987.22 1.645 0 .44-.11.878-.329 1.317-.439.438-.11.987 0 1.535-.219.11-.439-.329-.988-.768-1.207.768-.988.22-1.865-.658-2.853-.768-.768-1.755-2.085-2.742-2.304-.658-.22-1.207.22-1.645.658-1.207-.11-3.181 1.207-4.059 1.646-1.535.658-2.852 1.207-3.949 2.524-.438.548-1.206 1.426-1.316 2.194-3.071 2.524-5.155 6.474-7.13 9.986-1.097 1.865-2.413 3.511-3.51 5.377-.987 1.755-1.426 3.84-2.084 5.815-.768 1.866-.658 3.402.548 4.609zM35.917 21c-.22-1.537.329-2.963.329-4.5.11.44.439 1.098.987 1.427-.548-1.097-.658-2.414-.329-3.621.11-.658.549-1.317.987-1.756.22-.11.44-.22.768-.329.11.768.33 1.427.878 1.756-.11 1.317-.33 2.524-.11 3.84.22 1.427 1.097 2.524 1.755 3.731-.22.878-.658 1.866-.878 2.305-.329.987-.987 1.645-1.535 2.414-.11-.549-.549-1.207-.878-1.646-.987-1.098-1.755-2.085-1.974-3.621z"
          fill="url(#paint2_linear_75_173)"/>
    <defs>
        <linearGradient id="paint0_linear_75_173" x1="0" y1="0" x2="132.008" y2="27.096" gradientUnits="userSpaceOnUse">
            <stop stop-color="#FF4500"/>
            <stop offset="1" stop-color="#FF4500"/>
        </linearGradient>
        <linearGradient id="paint1_linear_75_173" x1="0" y1="0" x2="136.259" y2="32.288" gradientUnits="userSpaceOnUse">
            <stop stop-color="#FF4500"/>
            <stop offset=".427" stop-color="#FF4500"/>
            <stop offset="1" stop-color="#FF4500"/>
        </linearGradient>
        <linearGradient id="paint2_linear_75_173" x1="0" y1="0" x2="136.259" y2="32.288" gradientUnits="userSpaceOnUse">
            <stop stop-color="#FFA500"/>
            <stop offset="1" stop-color="#FF4500"/>
        </linearGradient>
    </defs>
</svg>