<svg width="62" height="56" fill="none" xmlns="http://www.w3.org/2000/svg">
    <path d="M50 52h-8v-6m8-41.5h-8V10m0 0h6m-6 0v6m0 0h8m-8 0v6m0 0h6m-6 0v6m0 0h8m-8 0v6m0 0h6m-6 0v6m0 0h8m-8 0v6m0 0h6"
          stroke="url(#paint0_linear_301_2)"/>
    <path d="M19.991 34.694c.9.785 1.021 1.804 1.008 2.906-.013 4.434 0 8.881-.013 13.316 0 1.583-.834 2.712-2.205 3.029-.228.055-.47.055-.698.055H3.015c-1.734 0-2.917-1.184-2.93-2.974-.013-4.682 0-9.364 0-14.046 0-.909.31-1.68.995-2.313-.646-.662-1.008-1.433-.982-2.355.014-.91.39-1.666 1.062-2.3-.63-.647-1.007-1.39-1.02-2.327 0-.936.39-1.68 1.008-2.327-1.385-1.543-1.411-2.796-.108-4.668-1.411-1.653-1.384-4.228.067-5.867 1.25-1.418 2.514-2.822 3.764-4.24.094-.111.188-.235.322-.386-1.129-.248-1.398-1.033-1.344-2.052.04-.854 0-1.721.014-2.575C3.876 4.578 4.44 4 5.408 4H15.69c.941 0 1.505.578 1.519 1.529.013.922 0 1.859 0 2.781 0 1.143-.229 1.474-1.304 1.9.094.124.175.234.269.345 1.304 1.473 2.607 2.96 3.938 4.42.591.66.887 1.405.874 2.286 0 .289-.014.592 0 .881.026.978-.229 1.832-.995 2.548.632.647 1.008 1.418.981 2.34-.013.91-.363 1.667-1.062 2.3.605.661 1.022 1.391 1.008 2.327 0 .91-.349 1.667-1.021 2.341.645.62 1.048 1.364 1.075 2.286.04.95-.309 1.721-.981 2.41zm-9.435 17.901h7.46c1.048 0 1.585-.564 1.585-1.624V37.09c0-1.075-.564-1.612-1.586-1.612H3.205c-1.21 0-1.708.51-1.708 1.749V50.86c0 1.226.51 1.75 1.72 1.75 2.447-.015 4.893-.015 7.339-.015zm-.013-32.663h7.607c.833 0 1.398-.537 1.451-1.39.027-.372-.013-.758.014-1.13.027-.578-.162-1.06-.551-1.487-1.613-1.79-3.213-3.608-4.825-5.398a.936.936 0 00-.632-.289 220.7 220.7 0 00-6.089 0c-.215 0-.483.138-.631.29-1.452 1.569-2.81 3.221-4.288 4.736-.873.895-1.236 1.845-1.129 3.085.094 1.032.565 1.583 1.573 1.583h7.5zm-.027 14.06c2.473 0 4.946.014 7.405-.014.336 0 .713-.096.995-.275.605-.386.82-1.13.591-1.818-.215-.675-.806-1.102-1.532-1.102H3.205c-.995 0-1.721.689-1.721 1.611 0 .937.712 1.598 1.72 1.598h7.312zm0-9.378h7.351c.498 0 .928-.11 1.277-.482.444-.482.578-1.17.296-1.776-.31-.689-.86-.978-1.586-.978H3.244c-1.048 0-1.774.675-1.774 1.625S2.183 24.6 3.244 24.6c2.433.014 4.852.014 7.272.014zm.04 1.501c-2.446 0-4.906.028-7.352-.014-.914-.013-1.68.744-1.666 1.598.013.936.698 1.625 1.653 1.625h14.703c.968 0 1.654-.689 1.667-1.612.013-.922-.806-1.638-1.653-1.624-2.46.055-4.906.027-7.352.027zm5.228-20.628H5.287V8.71h10.497V5.487z"
          fill="#000"/>
    <path d="M19.991 34.694c.9.785 1.021 1.804 1.008 2.906-.013 4.434 0 8.881-.013 13.316 0 1.583-.834 2.712-2.205 3.029-.228.055-.47.055-.698.055H3.015c-1.734 0-2.917-1.184-2.93-2.974-.013-4.682 0-9.364 0-14.046 0-.909.31-1.68.995-2.313-.646-.662-1.008-1.433-.982-2.355.014-.91.39-1.666 1.062-2.3-.63-.647-1.007-1.39-1.02-2.327 0-.936.39-1.68 1.008-2.327-1.385-1.543-1.411-2.796-.108-4.668-1.411-1.653-1.384-4.228.067-5.867 1.25-1.418 2.514-2.822 3.764-4.24.094-.111.188-.235.322-.386-1.129-.248-1.398-1.033-1.344-2.052.04-.854 0-1.721.014-2.575C3.876 4.578 4.44 4 5.408 4H15.69c.941 0 1.505.578 1.519 1.529.013.922 0 1.859 0 2.781 0 1.143-.229 1.474-1.304 1.9.094.124.175.234.269.345 1.304 1.473 2.607 2.96 3.938 4.42.591.66.887 1.405.874 2.286 0 .289-.014.592 0 .881.026.978-.229 1.832-.995 2.548.632.647 1.008 1.418.981 2.34-.013.91-.363 1.667-1.062 2.3.605.661 1.022 1.391 1.008 2.327 0 .91-.349 1.667-1.021 2.341.645.62 1.048 1.364 1.075 2.286.04.95-.309 1.721-.981 2.41zm-9.435 17.901h7.46c1.048 0 1.585-.564 1.585-1.624V37.09c0-1.075-.564-1.612-1.586-1.612H3.205c-1.21 0-1.708.51-1.708 1.749V50.86c0 1.226.51 1.75 1.72 1.75 2.447-.015 4.893-.015 7.339-.015zm-.013-32.663h7.607c.833 0 1.398-.537 1.451-1.39.027-.372-.013-.758.014-1.13.027-.578-.162-1.06-.551-1.487-1.613-1.79-3.213-3.608-4.825-5.398a.936.936 0 00-.632-.289 220.7 220.7 0 00-6.089 0c-.215 0-.483.138-.631.29-1.452 1.569-2.81 3.221-4.288 4.736-.873.895-1.236 1.845-1.129 3.085.094 1.032.565 1.583 1.573 1.583h7.5zm-.027 14.06c2.473 0 4.946.014 7.405-.014.336 0 .713-.096.995-.275.605-.386.82-1.13.591-1.818-.215-.675-.806-1.102-1.532-1.102H3.205c-.995 0-1.721.689-1.721 1.611 0 .937.712 1.598 1.72 1.598h7.312zm0-9.378h7.351c.498 0 .928-.11 1.277-.482.444-.482.578-1.17.296-1.776-.31-.689-.86-.978-1.586-.978H3.244c-1.048 0-1.774.675-1.774 1.625S2.183 24.6 3.244 24.6c2.433.014 4.852.014 7.272.014zm.04 1.501c-2.446 0-4.906.028-7.352-.014-.914-.013-1.68.744-1.666 1.598.013.936.698 1.625 1.653 1.625h14.703c.968 0 1.654-.689 1.667-1.612.013-.922-.806-1.638-1.653-1.624-2.46.055-4.906.027-7.352.027zm5.228-20.628H5.287V8.71h10.497V5.487z"
          fill="url(#paint1_linear_301_2)"/>
    <path d="M55.995 3.87c.503.02.872.13 1.105.33.237.2.355.472.355.815 0 .153-.027.295-.08.425a.84.84 0 01-.235.335 1.099 1.099 0 01-.395.22c-.16.053-.35.08-.57.08a1.85 1.85 0 01-.265-.02 2.367 2.367 0 01-.455-.11 1.093 1.093 0 01-.13-.05l.09-.405c.057.027.148.062.275.105.13.043.288.065.475.065.15 0 .275-.017.375-.05a.685.685 0 00.25-.135.481.481 0 00.135-.195.653.653 0 00.045-.24.812.812 0 00-.065-.335.55.55 0 00-.23-.25 1.304 1.304 0 00-.44-.15 3.638 3.638 0 00-.695-.055c.02-.163.035-.317.045-.46a21.642 21.642 0 00.08-1.255h1.67v.395H56.07l-.015.205a31.257 31.257 0 00-.04.53 3.902 3.902 0 01-.02.205zm3.442-.92l-.02.545c-.006.173-.016.343-.03.51a5.604 5.604 0 01-.06.48 3.57 3.57 0 01-.11.46 2.53 2.53 0 01-.175.425c-.066.13-.151.245-.255.345-.1.097-.22.175-.36.235a1.32 1.32 0 01-.485.1l-.055-.42c.234-.027.414-.1.54-.22.13-.12.237-.303.32-.55a3.92 3.92 0 00.175-1.01c.027-.397.04-.835.04-1.315h1.965V6h-.485V2.95h-1.005zM55.25 52.265c0-.58.102-1.027.305-1.34.207-.313.492-.47.855-.47s.647.157.85.47c.207.313.31.76.31 1.34 0 .58-.103 1.027-.31 1.34-.203.313-.487.47-.85.47s-.648-.157-.855-.47c-.203-.313-.305-.76-.305-1.34zm1.83 0c0-.19-.012-.37-.035-.54a1.643 1.643 0 00-.11-.445.738.738 0 00-.205-.3.465.465 0 00-.32-.115.465.465 0 00-.32.115.78.78 0 00-.21.3 1.93 1.93 0 00-.11.445c-.02.17-.03.35-.03.54 0 .19.01.37.03.54.023.17.06.318.11.445a.827.827 0 00.21.305.48.48 0 00.32.11.479.479 0 00.32-.11.781.781 0 00.205-.305c.053-.127.09-.275.11-.445.023-.17.035-.35.035-.54zm2.357-1.315l-.02.545c-.006.173-.016.343-.03.51a5.607 5.607 0 01-.06.48 3.57 3.57 0 01-.11.46c-.046.15-.105.292-.175.425-.066.13-.151.245-.255.345-.1.097-.22.175-.36.235a1.32 1.32 0 01-.485.1l-.055-.42c.234-.027.414-.1.54-.22.13-.12.237-.303.32-.55a3.92 3.92 0 00.175-1.01c.027-.397.04-.835.04-1.315h1.965V54h-.485v-3.05h-1.005z"
          fill="#4E4E4E"/>
    <defs>
        <linearGradient id="paint0_linear_301_2" x1="42" y1="4.5" x2="42" y2="52" gradientUnits="userSpaceOnUse">
            <stop stop-color="#FFA500"/>
            <stop offset=".563" stop-color="#FFA500"/>
            <stop offset=".568" stop-color="#FF4500" stop-opacity=".32"/>
            <stop offset=".995" stop-color="#FF4500" stop-opacity=".32"/>
        </linearGradient>
        <linearGradient id="paint1_linear_301_2" x1="0" y1="4" x2="30.034" y2="10.194" gradientUnits="userSpaceOnUse">
            <stop stop-color="#FFA500"/>
            <stop offset="1" stop-color="#FF4500"/>
        </linearGradient>
    </defs>
</svg>