<svg width="252" height="77" fill="none" xmlns="http://www.w3.org/2000/svg">
    <path d="M1 75s45.007-19.583 75.593-20.882c22.93-.974 35.407 9.088 58.3 7.458 39.553-2.817 53.349-38.228 92.886-41.267 9.042-.695 23.221 0 23.221 0"
          stroke="#000" stroke-width="4"/>
    <path d="M1 75s45.007-19.583 75.593-20.882c22.93-.974 35.407 9.088 58.3 7.458 39.553-2.817 53.349-38.228 92.886-41.267 9.042-.695 23.221 0 23.221 0"
          stroke="url(#paint0_linear_190_236)" stroke-width="4"/>
    <g filter="url(#filter0_d_190_236)">
        <circle cx="223" cy="20" r="10" fill="#fff"/>
        <circle cx="223" cy="20" r="9.5" stroke="url(#paint1_linear_190_236)"/>
    </g>
    <defs>
        <linearGradient id="paint0_linear_190_236" x1="1" y1="20" x2="63.318" y2="159.09"
                        gradientUnits="userSpaceOnUse">
            <stop stop-color="#FF4500"/>
            <stop offset="1" stop-color="#FF4500"/>
        </linearGradient>
        <linearGradient id="paint1_linear_190_236" x1="213" y1="10" x2="237.027" y2="21.798"
                        gradientUnits="userSpaceOnUse">
            <stop stop-color="#FF4500"/>
            <stop offset="1" stop-color="#FF4500"/>
        </linearGradient>
        <filter id="filter0_d_190_236" x="203" y="0" width="44" height="44" filterUnits="userSpaceOnUse"
                color-interpolation-filters="sRGB">
            <feFlood flood-opacity="0" result="BackgroundImageFix"/>
            <feColorMatrix in="SourceAlpha" values="0 0 0 0 0 0 0 0 0 0 0 0 0 0 0 0 0 0 127 0" result="hardAlpha"/>
            <feOffset dx="2" dy="2"/>
            <feGaussianBlur stdDeviation="6"/>
            <feComposite in2="hardAlpha" operator="out"/>
            <feColorMatrix values="0 0 0 0 0 0 0 0 0 0 0 0 0 0 0 0 0 0 0.12 0"/>
            <feBlend in2="BackgroundImageFix" result="effect1_dropShadow_190_236"/>
            <feBlend in="SourceGraphic" in2="effect1_dropShadow_190_236" result="shape"/>
        </filter>
    </defs>
</svg>