<svg width="50" height="50" viewBox="0 0 50 50" fill="none" xmlns="http://www.w3.org/2000/svg">
    <g opacity="1">
        <path d="M0 28.8537C0 28.3988 0 27.9439 0 27.489C0.0260417 27.398 0.078125 27.307 0.0911458 27.2161C0.455729 25.4355 1.45833 24.1487 3.125 23.4209C3.56771 23.2259 3.61979 23.018 3.58073 22.5891C3.30729 20.0936 2.95573 17.5852 3.22917 15.0637C3.59375 11.6585 5.11719 8.96808 8.09896 7.16148C9.80469 6.13471 11.6667 5.61482 13.6198 5.34188C13.9453 5.28989 14.3099 5.14692 14.5703 4.95197C17.6172 2.56049 21.0286 1.1828 24.9479 1.14381C26.9792 1.11781 28.9714 1.35176 30.9505 1.76767C34.8177 2.58649 38.4375 3.96418 41.5625 6.42064C45.2474 9.319 47.1615 13.0622 46.849 17.8061C46.7448 19.4308 46.5755 21.0424 46.4062 22.6541C46.3672 23.044 46.4193 23.2389 46.8229 23.4209C48.4115 24.1097 49.4141 25.3315 49.8177 27.0341C49.8958 27.346 49.9349 27.671 50 27.9829C50 28.0869 50 28.1779 50 28.2818C49.974 28.4508 49.9349 28.6327 49.9089 28.8017C49.6615 31.1412 47.6823 33.1298 45.3255 33.3377C45 33.3637 44.8438 33.4547 44.7396 33.7666C44.1667 35.5602 43.3073 37.1979 42.2656 38.7575C36.1198 47.9595 23.6068 50.7149 14.1536 44.9182C9.88281 42.2927 6.9401 38.5886 5.27344 33.8706C5.18229 33.6107 5.15625 33.3767 4.76562 33.3507C2.65625 33.1947 0.885417 31.7651 0.247396 29.7505C0.15625 29.4386 0.078125 29.1396 0 28.8537ZM17.3828 16.6234C16.7448 17.4942 16.1849 18.417 15.4557 19.1838C13.8672 20.8735 11.8359 21.9002 9.63542 22.6151C9.28385 22.732 9.11458 22.901 9.01042 23.2519C8.34635 25.6304 7.68229 27.9959 6.96615 30.3614C6.75781 31.0502 6.77083 31.6611 6.96615 32.3369C9.47917 41.175 18.1771 46.8677 27.3828 45.698C35.026 44.7232 41.2891 39.1604 43.151 31.6871C43.2161 31.4401 43.2031 31.1412 43.125 30.8813C42.474 28.5678 41.8099 26.2673 41.1458 23.9538C40.8594 22.966 40.8594 22.953 39.8047 22.927C35.4818 22.836 31.1979 22.4721 26.9922 21.4193C23.9453 20.6525 21.0286 19.5867 18.5156 17.6112C18.112 17.2862 17.7214 16.9093 17.3828 16.6234ZM6.05469 25.7344C6.08073 25.7344 6.10677 25.7344 6.13281 25.7474C6.17187 25.6174 6.22396 25.4874 6.26302 25.3445C6.60156 24.1877 6.9401 23.044 7.2526 21.8872C7.40885 21.3284 7.7474 21.0554 8.28125 20.8475C9.51823 20.3796 10.7943 19.9247 11.9401 19.2748C14.1276 18.0401 15.6641 16.2985 15.7161 13.6081C15.7292 13.1272 16.1198 12.7892 16.6016 12.7113C17.0573 12.6333 17.5 12.8802 17.6823 13.3611C18.0339 14.2579 18.6068 15.0247 19.362 15.5966C20.3385 16.3375 21.3542 17.0783 22.4479 17.6242C26.224 19.4958 30.2995 20.2106 34.4401 20.5615C36.7578 20.7565 39.0885 20.7955 41.4062 20.8865C42.2135 20.9254 42.5 21.1204 42.7344 21.9132C42.9427 22.6411 43.151 23.3819 43.3594 24.1097C43.5156 24.6686 43.6849 25.2145 43.8542 25.7734C43.9193 25.7734 43.9714 25.7734 44.0365 25.7734C44.2839 22.797 44.5964 19.8337 44.7786 16.8573C44.8828 15.0507 44.401 13.3221 43.4896 11.7235C42.0964 9.25402 40 7.56439 37.5391 6.26468C34.1536 4.47107 30.5208 3.60026 26.7187 3.28833C22.4089 2.93741 18.6849 4.21113 15.4036 6.97952C15.1432 7.20047 14.7526 7.31745 14.401 7.39543C13.6719 7.5384 12.9167 7.56439 12.1875 7.72036C8.07292 8.63016 5.50781 11.5285 5.28646 15.7266C5.19531 17.4942 5.36458 19.2878 5.50781 21.0684C5.625 22.6281 5.85938 24.1747 6.05469 25.7344ZM4.49219 31.1542C4.3099 29.2046 4.1276 27.294 3.94531 25.3575C2.72135 25.8644 1.95312 27.2031 2.09635 28.4638C2.26562 29.8545 3.28125 30.9852 4.49219 31.1542ZM45.5078 31.1672C46.849 30.8293 47.7995 29.6985 47.8516 28.3858C47.9167 27.0341 47.2005 25.7994 46.0417 25.3835C45.8724 27.32 45.6901 29.2306 45.5078 31.1672Z"
              fill="black"/>
        <path d="M0 28.8537C0 28.3988 0 27.9439 0 27.489C0.0260417 27.398 0.078125 27.307 0.0911458 27.2161C0.455729 25.4355 1.45833 24.1487 3.125 23.4209C3.56771 23.2259 3.61979 23.018 3.58073 22.5891C3.30729 20.0936 2.95573 17.5852 3.22917 15.0637C3.59375 11.6585 5.11719 8.96808 8.09896 7.16148C9.80469 6.13471 11.6667 5.61482 13.6198 5.34188C13.9453 5.28989 14.3099 5.14692 14.5703 4.95197C17.6172 2.56049 21.0286 1.1828 24.9479 1.14381C26.9792 1.11781 28.9714 1.35176 30.9505 1.76767C34.8177 2.58649 38.4375 3.96418 41.5625 6.42064C45.2474 9.319 47.1615 13.0622 46.849 17.8061C46.7448 19.4308 46.5755 21.0424 46.4062 22.6541C46.3672 23.044 46.4193 23.2389 46.8229 23.4209C48.4115 24.1097 49.4141 25.3315 49.8177 27.0341C49.8958 27.346 49.9349 27.671 50 27.9829C50 28.0869 50 28.1779 50 28.2818C49.974 28.4508 49.9349 28.6327 49.9089 28.8017C49.6615 31.1412 47.6823 33.1298 45.3255 33.3377C45 33.3637 44.8438 33.4547 44.7396 33.7666C44.1667 35.5602 43.3073 37.1979 42.2656 38.7575C36.1198 47.9595 23.6068 50.7149 14.1536 44.9182C9.88281 42.2927 6.9401 38.5886 5.27344 33.8706C5.18229 33.6107 5.15625 33.3767 4.76562 33.3507C2.65625 33.1947 0.885417 31.7651 0.247396 29.7505C0.15625 29.4386 0.078125 29.1396 0 28.8537ZM17.3828 16.6234C16.7448 17.4942 16.1849 18.417 15.4557 19.1838C13.8672 20.8735 11.8359 21.9002 9.63542 22.6151C9.28385 22.732 9.11458 22.901 9.01042 23.2519C8.34635 25.6304 7.68229 27.9959 6.96615 30.3614C6.75781 31.0502 6.77083 31.6611 6.96615 32.3369C9.47917 41.175 18.1771 46.8677 27.3828 45.698C35.026 44.7232 41.2891 39.1604 43.151 31.6871C43.2161 31.4401 43.2031 31.1412 43.125 30.8813C42.474 28.5678 41.8099 26.2673 41.1458 23.9538C40.8594 22.966 40.8594 22.953 39.8047 22.927C35.4818 22.836 31.1979 22.4721 26.9922 21.4193C23.9453 20.6525 21.0286 19.5867 18.5156 17.6112C18.112 17.2862 17.7214 16.9093 17.3828 16.6234ZM6.05469 25.7344C6.08073 25.7344 6.10677 25.7344 6.13281 25.7474C6.17187 25.6174 6.22396 25.4874 6.26302 25.3445C6.60156 24.1877 6.9401 23.044 7.2526 21.8872C7.40885 21.3284 7.7474 21.0554 8.28125 20.8475C9.51823 20.3796 10.7943 19.9247 11.9401 19.2748C14.1276 18.0401 15.6641 16.2985 15.7161 13.6081C15.7292 13.1272 16.1198 12.7892 16.6016 12.7113C17.0573 12.6333 17.5 12.8802 17.6823 13.3611C18.0339 14.2579 18.6068 15.0247 19.362 15.5966C20.3385 16.3375 21.3542 17.0783 22.4479 17.6242C26.224 19.4958 30.2995 20.2106 34.4401 20.5615C36.7578 20.7565 39.0885 20.7955 41.4062 20.8865C42.2135 20.9254 42.5 21.1204 42.7344 21.9132C42.9427 22.6411 43.151 23.3819 43.3594 24.1097C43.5156 24.6686 43.6849 25.2145 43.8542 25.7734C43.9193 25.7734 43.9714 25.7734 44.0365 25.7734C44.2839 22.797 44.5964 19.8337 44.7786 16.8573C44.8828 15.0507 44.401 13.3221 43.4896 11.7235C42.0964 9.25402 40 7.56439 37.5391 6.26468C34.1536 4.47107 30.5208 3.60026 26.7187 3.28833C22.4089 2.93741 18.6849 4.21113 15.4036 6.97952C15.1432 7.20047 14.7526 7.31745 14.401 7.39543C13.6719 7.5384 12.9167 7.56439 12.1875 7.72036C8.07292 8.63016 5.50781 11.5285 5.28646 15.7266C5.19531 17.4942 5.36458 19.2878 5.50781 21.0684C5.625 22.6281 5.85938 24.1747 6.05469 25.7344ZM4.49219 31.1542C4.3099 29.2046 4.1276 27.294 3.94531 25.3575C2.72135 25.8644 1.95312 27.2031 2.09635 28.4638C2.26562 29.8545 3.28125 30.9852 4.49219 31.1542ZM45.5078 31.1672C46.849 30.8293 47.7995 29.6985 47.8516 28.3858C47.9167 27.0341 47.2005 25.7994 46.0417 25.3835C45.8724 27.32 45.6901 29.2306 45.5078 31.1672Z"
              fill="url(#paint0_linear_401_209)"/>
        <path d="M24.9873 39.6544C22.7477 39.6025 20.7946 38.8356 19.18 37.276C18.7894 36.899 18.7113 36.4181 18.9326 35.9892C19.1409 35.5863 19.5706 35.3524 20.0394 35.4694C20.2607 35.5213 20.4951 35.6643 20.6644 35.8203C23.2946 38.1468 26.706 38.1598 29.3232 35.8463C29.8831 35.3524 30.4951 35.3264 30.9248 35.7683C31.3415 36.2102 31.2764 36.8601 30.7425 37.3539C29.1279 38.8876 27.1878 39.6155 24.9873 39.6544Z"
              fill="black"/>
        <path d="M24.9873 39.6544C22.7477 39.6025 20.7946 38.8356 19.18 37.276C18.7894 36.899 18.7113 36.4181 18.9326 35.9892C19.1409 35.5863 19.5706 35.3524 20.0394 35.4694C20.2607 35.5213 20.4951 35.6643 20.6644 35.8203C23.2946 38.1468 26.706 38.1598 29.3232 35.8463C29.8831 35.3524 30.4951 35.3264 30.9248 35.7683C31.3415 36.2102 31.2764 36.8601 30.7425 37.3539C29.1279 38.8876 27.1878 39.6155 24.9873 39.6544Z"
              fill="url(#paint1_linear_401_209)"/>
        <path d="M36.4461 28.152C36.4461 29.8806 35.0528 31.2843 33.3341 31.2843C31.6153 31.2843 30.1961 29.8546 30.2091 28.152C30.2221 26.4493 31.6153 25.0587 33.3211 25.0457C35.0528 25.0457 36.4461 26.4234 36.4461 28.152ZM32.3054 28.165C32.3054 28.7368 32.7481 29.1918 33.308 29.2047C33.881 29.2177 34.3757 28.7368 34.3757 28.165C34.3757 27.5931 33.881 27.1122 33.3211 27.1252C32.7481 27.1382 32.3054 27.5931 32.3054 28.165Z"
              fill="black"/>
        <path d="M36.4461 28.152C36.4461 29.8806 35.0528 31.2843 33.3341 31.2843C31.6153 31.2843 30.1961 29.8546 30.2091 28.152C30.2221 26.4493 31.6153 25.0587 33.3211 25.0457C35.0528 25.0457 36.4461 26.4234 36.4461 28.152ZM32.3054 28.165C32.3054 28.7368 32.7481 29.1918 33.308 29.2047C33.881 29.2177 34.3757 28.7368 34.3757 28.165C34.3757 27.5931 33.881 27.1122 33.3211 27.1252C32.7481 27.1382 32.3054 27.5931 32.3054 28.165Z"
              fill="url(#paint2_linear_401_209)"/>
        <path d="M16.6797 25.0457C18.3984 25.0457 19.8177 26.4753 19.7917 28.191C19.7787 29.9066 18.3464 31.2973 16.6276 31.2843C14.9219 31.2713 13.5547 29.8806 13.5547 28.165C13.5547 26.4363 14.9479 25.0457 16.6797 25.0457ZM17.6953 28.191C17.7083 27.6061 17.2396 27.1252 16.6667 27.1252C16.1198 27.1252 15.651 27.5931 15.638 28.139C15.625 28.7108 16.1068 29.2047 16.6797 29.2047C17.2266 29.2047 17.6823 28.7498 17.6953 28.191Z"
              fill="black"/>
        <path d="M16.6797 25.0457C18.3984 25.0457 19.8177 26.4753 19.7917 28.191C19.7787 29.9066 18.3464 31.2973 16.6276 31.2843C14.9219 31.2713 13.5547 29.8806 13.5547 28.165C13.5547 26.4363 14.9479 25.0457 16.6797 25.0457ZM17.6953 28.191C17.7083 27.6061 17.2396 27.1252 16.6667 27.1252C16.1198 27.1252 15.651 27.5931 15.638 28.139C15.625 28.7108 16.1068 29.2047 16.6797 29.2047C17.2266 29.2047 17.6823 28.7498 17.6953 28.191Z"
              fill="url(#paint3_linear_401_209)"/>
    </g>
    <defs>
        <linearGradient id="paint0_linear_401_209" x1="0" y1="1.14185" x2="58.468" y2="31.8069"
                        gradientUnits="userSpaceOnUse">
            <stop stop-color="#FFA500"/>
            <stop offset="1" stop-color="#FF4500"/>
        </linearGradient>
        <linearGradient id="paint1_linear_401_209" x1="18.8105" y1="35.4392" x2="24.8033" y2="44.0854"
                        gradientUnits="userSpaceOnUse">
            <stop stop-color="#FFA500"/>
            <stop offset="1" stop-color="#FF4500"/>
        </linearGradient>
        <linearGradient id="paint2_linear_401_209" x1="30.209" y1="25.0457" x2="37.7027" y2="28.7243"
                        gradientUnits="userSpaceOnUse">
            <stop stop-color="#FFA500"/>
            <stop offset="1" stop-color="#FF4500"/>
        </linearGradient>
        <linearGradient id="paint3_linear_401_209" x1="13.5547" y1="25.0457" x2="21.0487" y2="28.7246"
                        gradientUnits="userSpaceOnUse">
            <stop stop-color="#FFA500"/>
            <stop offset="1" stop-color="#FF4500"/>
        </linearGradient>
    </defs>
</svg>
