<svg width="334" height="205" fill="none" xmlns="http://www.w3.org/2000/svg"><path d="M103.656 121.101v-5h-5v5h5zm128.85 0h5v-5h-5v5zm42.016 0v-5h-5v5h5zm2.181 0h5v-5h-5v5zm28.945 0v-5h-5v5h5zm23.341-13.722h-5v.106l.004.106 4.996-.212zm-23.341-18.297h-5v5h5v-5zm-28.945 0v5h5v-5h-5zm-2.181 0h-5v5h5v-5zm-42.016 0v5h5v-5h-5zm-11.513 0h-5v5h5v-5zm0-.304h5v-5h-5v5zm-103.327 0v-5h-5v5h5zm0 .304v5h5v-5h-5zm-14.01 0h-5v5h5v-5zm-42.016 0v5h5v-5h-5zm-2.178 0h-5v5h5v-5zm-28.944 0v5h5v-5h-5zm0 32.019h5v-5h-5v5zm28.944 0v-5h-5v5h5zm2.178 0h5v-5h-5v5zm28.011 73.065H75.646v10H89.65v-10zm9.005-8.722c0 4.766-3.889 8.722-9.005 8.722v10c10.445 0 19.005-8.241 19.005-18.722h-10zm0-64.343v64.343h10v-64.343h-10zm133.85-5h-128.85v10h128.85v-10zm5 69.343v-64.343h-10v64.343h10zm9.005 8.722c-5.116 0-9.005-3.956-9.005-8.722h-10c0 10.481 8.56 18.722 19.005 18.722v-10zm14.005 0h-14.005v10h14.005v-10zm9.006-8.722c0 4.766-3.89 8.722-9.006 8.722v10c10.446 0 19.006-8.241 19.006-18.722h-10zm0-64.343v64.343h10v-64.343h-10zm7.181-5h-2.181v10h2.181v-10zm5 45.862v-40.862h-10v40.862h10zm4.648 4.454c-2.626 0-4.648-2.127-4.648-4.454h-10c0 8.041 6.693 14.454 14.648 14.454v-10zm9.648 0h-9.648v10h9.648v-10zm4.649-4.454c0 2.327-2.022 4.454-4.649 4.454v10c7.956 0 14.649-6.413 14.649-14.454h-10zm0-40.862v40.862h10v-40.862h-10zm14.647-5h-9.647v10h9.647v-10zm8.698-8.51c.184 4.323-3.606 8.51-8.698 8.51v10c10.469 0 19.128-8.62 18.689-18.935l-9.991.425zm-.004-4.786v4.574h10v-4.574h-10zm-9.005-8.723c5.116 0 9.005 3.956 9.005 8.723h10c0-10.48-8.56-18.723-19.005-18.723v10zm-9.336 0h9.336v-10h-9.336v10zm-5-46.472v41.472h10V47.61h-10zm-4.649-4.453c2.627 0 4.649 2.127 4.649 4.453h10c0-8.04-6.693-14.453-14.649-14.453v10zm-9.648 0h9.648v-10h-9.648v10zm-4.648 4.453c0-2.326 2.022-4.453 4.648-4.453v-10c-7.955 0-14.648 6.412-14.648 14.453h10zm0 41.472V47.61h-10v41.472h10zm-7.181 5h2.181v-10h-2.181v10zm-5-74.526v69.526h10V19.556h-10zm-9.006-8.723c5.116 0 9.006 3.956 9.006 8.723h10c0-10.48-8.56-18.723-19.006-18.723v10zm-14.005 0h14.005v-10h-14.005v10zm-9.005 8.723c0-4.767 3.889-8.723 9.005-8.723v-10c-10.445 0-19.005 8.242-19.005 18.723h10zm0 69.526V19.556h-10v69.526h10zm-16.513 5h11.513v-10h-11.513v10zm5-5v-.304h-10v.304h10zm-5-5.304H117.666v10h103.327v-10zm-108.327 5v.304h10v-.304h-10zm-9.01 5.304h14.01v-10h-14.01v10zm-5-74.526v69.526h10V19.556h-10zm-9.005-8.723c5.116 0 9.005 3.957 9.005 8.723h10c0-10.48-8.56-18.723-19.005-18.723v10zm-14.005 0H89.65v-10H75.646v10zm-9.006 8.723c0-4.767 3.89-8.723 9.006-8.723v-10C65.2.833 56.64 9.075 56.64 19.556h10zm0 69.526V19.556h-10v69.526h10zm-7.178 5h2.178v-10h-2.178v10zm-5-51.046v46.046h10V43.036h-10zm-4.648-4.453c2.627 0 4.648 2.127 4.648 4.453h10c0-8.04-6.692-14.453-14.648-14.453v10zm-9.648 0h9.648v-10h-9.648v10zm-4.648 4.453c0-2.327 2.022-4.453 4.648-4.453v-10c-7.955 0-14.648 6.412-14.648 14.453h10zm0 46.046V43.036h-10v46.046h10zm-16.513 5h11.513v-10H19.005v10zM10 102.805c0-4.767 3.89-8.723 9.005-8.723v-10C8.56 84.082 0 92.324 0 102.805h10zm0 4.574v-4.574H0v4.574h10zm9.005 8.722c-5.116 0-9.005-3.956-9.005-8.722H0c0 10.481 8.56 18.722 19.005 18.722v-10zm11.513 0H19.005v10h11.513v-10zm5 41.593v-36.593h-10v36.593h10zm4.648 4.453c-2.626 0-4.648-2.126-4.648-4.453h-10c0 8.041 6.693 14.453 14.648 14.453v-10zm9.648 0h-9.648v10h9.648v-10zm4.648-4.758c0 2.735-2.126 4.758-4.648 4.758v10c8.06 0 14.648-6.515 14.648-14.758h-10zm0-36.288v36.288h10v-36.288h-10zm7.178-5h-2.178v10h2.178v-10zm5 69.343v-64.343h-10v64.343h10zm9.006 8.722c-5.116 0-9.006-3.956-9.006-8.722h-10c0 10.481 8.56 18.722 19.006 18.722v-10z" fill="#EAD8EE"/></svg>