<svg width="304" height="324" fill="none" xmlns="http://www.w3.org/2000/svg"><path d="M162.049 178.939a1.906 1.906 0 002.286-1.451c1.296-5.803 1.945-11.867 1.945-18.191 0-1.907-.159-3.656-.159-5.564-.952-13.99-5.236-27.026-12.217-38.314-4.443-7.313-9.996-13.831-16.501-19.236-9.624-8.221-20.974-14.398-33.582-17.593-.142-.036-.278-.09-.416-.14a4.537 4.537 0 00-1.309-.228 2.469 2.469 0 01-.462-.058c-5.957-1.393-12.07-2.013-18.494-2.013-29.829 0-56.008 15.898-70.764 39.586C5.395 127.025.952 140.061.159 154.051c0 1.59-.159 3.339-.159 5.246 0 11.606 2.38 22.734 6.664 32.75A84.824 84.824 0 0035.382 227.5c9.058 6.353 21.276 11.123 32.008 13.351a2.033 2.033 0 011.629 1.983v24.636a2 2 0 01-2 2H45.854c-1.904 0-3.332 1.59-3.332 3.339v18.6c0 1.908 1.587 3.339 3.332 3.339h21.323a2 2 0 012 2v23.595c0 1.908 1.587 3.339 3.332 3.339h21.103c1.904 0 3.332-1.59 3.332-3.339v-23.595a2 2 0 012-2h21.323c1.904 0 3.332-1.59 3.332-3.339v-18.6c0-1.908-1.586-3.339-3.332-3.339H99.102a2 2 0 01-2-2v-24.641c0-.961.683-1.784 1.624-1.981 10.62-2.23 23.118-6.998 32.172-13.348 4.569-3.232 8.796-6.806 12.586-10.818.979-1.036.523-2.718-.816-3.208-7.54-2.757-14.676-6.339-20.179-10.298-.663-.475-1.325-.949-1.988-1.457a2.154 2.154 0 00-2.666.028c-9.485 7.758-21.504 12.398-34.536 12.398-17.454 0-33.003-8.108-42.998-20.826-7.458-9.38-11.9-21.303-11.9-34.181 0-1.907.159-3.815.317-5.723 1.745-16.534 10.79-31.001 23.8-39.745a55.003 55.003 0 0130.78-9.38c1.587 0 3.015.159 4.443.159 9.679.795 18.564 4.134 26.18 9.221 3.649 2.385 6.822 5.247 9.678 8.426.159.159.317.477.476.636 7.457 8.426 12.376 19.078 13.487 30.683.158 1.908.317 3.816.317 5.723 0 1.739-.112 3.365-.242 4.973-.047.578.156 1.15.568 1.557 6.725 6.655 14.871 11.198 23.844 13.271z" fill="#EAD8EE"/><path d="M228 0c-2.062 0-3.649 1.59-3.649 3.657v20.19c0 2.067 1.587 3.656 3.649 3.656h24.214c1.781 0 2.674 2.153 1.416 3.413l-12.143 12.167-18.629 18.666a2.033 2.033 0 01-2.596.222c-13.39-9.262-29.682-14.754-47.159-14.754-23.501 0-44.828 9.871-59.967 25.591-.998 1.037-.549 2.741.799 3.241 7.901 2.931 15.225 6.894 21.877 11.984a2.039 2.039 0 002.526-.029c1.328-1.081 2.656-2.141 3.984-3.109a55 55 0 0130.781-9.38c11.424 0 21.895 3.498 30.781 9.38 13.01 8.903 22.213 23.211 23.799 39.745.159 1.908.317 3.815.317 5.723 0 12.877-4.442 24.801-11.899 34.181-9.996 12.718-25.545 20.826-42.998 20.826-17.453 0-33.002-8.108-42.998-20.826-7.457-9.38-11.9-21.304-11.9-34.181 0-1.908.159-3.815.317-5.723 0-.102-.04-.2-.112-.272-2.347-2.342-4.849-4.528-7.503-6.405-5.029-3.455-10.708-5.867-16.684-7.237a1.919 1.919 0 00-2.3 1.48c-.89 4.15-1.526 8.331-1.801 12.752-.16 1.749-.16 3.656-.16 5.564 0 11.606 2.38 22.734 6.665 32.75a84.82 84.82 0 0028.718 35.452c9.52 6.677 22.53 11.606 33.637 13.672 4.442.795 7.933 1.113 12.693 1.272 5.654.158 10.22-.464 15.236-1.247.102-.016.207-.02.309-.038.121-.021.216-.063.298-.097.116-.048.243-.06.367-.084 10.753-2.088 23.668-6.997 32.976-13.478 12.534-8.903 22.689-21.144 28.718-35.452 4.284-10.016 6.664-21.144 6.664-32.75 0-1.908-.159-3.656-.159-5.564-.952-13.99-5.236-27.027-12.217-38.314l-1.95-2.93a2 2 0 01.25-2.521l1.224-1.226 29.586-29.646c1.26-1.261 3.416-.37 3.416 1.413v24.258c0 2.067 1.587 3.657 3.649 3.657h20.151c2.062 0 3.649-1.59 3.649-3.657V2a2 2 0 00-2-2H228z" fill="#EAD8EE"/></svg>